<svg xmlns="http://www.w3.org/2000/svg" xmlns:xlink="http://www.w3.org/1999/xlink" width="500" zoomAndPan="magnify" viewBox="0 0 375 374.999991" height="500" preserveAspectRatio="xMidYMid meet" version="1.0"><defs><clipPath id="654dcf910e"><path d="M 52.988281 106 L 322 106 L 322 274 L 52.988281 274 Z M 52.988281 106 " clip-rule="nonzero"/></clipPath></defs><rect x="-37.5" width="450" fill="#ffffff" y="-37.499999" height="449.999989" fill-opacity="1"/><rect x="-37.5" width="450" fill="#1b1b1d" y="-37.499999" height="449.999989" fill-opacity="1"/><g clip-path="url(#654dcf910e)"><path fill="#f6f4f0" d="M 320.542969 112.167969 L 315.96875 112.167969 C 310.316406 112.167969 304.988281 114.804688 301.550781 119.292969 L 254.742188 180.503906 L 207.933594 119.292969 C 204.507812 114.804688 199.175781 112.167969 193.527344 112.167969 L 188.953125 112.167969 L 247.980469 189.355469 L 187.6875 268.199219 L 192.261719 268.199219 C 197.914062 268.199219 203.242188 265.5625 206.675781 261.074219 L 254.75 198.210938 L 302.820312 261.074219 C 306.253906 265.5625 311.582031 268.199219 317.234375 268.199219 L 321.808594 268.199219 L 261.515625 189.355469 Z M 167.527344 237.21875 C 153.785156 258.101562 126.734375 268.800781 100.871094 259.363281 C 78.117188 251.0625 63.746094 228.445312 63.746094 204.222656 L 63.746094 198.253906 L 187.496094 198.253906 L 187.496094 176.011719 C 187.496094 141.015625 161.570312 110.371094 126.722656 107.097656 C 86.738281 103.335938 52.988281 134.820312 52.988281 174.042969 L 52.988281 204.027344 C 52.988281 232.925781 70.285156 259.789062 97.476562 269.578125 C 133.003906 282.359375 170.367188 263.28125 183 230.535156 L 179.570312 230.535156 C 174.667969 230.535156 170.21875 233.125 167.527344 237.21875 Z M 63.746094 174.042969 C 63.746094 142.890625 89.089844 117.550781 120.242188 117.550781 C 151.390625 117.550781 176.734375 142.890625 176.734375 174.042969 L 176.734375 187.496094 L 63.746094 187.496094 Z M 63.746094 174.042969 " fill-opacity="1" fill-rule="nonzero"/></g></svg>