<svg xmlns="http://www.w3.org/2000/svg" xmlns:xlink="http://www.w3.org/1999/xlink" width="500" zoomAndPan="magnify" viewBox="0 0 375 374.999991" height="500" preserveAspectRatio="xMidYMid meet" version="1.0"><rect x="-37.5" width="450" fill="#ffffff" y="-37.499999" height="449.999989" fill-opacity="1"/><rect x="-37.5" width="450" fill="#1b1b1d" y="-37.499999" height="449.999989" fill-opacity="1"/><path fill="#1abcfe" d="M 187.421875 187.507812 C 187.421875 162.683594 207.53125 142.554688 232.335938 142.554688 C 257.140625 142.554688 277.246094 162.683594 277.246094 187.507812 C 277.246094 212.335938 257.140625 232.464844 232.335938 232.464844 C 207.53125 232.464844 187.421875 212.335938 187.421875 187.507812 Z M 187.421875 187.507812 " fill-opacity="1" fill-rule="nonzero"/><path fill="#0acf83" d="M 97.59375 277.417969 C 97.59375 252.589844 117.703125 232.464844 142.507812 232.464844 L 187.421875 232.464844 L 187.421875 277.417969 C 187.421875 302.246094 167.3125 322.371094 142.507812 322.371094 C 117.703125 322.371094 97.59375 302.246094 97.59375 277.417969 Z M 97.59375 277.417969 " fill-opacity="1" fill-rule="nonzero"/><path fill="#ff7262" d="M 187.421875 52.644531 L 187.421875 142.554688 L 232.335938 142.554688 C 257.140625 142.554688 277.246094 122.429688 277.246094 97.601562 C 277.246094 72.773438 257.140625 52.644531 232.335938 52.644531 Z M 187.421875 52.644531 " fill-opacity="1" fill-rule="nonzero"/><path fill="#f24e1e" d="M 97.59375 97.601562 C 97.59375 122.429688 117.703125 142.554688 142.507812 142.554688 L 187.421875 142.554688 L 187.421875 52.644531 L 142.507812 52.644531 C 117.703125 52.644531 97.59375 72.773438 97.59375 97.601562 Z M 97.59375 97.601562 " fill-opacity="1" fill-rule="nonzero"/><path fill="#a259ff" d="M 97.59375 187.507812 C 97.59375 212.335938 117.703125 232.464844 142.507812 232.464844 L 187.421875 232.464844 L 187.421875 142.554688 L 142.507812 142.554688 C 117.703125 142.554688 97.59375 162.683594 97.59375 187.507812 Z M 97.59375 187.507812 " fill-opacity="1" fill-rule="nonzero"/></svg>