<svg xmlns="http://www.w3.org/2000/svg" xmlns:xlink="http://www.w3.org/1999/xlink" width="500" zoomAndPan="magnify" viewBox="0 0 375 374.999991" height="500" preserveAspectRatio="xMidYMid meet" version="1.0"><defs><filter x="0%" y="0%" width="100%" height="100%" id="b08f89cd9c"><feColorMatrix values="0 0 0 0 1 0 0 0 0 1 0 0 0 0 1 0 0 0 1 0" color-interpolation-filters="sRGB"/></filter><mask id="2a6f89ab1c"><g filter="url(#b08f89cd9c)"><rect x="-37.5" width="450" fill="#000000" y="-37.499999" height="449.999989" fill-opacity="0.22"/></g></mask><clipPath id="197f4ed201"><rect x="0" width="375" y="0" height="375"/></clipPath></defs><g mask="url(#2a6f89ab1c)"><g transform="matrix(1, 0, 0, 1, 0, 0)"><g clip-path="url(#197f4ed201)"><path fill="#545454" d="M 374.636719 0 L 0 0 L 0 374.996094 L 374.996094 374.996094 L 374.996094 0 Z M 362.929688 0.359375 L 362.929688 11.707031 L 351.582031 11.707031 L 351.582031 0.359375 Z M 187.316406 187.675781 L 187.316406 199.027344 L 175.96875 199.027344 L 175.96875 187.675781 Z M 175.96875 187.320312 L 175.96875 175.96875 L 187.316406 175.96875 L 187.316406 187.320312 Z M 187.675781 187.675781 L 199.027344 187.675781 L 199.027344 199.027344 L 187.675781 199.027344 Z M 187.675781 187.320312 L 187.675781 175.96875 L 199.027344 175.96875 L 199.027344 187.320312 Z M 187.675781 175.609375 L 187.675781 164.261719 L 199.027344 164.261719 L 199.027344 175.609375 Z M 187.316406 175.609375 L 175.96875 175.609375 L 175.96875 164.261719 L 187.316406 164.261719 Z M 175.609375 175.609375 L 164.261719 175.609375 L 164.261719 164.261719 L 175.609375 164.261719 Z M 175.609375 175.96875 L 175.609375 187.320312 L 164.261719 187.320312 L 164.261719 175.96875 Z M 175.609375 187.675781 L 175.609375 199.027344 L 164.261719 199.027344 L 164.261719 187.675781 Z M 175.609375 199.382812 L 175.609375 210.734375 L 164.261719 210.734375 L 164.261719 199.382812 Z M 175.96875 199.382812 L 187.316406 199.382812 L 187.316406 210.734375 L 175.96875 210.734375 Z M 187.675781 199.382812 L 199.027344 199.382812 L 199.027344 210.734375 L 187.675781 210.734375 Z M 199.382812 199.382812 L 210.734375 199.382812 L 210.734375 210.734375 L 199.382812 210.734375 Z M 199.382812 199.027344 L 199.382812 187.675781 L 210.734375 187.675781 L 210.734375 199.027344 Z M 199.382812 187.320312 L 199.382812 175.96875 L 210.734375 175.96875 L 210.734375 187.320312 Z M 199.382812 175.609375 L 199.382812 164.261719 L 210.734375 164.261719 L 210.734375 175.609375 Z M 199.382812 163.902344 L 199.382812 152.554688 L 210.734375 152.554688 L 210.734375 163.902344 Z M 199.027344 163.902344 L 187.675781 163.902344 L 187.675781 152.554688 L 199.027344 152.554688 Z M 187.316406 163.902344 L 175.96875 163.902344 L 175.96875 152.554688 L 187.316406 152.554688 Z M 175.609375 163.902344 L 164.261719 163.902344 L 164.261719 152.554688 L 175.609375 152.554688 Z M 163.902344 163.902344 L 152.554688 163.902344 L 152.554688 152.554688 L 163.902344 152.554688 Z M 163.902344 164.261719 L 163.902344 175.609375 L 152.554688 175.609375 L 152.554688 164.261719 Z M 163.902344 175.96875 L 163.902344 187.320312 L 152.554688 187.320312 L 152.554688 175.96875 Z M 163.902344 187.675781 L 163.902344 199.027344 L 152.554688 199.027344 L 152.554688 187.675781 Z M 163.902344 199.382812 L 163.902344 210.734375 L 152.554688 210.734375 L 152.554688 199.382812 Z M 163.902344 211.09375 L 163.902344 222.441406 L 152.554688 222.441406 L 152.554688 211.09375 Z M 164.261719 211.09375 L 175.609375 211.09375 L 175.609375 222.441406 L 164.261719 222.441406 Z M 175.96875 211.09375 L 187.316406 211.09375 L 187.316406 222.441406 L 175.96875 222.441406 Z M 187.675781 211.09375 L 199.027344 211.09375 L 199.027344 222.441406 L 187.675781 222.441406 Z M 199.382812 211.09375 L 210.734375 211.09375 L 210.734375 222.441406 L 199.382812 222.441406 Z M 211.09375 211.09375 L 222.441406 211.09375 L 222.441406 222.441406 L 211.09375 222.441406 Z M 211.09375 210.734375 L 211.09375 199.382812 L 222.441406 199.382812 L 222.441406 210.734375 Z M 211.09375 199.027344 L 211.09375 187.675781 L 222.441406 187.675781 L 222.441406 199.027344 Z M 211.09375 187.320312 L 211.09375 175.96875 L 222.441406 175.96875 L 222.441406 187.320312 Z M 211.09375 175.609375 L 211.09375 164.261719 L 222.441406 164.261719 L 222.441406 175.609375 Z M 211.09375 163.902344 L 211.09375 152.554688 L 222.441406 152.554688 L 222.441406 163.902344 Z M 211.09375 152.195312 L 211.09375 140.847656 L 222.441406 140.847656 L 222.441406 152.195312 Z M 210.734375 152.195312 L 199.382812 152.195312 L 199.382812 140.847656 L 210.734375 140.847656 Z M 199.027344 152.195312 L 187.675781 152.195312 L 187.675781 140.847656 L 199.027344 140.847656 Z M 187.316406 152.195312 L 175.96875 152.195312 L 175.96875 140.847656 L 187.316406 140.847656 Z M 175.609375 152.195312 L 164.261719 152.195312 L 164.261719 140.847656 L 175.609375 140.847656 Z M 163.902344 152.195312 L 152.554688 152.195312 L 152.554688 140.847656 L 163.902344 140.847656 Z M 152.195312 152.195312 L 140.847656 152.195312 L 140.847656 140.847656 L 152.195312 140.847656 Z M 152.195312 152.554688 L 152.195312 163.902344 L 140.847656 163.902344 L 140.847656 152.554688 Z M 152.195312 164.261719 L 152.195312 175.609375 L 140.847656 175.609375 L 140.847656 164.261719 Z M 152.195312 175.96875 L 152.195312 187.320312 L 140.847656 187.320312 L 140.847656 175.96875 Z M 152.195312 187.675781 L 152.195312 199.027344 L 140.847656 199.027344 L 140.847656 187.675781 Z M 152.195312 199.382812 L 152.195312 210.734375 L 140.847656 210.734375 L 140.847656 199.382812 Z M 152.195312 211.09375 L 152.195312 222.441406 L 140.847656 222.441406 L 140.847656 211.09375 Z M 152.195312 222.800781 L 152.195312 234.148438 L 140.847656 234.148438 L 140.847656 222.800781 Z M 152.554688 222.800781 L 163.902344 222.800781 L 163.902344 234.148438 L 152.554688 234.148438 Z M 164.261719 222.800781 L 175.609375 222.800781 L 175.609375 234.148438 L 164.261719 234.148438 Z M 175.96875 222.800781 L 187.316406 222.800781 L 187.316406 234.148438 L 175.96875 234.148438 Z M 187.675781 222.800781 L 199.027344 222.800781 L 199.027344 234.148438 L 187.675781 234.148438 Z M 199.382812 222.800781 L 210.734375 222.800781 L 210.734375 234.148438 L 199.382812 234.148438 Z M 211.09375 222.800781 L 222.441406 222.800781 L 222.441406 234.148438 L 211.09375 234.148438 Z M 222.800781 222.800781 L 234.148438 222.800781 L 234.148438 234.148438 L 222.800781 234.148438 Z M 222.800781 222.441406 L 222.800781 211.09375 L 234.148438 211.09375 L 234.148438 222.441406 Z M 222.800781 210.734375 L 222.800781 199.382812 L 234.148438 199.382812 L 234.148438 210.734375 Z M 222.800781 199.027344 L 222.800781 187.675781 L 234.148438 187.675781 L 234.148438 199.027344 Z M 222.800781 187.320312 L 222.800781 175.96875 L 234.148438 175.96875 L 234.148438 187.320312 Z M 222.800781 175.609375 L 222.800781 164.261719 L 234.148438 164.261719 L 234.148438 175.609375 Z M 222.800781 163.902344 L 222.800781 152.554688 L 234.148438 152.554688 L 234.148438 163.902344 Z M 222.800781 152.195312 L 222.800781 140.847656 L 234.148438 140.847656 L 234.148438 152.195312 Z M 222.800781 140.488281 L 222.800781 129.140625 L 234.148438 129.140625 L 234.148438 140.488281 Z M 222.441406 140.488281 L 211.09375 140.488281 L 211.09375 129.140625 L 222.441406 129.140625 Z M 210.734375 140.488281 L 199.382812 140.488281 L 199.382812 129.140625 L 210.734375 129.140625 Z M 199.027344 140.488281 L 187.675781 140.488281 L 187.675781 129.140625 L 199.027344 129.140625 Z M 187.316406 140.488281 L 175.96875 140.488281 L 175.96875 129.140625 L 187.316406 129.140625 Z M 175.609375 140.488281 L 164.261719 140.488281 L 164.261719 129.140625 L 175.609375 129.140625 Z M 163.902344 140.488281 L 152.554688 140.488281 L 152.554688 129.140625 L 163.902344 129.140625 Z M 152.195312 140.488281 L 140.847656 140.488281 L 140.847656 129.140625 L 152.195312 129.140625 Z M 140.488281 140.488281 L 129.140625 140.488281 L 129.140625 129.140625 L 140.488281 129.140625 Z M 140.488281 140.847656 L 140.488281 152.195312 L 129.140625 152.195312 L 129.140625 140.847656 Z M 140.488281 152.554688 L 140.488281 163.902344 L 129.140625 163.902344 L 129.140625 152.554688 Z M 140.488281 164.261719 L 140.488281 175.609375 L 129.140625 175.609375 L 129.140625 164.261719 Z M 140.488281 175.96875 L 140.488281 187.320312 L 129.140625 187.320312 L 129.140625 175.96875 Z M 140.488281 187.675781 L 140.488281 199.027344 L 129.140625 199.027344 L 129.140625 187.675781 Z M 140.488281 199.382812 L 140.488281 210.734375 L 129.140625 210.734375 L 129.140625 199.382812 Z M 140.488281 211.09375 L 140.488281 222.441406 L 129.140625 222.441406 L 129.140625 211.09375 Z M 140.488281 222.800781 L 140.488281 234.148438 L 129.140625 234.148438 L 129.140625 222.800781 Z M 140.488281 234.507812 L 140.488281 245.855469 L 129.140625 245.855469 L 129.140625 234.507812 Z M 140.847656 234.507812 L 152.195312 234.507812 L 152.195312 245.855469 L 140.847656 245.855469 Z M 152.554688 234.507812 L 163.902344 234.507812 L 163.902344 245.855469 L 152.554688 245.855469 Z M 164.261719 234.507812 L 175.609375 234.507812 L 175.609375 245.855469 L 164.261719 245.855469 Z M 175.96875 234.507812 L 187.316406 234.507812 L 187.316406 245.855469 L 175.96875 245.855469 Z M 187.675781 234.507812 L 199.027344 234.507812 L 199.027344 245.855469 L 187.675781 245.855469 Z M 199.382812 234.507812 L 210.734375 234.507812 L 210.734375 245.855469 L 199.382812 245.855469 Z M 211.09375 234.507812 L 222.441406 234.507812 L 222.441406 245.855469 L 211.09375 245.855469 Z M 222.800781 234.507812 L 234.148438 234.507812 L 234.148438 245.855469 L 222.800781 245.855469 Z M 234.507812 234.507812 L 245.855469 234.507812 L 245.855469 245.855469 L 234.507812 245.855469 Z M 234.507812 234.148438 L 234.507812 222.800781 L 245.855469 222.800781 L 245.855469 234.148438 Z M 234.507812 222.441406 L 234.507812 211.09375 L 245.855469 211.09375 L 245.855469 222.441406 Z M 234.507812 210.734375 L 234.507812 199.382812 L 245.855469 199.382812 L 245.855469 210.734375 Z M 234.507812 199.027344 L 234.507812 187.675781 L 245.855469 187.675781 L 245.855469 199.027344 Z M 234.507812 187.320312 L 234.507812 175.96875 L 245.855469 175.96875 L 245.855469 187.320312 Z M 234.507812 175.609375 L 234.507812 164.261719 L 245.855469 164.261719 L 245.855469 175.609375 Z M 234.507812 163.902344 L 234.507812 152.554688 L 245.855469 152.554688 L 245.855469 163.902344 Z M 234.507812 152.195312 L 234.507812 140.847656 L 245.855469 140.847656 L 245.855469 152.195312 Z M 234.507812 140.488281 L 234.507812 129.140625 L 245.855469 129.140625 L 245.855469 140.488281 Z M 234.507812 128.78125 L 234.507812 117.433594 L 245.855469 117.433594 L 245.855469 128.78125 Z M 234.148438 128.78125 L 222.800781 128.78125 L 222.800781 117.433594 L 234.148438 117.433594 Z M 222.441406 128.78125 L 211.09375 128.78125 L 211.09375 117.433594 L 222.441406 117.433594 Z M 210.734375 128.78125 L 199.382812 128.78125 L 199.382812 117.433594 L 210.734375 117.433594 Z M 199.027344 128.78125 L 187.675781 128.78125 L 187.675781 117.433594 L 199.027344 117.433594 Z M 187.316406 128.78125 L 175.96875 128.78125 L 175.96875 117.433594 L 187.316406 117.433594 Z M 175.609375 128.78125 L 164.261719 128.78125 L 164.261719 117.433594 L 175.609375 117.433594 Z M 163.902344 128.78125 L 152.554688 128.78125 L 152.554688 117.433594 L 163.902344 117.433594 Z M 152.195312 128.78125 L 140.847656 128.78125 L 140.847656 117.433594 L 152.195312 117.433594 Z M 140.488281 128.78125 L 129.140625 128.78125 L 129.140625 117.433594 L 140.488281 117.433594 Z M 128.78125 128.78125 L 117.429688 128.78125 L 117.429688 117.433594 L 128.78125 117.433594 Z M 128.78125 129.140625 L 128.78125 140.488281 L 117.429688 140.488281 L 117.429688 129.140625 Z M 128.78125 140.847656 L 128.78125 152.195312 L 117.429688 152.195312 L 117.429688 140.847656 Z M 128.78125 152.554688 L 128.78125 163.902344 L 117.429688 163.902344 L 117.429688 152.554688 Z M 128.78125 164.261719 L 128.78125 175.609375 L 117.429688 175.609375 L 117.429688 164.261719 Z M 128.78125 175.96875 L 128.78125 187.320312 L 117.429688 187.320312 L 117.429688 175.96875 Z M 128.78125 187.675781 L 128.78125 199.027344 L 117.429688 199.027344 L 117.429688 187.675781 Z M 128.78125 199.382812 L 128.78125 210.734375 L 117.429688 210.734375 L 117.429688 199.382812 Z M 128.78125 211.09375 L 128.78125 222.441406 L 117.429688 222.441406 L 117.429688 211.09375 Z M 128.78125 222.800781 L 128.78125 234.148438 L 117.429688 234.148438 L 117.429688 222.800781 Z M 128.78125 234.507812 L 128.78125 245.855469 L 117.429688 245.855469 L 117.429688 234.507812 Z M 128.78125 246.214844 L 128.78125 257.5625 L 117.429688 257.5625 L 117.429688 246.214844 Z M 129.140625 246.214844 L 140.488281 246.214844 L 140.488281 257.5625 L 129.140625 257.5625 Z M 140.847656 246.214844 L 152.195312 246.214844 L 152.195312 257.5625 L 140.847656 257.5625 Z M 152.554688 246.214844 L 163.902344 246.214844 L 163.902344 257.5625 L 152.554688 257.5625 Z M 164.261719 246.214844 L 175.609375 246.214844 L 175.609375 257.5625 L 164.261719 257.5625 Z M 175.96875 246.214844 L 187.316406 246.214844 L 187.316406 257.5625 L 175.96875 257.5625 Z M 187.675781 246.214844 L 199.027344 246.214844 L 199.027344 257.5625 L 187.675781 257.5625 Z M 199.382812 246.214844 L 210.734375 246.214844 L 210.734375 257.5625 L 199.382812 257.5625 Z M 211.09375 246.214844 L 222.441406 246.214844 L 222.441406 257.5625 L 211.09375 257.5625 Z M 222.800781 246.214844 L 234.148438 246.214844 L 234.148438 257.5625 L 222.800781 257.5625 Z M 234.507812 246.214844 L 245.855469 246.214844 L 245.855469 257.5625 L 234.507812 257.5625 Z M 246.214844 246.214844 L 257.5625 246.214844 L 257.5625 257.5625 L 246.214844 257.5625 Z M 246.214844 245.855469 L 246.214844 234.507812 L 257.5625 234.507812 L 257.5625 245.855469 Z M 246.214844 234.148438 L 246.214844 222.800781 L 257.5625 222.800781 L 257.5625 234.148438 Z M 246.214844 222.441406 L 246.214844 211.09375 L 257.5625 211.09375 L 257.5625 222.441406 Z M 246.214844 210.734375 L 246.214844 199.382812 L 257.5625 199.382812 L 257.5625 210.734375 Z M 246.214844 199.027344 L 246.214844 187.675781 L 257.5625 187.675781 L 257.5625 199.027344 Z M 246.214844 187.320312 L 246.214844 175.96875 L 257.5625 175.96875 L 257.5625 187.320312 Z M 246.214844 175.609375 L 246.214844 164.261719 L 257.5625 164.261719 L 257.5625 175.609375 Z M 246.214844 163.902344 L 246.214844 152.554688 L 257.5625 152.554688 L 257.5625 163.902344 Z M 246.214844 152.195312 L 246.214844 140.847656 L 257.5625 140.847656 L 257.5625 152.195312 Z M 246.214844 140.488281 L 246.214844 129.140625 L 257.5625 129.140625 L 257.5625 140.488281 Z M 246.214844 128.78125 L 246.214844 117.433594 L 257.5625 117.433594 L 257.5625 128.78125 Z M 246.214844 117.074219 L 246.214844 105.726562 L 257.5625 105.726562 L 257.5625 117.074219 Z M 245.855469 117.074219 L 234.507812 117.074219 L 234.507812 105.726562 L 245.855469 105.726562 Z M 234.148438 117.074219 L 222.800781 117.074219 L 222.800781 105.726562 L 234.148438 105.726562 Z M 222.441406 117.074219 L 211.09375 117.074219 L 211.09375 105.726562 L 222.441406 105.726562 Z M 210.734375 117.074219 L 199.382812 117.074219 L 199.382812 105.726562 L 210.734375 105.726562 Z M 199.027344 117.074219 L 187.675781 117.074219 L 187.675781 105.726562 L 199.027344 105.726562 Z M 187.316406 117.074219 L 175.96875 117.074219 L 175.96875 105.726562 L 187.316406 105.726562 Z M 175.609375 117.074219 L 164.261719 117.074219 L 164.261719 105.726562 L 175.609375 105.726562 Z M 163.902344 117.074219 L 152.554688 117.074219 L 152.554688 105.726562 L 163.902344 105.726562 Z M 152.195312 117.074219 L 140.847656 117.074219 L 140.847656 105.726562 L 152.195312 105.726562 Z M 140.488281 117.074219 L 129.140625 117.074219 L 129.140625 105.726562 L 140.488281 105.726562 Z M 128.78125 117.074219 L 117.429688 117.074219 L 117.429688 105.726562 L 128.78125 105.726562 Z M 117.074219 117.074219 L 105.722656 117.074219 L 105.722656 105.726562 L 117.074219 105.726562 Z M 117.074219 117.433594 L 117.074219 128.78125 L 105.722656 128.78125 L 105.722656 117.433594 Z M 117.074219 129.140625 L 117.074219 140.488281 L 105.722656 140.488281 L 105.722656 129.140625 Z M 117.074219 140.847656 L 117.074219 152.195312 L 105.722656 152.195312 L 105.722656 140.847656 Z M 117.074219 152.554688 L 117.074219 163.902344 L 105.722656 163.902344 L 105.722656 152.554688 Z M 117.074219 164.261719 L 117.074219 175.609375 L 105.722656 175.609375 L 105.722656 164.261719 Z M 117.074219 175.96875 L 117.074219 187.320312 L 105.722656 187.320312 L 105.722656 175.96875 Z M 117.074219 187.675781 L 117.074219 199.027344 L 105.722656 199.027344 L 105.722656 187.675781 Z M 117.074219 199.382812 L 117.074219 210.734375 L 105.722656 210.734375 L 105.722656 199.382812 Z M 117.074219 211.09375 L 117.074219 222.441406 L 105.722656 222.441406 L 105.722656 211.09375 Z M 117.074219 222.800781 L 117.074219 234.148438 L 105.722656 234.148438 L 105.722656 222.800781 Z M 117.074219 234.507812 L 117.074219 245.855469 L 105.722656 245.855469 L 105.722656 234.507812 Z M 117.074219 246.214844 L 117.074219 257.5625 L 105.722656 257.5625 L 105.722656 246.214844 Z M 117.074219 257.921875 L 117.074219 269.269531 L 105.722656 269.269531 L 105.722656 257.921875 Z M 117.429688 257.921875 L 128.78125 257.921875 L 128.78125 269.269531 L 117.429688 269.269531 Z M 129.140625 257.921875 L 140.488281 257.921875 L 140.488281 269.269531 L 129.140625 269.269531 Z M 140.847656 257.921875 L 152.195312 257.921875 L 152.195312 269.269531 L 140.847656 269.269531 Z M 152.554688 257.921875 L 163.902344 257.921875 L 163.902344 269.269531 L 152.554688 269.269531 Z M 164.261719 257.921875 L 175.609375 257.921875 L 175.609375 269.269531 L 164.261719 269.269531 Z M 175.96875 257.921875 L 187.316406 257.921875 L 187.316406 269.269531 L 175.96875 269.269531 Z M 187.675781 257.921875 L 199.027344 257.921875 L 199.027344 269.269531 L 187.675781 269.269531 Z M 199.382812 257.921875 L 210.734375 257.921875 L 210.734375 269.269531 L 199.382812 269.269531 Z M 211.09375 257.921875 L 222.441406 257.921875 L 222.441406 269.269531 L 211.09375 269.269531 Z M 222.800781 257.921875 L 234.148438 257.921875 L 234.148438 269.269531 L 222.800781 269.269531 Z M 234.507812 257.921875 L 245.855469 257.921875 L 245.855469 269.269531 L 234.507812 269.269531 Z M 246.214844 257.921875 L 257.5625 257.921875 L 257.5625 269.269531 L 246.214844 269.269531 Z M 257.921875 257.921875 L 269.269531 257.921875 L 269.269531 269.269531 L 257.921875 269.269531 Z M 257.921875 257.5625 L 257.921875 246.214844 L 269.269531 246.214844 L 269.269531 257.5625 Z M 257.921875 245.855469 L 257.921875 234.507812 L 269.269531 234.507812 L 269.269531 245.855469 Z M 257.921875 234.148438 L 257.921875 222.800781 L 269.269531 222.800781 L 269.269531 234.148438 Z M 257.921875 222.441406 L 257.921875 211.09375 L 269.269531 211.09375 L 269.269531 222.441406 Z M 257.921875 210.734375 L 257.921875 199.382812 L 269.269531 199.382812 L 269.269531 210.734375 Z M 257.921875 199.027344 L 257.921875 187.675781 L 269.269531 187.675781 L 269.269531 199.027344 Z M 257.921875 187.320312 L 257.921875 175.96875 L 269.269531 175.96875 L 269.269531 187.320312 Z M 257.921875 175.609375 L 257.921875 164.261719 L 269.269531 164.261719 L 269.269531 175.609375 Z M 257.921875 163.902344 L 257.921875 152.554688 L 269.269531 152.554688 L 269.269531 163.902344 Z M 257.921875 152.195312 L 257.921875 140.847656 L 269.269531 140.847656 L 269.269531 152.195312 Z M 257.921875 140.488281 L 257.921875 129.140625 L 269.269531 129.140625 L 269.269531 140.488281 Z M 257.921875 128.78125 L 257.921875 117.433594 L 269.269531 117.433594 L 269.269531 128.78125 Z M 257.921875 117.074219 L 257.921875 105.726562 L 269.269531 105.726562 L 269.269531 117.074219 Z M 257.921875 105.367188 L 257.921875 94.015625 L 269.269531 94.015625 L 269.269531 105.367188 Z M 257.5625 105.367188 L 246.214844 105.367188 L 246.214844 94.015625 L 257.5625 94.015625 Z M 245.855469 105.367188 L 234.507812 105.367188 L 234.507812 94.015625 L 245.855469 94.015625 Z M 234.148438 105.367188 L 222.800781 105.367188 L 222.800781 94.015625 L 234.148438 94.015625 Z M 222.441406 105.367188 L 211.09375 105.367188 L 211.09375 94.015625 L 222.441406 94.015625 Z M 210.734375 105.367188 L 199.382812 105.367188 L 199.382812 94.015625 L 210.734375 94.015625 Z M 199.027344 105.367188 L 187.675781 105.367188 L 187.675781 94.015625 L 199.027344 94.015625 Z M 187.316406 105.367188 L 175.96875 105.367188 L 175.96875 94.015625 L 187.316406 94.015625 Z M 175.609375 105.367188 L 164.261719 105.367188 L 164.261719 94.015625 L 175.609375 94.015625 Z M 163.902344 105.367188 L 152.554688 105.367188 L 152.554688 94.015625 L 163.902344 94.015625 Z M 152.195312 105.367188 L 140.847656 105.367188 L 140.847656 94.015625 L 152.195312 94.015625 Z M 140.488281 105.367188 L 129.140625 105.367188 L 129.140625 94.015625 L 140.488281 94.015625 Z M 128.78125 105.367188 L 117.429688 105.367188 L 117.429688 94.015625 L 128.78125 94.015625 Z M 117.074219 105.367188 L 105.722656 105.367188 L 105.722656 94.015625 L 117.074219 94.015625 Z M 105.367188 105.367188 L 94.015625 105.367188 L 94.015625 94.015625 L 105.367188 94.015625 Z M 105.367188 105.726562 L 105.367188 117.074219 L 94.015625 117.074219 L 94.015625 105.726562 Z M 105.367188 117.433594 L 105.367188 128.78125 L 94.015625 128.78125 L 94.015625 117.433594 Z M 105.367188 129.140625 L 105.367188 140.488281 L 94.015625 140.488281 L 94.015625 129.140625 Z M 105.367188 140.847656 L 105.367188 152.195312 L 94.015625 152.195312 L 94.015625 140.847656 Z M 105.367188 152.554688 L 105.367188 163.902344 L 94.015625 163.902344 L 94.015625 152.554688 Z M 105.367188 164.261719 L 105.367188 175.609375 L 94.015625 175.609375 L 94.015625 164.261719 Z M 105.367188 175.96875 L 105.367188 187.320312 L 94.015625 187.320312 L 94.015625 175.96875 Z M 105.367188 187.675781 L 105.367188 199.027344 L 94.015625 199.027344 L 94.015625 187.675781 Z M 105.367188 199.382812 L 105.367188 210.734375 L 94.015625 210.734375 L 94.015625 199.382812 Z M 105.367188 211.09375 L 105.367188 222.441406 L 94.015625 222.441406 L 94.015625 211.09375 Z M 105.367188 222.800781 L 105.367188 234.148438 L 94.015625 234.148438 L 94.015625 222.800781 Z M 105.367188 234.507812 L 105.367188 245.855469 L 94.015625 245.855469 L 94.015625 234.507812 Z M 105.367188 246.214844 L 105.367188 257.5625 L 94.015625 257.5625 L 94.015625 246.214844 Z M 105.367188 257.921875 L 105.367188 269.269531 L 94.015625 269.269531 L 94.015625 257.921875 Z M 105.367188 269.628906 L 105.367188 280.976562 L 94.015625 280.976562 L 94.015625 269.628906 Z M 105.722656 269.628906 L 117.074219 269.628906 L 117.074219 280.976562 L 105.722656 280.976562 Z M 117.429688 269.628906 L 128.78125 269.628906 L 128.78125 280.976562 L 117.429688 280.976562 Z M 129.140625 269.628906 L 140.488281 269.628906 L 140.488281 280.976562 L 129.140625 280.976562 Z M 140.847656 269.628906 L 152.195312 269.628906 L 152.195312 280.976562 L 140.847656 280.976562 Z M 152.554688 269.628906 L 163.902344 269.628906 L 163.902344 280.976562 L 152.554688 280.976562 Z M 164.261719 269.628906 L 175.609375 269.628906 L 175.609375 280.976562 L 164.261719 280.976562 Z M 175.96875 269.628906 L 187.316406 269.628906 L 187.316406 280.976562 L 175.96875 280.976562 Z M 187.675781 269.628906 L 199.027344 269.628906 L 199.027344 280.976562 L 187.675781 280.976562 Z M 199.382812 269.628906 L 210.734375 269.628906 L 210.734375 280.976562 L 199.382812 280.976562 Z M 211.09375 269.628906 L 222.441406 269.628906 L 222.441406 280.976562 L 211.09375 280.976562 Z M 222.800781 269.628906 L 234.148438 269.628906 L 234.148438 280.976562 L 222.800781 280.976562 Z M 234.507812 269.628906 L 245.855469 269.628906 L 245.855469 280.976562 L 234.507812 280.976562 Z M 246.214844 269.628906 L 257.5625 269.628906 L 257.5625 280.976562 L 246.214844 280.976562 Z M 257.921875 269.628906 L 269.269531 269.628906 L 269.269531 280.976562 L 257.921875 280.976562 Z M 269.628906 269.628906 L 280.980469 269.628906 L 280.980469 280.976562 L 269.628906 280.976562 Z M 269.628906 269.269531 L 269.628906 257.921875 L 280.980469 257.921875 L 280.980469 269.269531 Z M 269.628906 257.5625 L 269.628906 246.214844 L 280.980469 246.214844 L 280.980469 257.5625 Z M 269.628906 245.855469 L 269.628906 234.507812 L 280.980469 234.507812 L 280.980469 245.855469 Z M 269.628906 234.148438 L 269.628906 222.800781 L 280.980469 222.800781 L 280.980469 234.148438 Z M 269.628906 222.441406 L 269.628906 211.09375 L 280.980469 211.09375 L 280.980469 222.441406 Z M 269.628906 210.734375 L 269.628906 199.382812 L 280.980469 199.382812 L 280.980469 210.734375 Z M 269.628906 199.027344 L 269.628906 187.675781 L 280.980469 187.675781 L 280.980469 199.027344 Z M 269.628906 187.320312 L 269.628906 175.96875 L 280.980469 175.96875 L 280.980469 187.320312 Z M 269.628906 175.609375 L 269.628906 164.261719 L 280.980469 164.261719 L 280.980469 175.609375 Z M 269.628906 163.902344 L 269.628906 152.554688 L 280.980469 152.554688 L 280.980469 163.902344 Z M 269.628906 152.195312 L 269.628906 140.847656 L 280.980469 140.847656 L 280.980469 152.195312 Z M 269.628906 140.488281 L 269.628906 129.140625 L 280.980469 129.140625 L 280.980469 140.488281 Z M 269.628906 128.78125 L 269.628906 117.433594 L 280.980469 117.433594 L 280.980469 128.78125 Z M 269.628906 117.074219 L 269.628906 105.726562 L 280.980469 105.726562 L 280.980469 117.074219 Z M 269.628906 105.367188 L 269.628906 94.015625 L 280.980469 94.015625 L 280.980469 105.367188 Z M 269.628906 93.660156 L 269.628906 82.308594 L 280.980469 82.308594 L 280.980469 93.660156 Z M 269.269531 93.660156 L 257.921875 93.660156 L 257.921875 82.308594 L 269.269531 82.308594 Z M 257.5625 93.660156 L 246.214844 93.660156 L 246.214844 82.308594 L 257.5625 82.308594 Z M 245.855469 93.660156 L 234.507812 93.660156 L 234.507812 82.308594 L 245.855469 82.308594 Z M 234.148438 93.660156 L 222.800781 93.660156 L 222.800781 82.308594 L 234.148438 82.308594 Z M 222.441406 93.660156 L 211.09375 93.660156 L 211.09375 82.308594 L 222.441406 82.308594 Z M 210.734375 93.660156 L 199.382812 93.660156 L 199.382812 82.308594 L 210.734375 82.308594 Z M 199.027344 93.660156 L 187.675781 93.660156 L 187.675781 82.308594 L 199.027344 82.308594 Z M 187.316406 93.660156 L 175.96875 93.660156 L 175.96875 82.308594 L 187.316406 82.308594 Z M 175.609375 93.660156 L 164.261719 93.660156 L 164.261719 82.308594 L 175.609375 82.308594 Z M 163.902344 93.660156 L 152.554688 93.660156 L 152.554688 82.308594 L 163.902344 82.308594 Z M 152.195312 93.660156 L 140.847656 93.660156 L 140.847656 82.308594 L 152.195312 82.308594 Z M 140.488281 93.660156 L 129.140625 93.660156 L 129.140625 82.308594 L 140.488281 82.308594 Z M 128.78125 93.660156 L 117.429688 93.660156 L 117.429688 82.308594 L 128.78125 82.308594 Z M 117.074219 93.660156 L 105.722656 93.660156 L 105.722656 82.308594 L 117.074219 82.308594 Z M 105.367188 93.660156 L 94.015625 93.660156 L 94.015625 82.308594 L 105.367188 82.308594 Z M 93.660156 93.660156 L 82.308594 93.660156 L 82.308594 82.308594 L 93.660156 82.308594 Z M 93.660156 94.015625 L 93.660156 105.367188 L 82.308594 105.367188 L 82.308594 94.015625 Z M 93.660156 105.726562 L 93.660156 117.074219 L 82.308594 117.074219 L 82.308594 105.726562 Z M 93.660156 117.433594 L 93.660156 128.78125 L 82.308594 128.78125 L 82.308594 117.433594 Z M 93.660156 129.140625 L 93.660156 140.488281 L 82.308594 140.488281 L 82.308594 129.140625 Z M 93.660156 140.847656 L 93.660156 152.195312 L 82.308594 152.195312 L 82.308594 140.847656 Z M 93.660156 152.554688 L 93.660156 163.902344 L 82.308594 163.902344 L 82.308594 152.554688 Z M 93.660156 164.261719 L 93.660156 175.609375 L 82.308594 175.609375 L 82.308594 164.261719 Z M 93.660156 175.96875 L 93.660156 187.320312 L 82.308594 187.320312 L 82.308594 175.96875 Z M 93.660156 187.675781 L 93.660156 199.027344 L 82.308594 199.027344 L 82.308594 187.675781 Z M 93.660156 199.382812 L 93.660156 210.734375 L 82.308594 210.734375 L 82.308594 199.382812 Z M 93.660156 211.09375 L 93.660156 222.441406 L 82.308594 222.441406 L 82.308594 211.09375 Z M 93.660156 222.800781 L 93.660156 234.148438 L 82.308594 234.148438 L 82.308594 222.800781 Z M 93.660156 234.507812 L 93.660156 245.855469 L 82.308594 245.855469 L 82.308594 234.507812 Z M 93.660156 246.214844 L 93.660156 257.5625 L 82.308594 257.5625 L 82.308594 246.214844 Z M 93.660156 257.921875 L 93.660156 269.269531 L 82.308594 269.269531 L 82.308594 257.921875 Z M 93.660156 269.628906 L 93.660156 280.976562 L 82.308594 280.976562 L 82.308594 269.628906 Z M 93.660156 281.335938 L 93.660156 292.6875 L 82.308594 292.6875 L 82.308594 281.335938 Z M 94.015625 281.335938 L 105.367188 281.335938 L 105.367188 292.6875 L 94.015625 292.6875 Z M 105.722656 281.335938 L 117.074219 281.335938 L 117.074219 292.6875 L 105.722656 292.6875 Z M 117.429688 281.335938 L 128.78125 281.335938 L 128.78125 292.6875 L 117.429688 292.6875 Z M 129.140625 281.335938 L 140.488281 281.335938 L 140.488281 292.6875 L 129.140625 292.6875 Z M 140.847656 281.335938 L 152.195312 281.335938 L 152.195312 292.6875 L 140.847656 292.6875 Z M 152.554688 281.335938 L 163.902344 281.335938 L 163.902344 292.6875 L 152.554688 292.6875 Z M 164.261719 281.335938 L 175.609375 281.335938 L 175.609375 292.6875 L 164.261719 292.6875 Z M 175.96875 281.335938 L 187.316406 281.335938 L 187.316406 292.6875 L 175.96875 292.6875 Z M 187.675781 281.335938 L 199.027344 281.335938 L 199.027344 292.6875 L 187.675781 292.6875 Z M 199.382812 281.335938 L 210.734375 281.335938 L 210.734375 292.6875 L 199.382812 292.6875 Z M 211.09375 281.335938 L 222.441406 281.335938 L 222.441406 292.6875 L 211.09375 292.6875 Z M 222.800781 281.335938 L 234.148438 281.335938 L 234.148438 292.6875 L 222.800781 292.6875 Z M 234.507812 281.335938 L 245.855469 281.335938 L 245.855469 292.6875 L 234.507812 292.6875 Z M 246.214844 281.335938 L 257.5625 281.335938 L 257.5625 292.6875 L 246.214844 292.6875 Z M 257.921875 281.335938 L 269.269531 281.335938 L 269.269531 292.6875 L 257.921875 292.6875 Z M 269.628906 281.335938 L 280.980469 281.335938 L 280.980469 292.6875 L 269.628906 292.6875 Z M 281.335938 281.335938 L 292.6875 281.335938 L 292.6875 292.6875 L 281.335938 292.6875 Z M 281.335938 280.976562 L 281.335938 269.628906 L 292.6875 269.628906 L 292.6875 280.976562 Z M 281.335938 269.269531 L 281.335938 257.921875 L 292.6875 257.921875 L 292.6875 269.269531 Z M 281.335938 257.5625 L 281.335938 246.214844 L 292.6875 246.214844 L 292.6875 257.5625 Z M 281.335938 245.855469 L 281.335938 234.507812 L 292.6875 234.507812 L 292.6875 245.855469 Z M 281.335938 234.148438 L 281.335938 222.800781 L 292.6875 222.800781 L 292.6875 234.148438 Z M 281.335938 222.441406 L 281.335938 211.09375 L 292.6875 211.09375 L 292.6875 222.441406 Z M 281.335938 210.734375 L 281.335938 199.382812 L 292.6875 199.382812 L 292.6875 210.734375 Z M 281.335938 199.027344 L 281.335938 187.675781 L 292.6875 187.675781 L 292.6875 199.027344 Z M 281.335938 187.320312 L 281.335938 175.96875 L 292.6875 175.96875 L 292.6875 187.320312 Z M 281.335938 175.609375 L 281.335938 164.261719 L 292.6875 164.261719 L 292.6875 175.609375 Z M 281.335938 163.902344 L 281.335938 152.554688 L 292.6875 152.554688 L 292.6875 163.902344 Z M 281.335938 152.195312 L 281.335938 140.847656 L 292.6875 140.847656 L 292.6875 152.195312 Z M 281.335938 140.488281 L 281.335938 129.140625 L 292.6875 129.140625 L 292.6875 140.488281 Z M 281.335938 128.78125 L 281.335938 117.433594 L 292.6875 117.433594 L 292.6875 128.78125 Z M 281.335938 117.074219 L 281.335938 105.726562 L 292.6875 105.726562 L 292.6875 117.074219 Z M 281.335938 105.367188 L 281.335938 94.015625 L 292.6875 94.015625 L 292.6875 105.367188 Z M 281.335938 93.660156 L 281.335938 82.308594 L 292.6875 82.308594 L 292.6875 93.660156 Z M 281.335938 81.953125 L 281.335938 70.601562 L 292.6875 70.601562 L 292.6875 81.953125 Z M 280.980469 81.953125 L 269.628906 81.953125 L 269.628906 70.601562 L 280.980469 70.601562 Z M 269.269531 81.953125 L 257.921875 81.953125 L 257.921875 70.601562 L 269.269531 70.601562 Z M 257.5625 81.953125 L 246.214844 81.953125 L 246.214844 70.601562 L 257.5625 70.601562 Z M 245.855469 81.953125 L 234.507812 81.953125 L 234.507812 70.601562 L 245.855469 70.601562 Z M 234.148438 81.953125 L 222.800781 81.953125 L 222.800781 70.601562 L 234.148438 70.601562 Z M 222.441406 81.953125 L 211.09375 81.953125 L 211.09375 70.601562 L 222.441406 70.601562 Z M 210.734375 81.953125 L 199.382812 81.953125 L 199.382812 70.601562 L 210.734375 70.601562 Z M 199.027344 81.953125 L 187.675781 81.953125 L 187.675781 70.601562 L 199.027344 70.601562 Z M 187.316406 81.953125 L 175.96875 81.953125 L 175.96875 70.601562 L 187.316406 70.601562 Z M 175.609375 81.953125 L 164.261719 81.953125 L 164.261719 70.601562 L 175.609375 70.601562 Z M 163.902344 81.953125 L 152.554688 81.953125 L 152.554688 70.601562 L 163.902344 70.601562 Z M 152.195312 81.953125 L 140.847656 81.953125 L 140.847656 70.601562 L 152.195312 70.601562 Z M 140.488281 81.953125 L 129.140625 81.953125 L 129.140625 70.601562 L 140.488281 70.601562 Z M 128.78125 81.953125 L 117.429688 81.953125 L 117.429688 70.601562 L 128.78125 70.601562 Z M 117.074219 81.953125 L 105.722656 81.953125 L 105.722656 70.601562 L 117.074219 70.601562 Z M 105.367188 81.953125 L 94.015625 81.953125 L 94.015625 70.601562 L 105.367188 70.601562 Z M 93.660156 81.953125 L 82.308594 81.953125 L 82.308594 70.601562 L 93.660156 70.601562 Z M 81.949219 81.953125 L 70.601562 81.953125 L 70.601562 70.601562 L 81.949219 70.601562 Z M 81.949219 82.308594 L 81.949219 93.660156 L 70.601562 93.660156 L 70.601562 82.308594 Z M 81.949219 94.015625 L 81.949219 105.367188 L 70.601562 105.367188 L 70.601562 94.015625 Z M 81.949219 105.726562 L 81.949219 117.074219 L 70.601562 117.074219 L 70.601562 105.726562 Z M 81.949219 117.433594 L 81.949219 128.78125 L 70.601562 128.78125 L 70.601562 117.433594 Z M 81.949219 129.140625 L 81.949219 140.488281 L 70.601562 140.488281 L 70.601562 129.140625 Z M 81.949219 140.847656 L 81.949219 152.195312 L 70.601562 152.195312 L 70.601562 140.847656 Z M 81.949219 152.554688 L 81.949219 163.902344 L 70.601562 163.902344 L 70.601562 152.554688 Z M 81.949219 164.261719 L 81.949219 175.609375 L 70.601562 175.609375 L 70.601562 164.261719 Z M 81.949219 175.96875 L 81.949219 187.320312 L 70.601562 187.320312 L 70.601562 175.96875 Z M 81.949219 187.675781 L 81.949219 199.027344 L 70.601562 199.027344 L 70.601562 187.675781 Z M 81.949219 199.382812 L 81.949219 210.734375 L 70.601562 210.734375 L 70.601562 199.382812 Z M 81.949219 211.09375 L 81.949219 222.441406 L 70.601562 222.441406 L 70.601562 211.09375 Z M 81.949219 222.800781 L 81.949219 234.148438 L 70.601562 234.148438 L 70.601562 222.800781 Z M 81.949219 234.507812 L 81.949219 245.855469 L 70.601562 245.855469 L 70.601562 234.507812 Z M 81.949219 246.214844 L 81.949219 257.5625 L 70.601562 257.5625 L 70.601562 246.214844 Z M 81.949219 257.921875 L 81.949219 269.269531 L 70.601562 269.269531 L 70.601562 257.921875 Z M 81.949219 269.628906 L 81.949219 280.976562 L 70.601562 280.976562 L 70.601562 269.628906 Z M 81.949219 281.335938 L 81.949219 292.6875 L 70.601562 292.6875 L 70.601562 281.335938 Z M 81.949219 293.042969 L 81.949219 304.394531 L 70.601562 304.394531 L 70.601562 293.042969 Z M 82.308594 293.042969 L 93.660156 293.042969 L 93.660156 304.394531 L 82.308594 304.394531 Z M 94.015625 293.042969 L 105.367188 293.042969 L 105.367188 304.394531 L 94.015625 304.394531 Z M 105.722656 293.042969 L 117.074219 293.042969 L 117.074219 304.394531 L 105.722656 304.394531 Z M 117.429688 293.042969 L 128.78125 293.042969 L 128.78125 304.394531 L 117.429688 304.394531 Z M 129.140625 293.042969 L 140.488281 293.042969 L 140.488281 304.394531 L 129.140625 304.394531 Z M 140.847656 293.042969 L 152.195312 293.042969 L 152.195312 304.394531 L 140.847656 304.394531 Z M 152.554688 293.042969 L 163.902344 293.042969 L 163.902344 304.394531 L 152.554688 304.394531 Z M 164.261719 293.042969 L 175.609375 293.042969 L 175.609375 304.394531 L 164.261719 304.394531 Z M 175.96875 293.042969 L 187.316406 293.042969 L 187.316406 304.394531 L 175.96875 304.394531 Z M 187.675781 293.042969 L 199.027344 293.042969 L 199.027344 304.394531 L 187.675781 304.394531 Z M 199.382812 293.042969 L 210.734375 293.042969 L 210.734375 304.394531 L 199.382812 304.394531 Z M 211.09375 293.042969 L 222.441406 293.042969 L 222.441406 304.394531 L 211.09375 304.394531 Z M 222.800781 293.042969 L 234.148438 293.042969 L 234.148438 304.394531 L 222.800781 304.394531 Z M 234.507812 293.042969 L 245.855469 293.042969 L 245.855469 304.394531 L 234.507812 304.394531 Z M 246.214844 293.042969 L 257.5625 293.042969 L 257.5625 304.394531 L 246.214844 304.394531 Z M 257.921875 293.042969 L 269.269531 293.042969 L 269.269531 304.394531 L 257.921875 304.394531 Z M 269.628906 293.042969 L 280.980469 293.042969 L 280.980469 304.394531 L 269.628906 304.394531 Z M 281.335938 293.042969 L 292.6875 293.042969 L 292.6875 304.394531 L 281.335938 304.394531 Z M 293.042969 293.042969 L 304.394531 293.042969 L 304.394531 304.394531 L 293.042969 304.394531 Z M 293.042969 292.6875 L 293.042969 281.335938 L 304.394531 281.335938 L 304.394531 292.6875 Z M 293.042969 280.976562 L 293.042969 269.628906 L 304.394531 269.628906 L 304.394531 280.976562 Z M 293.042969 269.269531 L 293.042969 257.921875 L 304.394531 257.921875 L 304.394531 269.269531 Z M 293.042969 257.5625 L 293.042969 246.214844 L 304.394531 246.214844 L 304.394531 257.5625 Z M 293.042969 245.855469 L 293.042969 234.507812 L 304.394531 234.507812 L 304.394531 245.855469 Z M 293.042969 234.148438 L 293.042969 222.800781 L 304.394531 222.800781 L 304.394531 234.148438 Z M 293.042969 222.441406 L 293.042969 211.09375 L 304.394531 211.09375 L 304.394531 222.441406 Z M 293.042969 210.734375 L 293.042969 199.382812 L 304.394531 199.382812 L 304.394531 210.734375 Z M 293.042969 199.027344 L 293.042969 187.675781 L 304.394531 187.675781 L 304.394531 199.027344 Z M 293.042969 187.320312 L 293.042969 175.96875 L 304.394531 175.96875 L 304.394531 187.320312 Z M 293.042969 175.609375 L 293.042969 164.261719 L 304.394531 164.261719 L 304.394531 175.609375 Z M 293.042969 163.902344 L 293.042969 152.554688 L 304.394531 152.554688 L 304.394531 163.902344 Z M 293.042969 152.195312 L 293.042969 140.847656 L 304.394531 140.847656 L 304.394531 152.195312 Z M 293.042969 140.488281 L 293.042969 129.140625 L 304.394531 129.140625 L 304.394531 140.488281 Z M 293.042969 128.78125 L 293.042969 117.433594 L 304.394531 117.433594 L 304.394531 128.78125 Z M 293.042969 117.074219 L 293.042969 105.726562 L 304.394531 105.726562 L 304.394531 117.074219 Z M 293.042969 105.367188 L 293.042969 94.015625 L 304.394531 94.015625 L 304.394531 105.367188 Z M 293.042969 93.660156 L 293.042969 82.308594 L 304.394531 82.308594 L 304.394531 93.660156 Z M 293.042969 81.953125 L 293.042969 70.601562 L 304.394531 70.601562 L 304.394531 81.953125 Z M 293.042969 70.242188 L 293.042969 58.894531 L 304.394531 58.894531 L 304.394531 70.242188 Z M 292.6875 70.242188 L 281.335938 70.242188 L 281.335938 58.894531 L 292.6875 58.894531 Z M 280.980469 70.242188 L 269.628906 70.242188 L 269.628906 58.894531 L 280.980469 58.894531 Z M 269.269531 70.242188 L 257.921875 70.242188 L 257.921875 58.894531 L 269.269531 58.894531 Z M 257.5625 70.242188 L 246.214844 70.242188 L 246.214844 58.894531 L 257.5625 58.894531 Z M 245.855469 70.242188 L 234.507812 70.242188 L 234.507812 58.894531 L 245.855469 58.894531 Z M 234.148438 70.242188 L 222.800781 70.242188 L 222.800781 58.894531 L 234.148438 58.894531 Z M 222.441406 70.242188 L 211.09375 70.242188 L 211.09375 58.894531 L 222.441406 58.894531 Z M 210.734375 70.242188 L 199.382812 70.242188 L 199.382812 58.894531 L 210.734375 58.894531 Z M 199.027344 70.242188 L 187.675781 70.242188 L 187.675781 58.894531 L 199.027344 58.894531 Z M 187.316406 70.242188 L 175.96875 70.242188 L 175.96875 58.894531 L 187.316406 58.894531 Z M 175.609375 70.242188 L 164.261719 70.242188 L 164.261719 58.894531 L 175.609375 58.894531 Z M 163.902344 70.242188 L 152.554688 70.242188 L 152.554688 58.894531 L 163.902344 58.894531 Z M 152.195312 70.242188 L 140.847656 70.242188 L 140.847656 58.894531 L 152.195312 58.894531 Z M 140.488281 70.242188 L 129.140625 70.242188 L 129.140625 58.894531 L 140.488281 58.894531 Z M 128.78125 70.242188 L 117.429688 70.242188 L 117.429688 58.894531 L 128.78125 58.894531 Z M 117.074219 70.242188 L 105.722656 70.242188 L 105.722656 58.894531 L 117.074219 58.894531 Z M 105.367188 70.242188 L 94.015625 70.242188 L 94.015625 58.894531 L 105.367188 58.894531 Z M 93.660156 70.242188 L 82.308594 70.242188 L 82.308594 58.894531 L 93.660156 58.894531 Z M 81.949219 70.242188 L 70.601562 70.242188 L 70.601562 58.894531 L 81.949219 58.894531 Z M 70.242188 70.242188 L 58.894531 70.242188 L 58.894531 58.894531 L 70.242188 58.894531 Z M 70.242188 70.601562 L 70.242188 81.953125 L 58.894531 81.953125 L 58.894531 70.601562 Z M 70.242188 82.308594 L 70.242188 93.660156 L 58.894531 93.660156 L 58.894531 82.308594 Z M 70.242188 94.015625 L 70.242188 105.367188 L 58.894531 105.367188 L 58.894531 94.015625 Z M 70.242188 105.726562 L 70.242188 117.074219 L 58.894531 117.074219 L 58.894531 105.726562 Z M 70.242188 117.433594 L 70.242188 128.78125 L 58.894531 128.78125 L 58.894531 117.433594 Z M 70.242188 129.140625 L 70.242188 140.488281 L 58.894531 140.488281 L 58.894531 129.140625 Z M 70.242188 140.847656 L 70.242188 152.195312 L 58.894531 152.195312 L 58.894531 140.847656 Z M 70.242188 152.554688 L 70.242188 163.902344 L 58.894531 163.902344 L 58.894531 152.554688 Z M 70.242188 164.261719 L 70.242188 175.609375 L 58.894531 175.609375 L 58.894531 164.261719 Z M 70.242188 175.96875 L 70.242188 187.320312 L 58.894531 187.320312 L 58.894531 175.96875 Z M 70.242188 187.675781 L 70.242188 199.027344 L 58.894531 199.027344 L 58.894531 187.675781 Z M 70.242188 199.382812 L 70.242188 210.734375 L 58.894531 210.734375 L 58.894531 199.382812 Z M 70.242188 211.09375 L 70.242188 222.441406 L 58.894531 222.441406 L 58.894531 211.09375 Z M 70.242188 222.800781 L 70.242188 234.148438 L 58.894531 234.148438 L 58.894531 222.800781 Z M 70.242188 234.507812 L 70.242188 245.855469 L 58.894531 245.855469 L 58.894531 234.507812 Z M 70.242188 246.214844 L 70.242188 257.5625 L 58.894531 257.5625 L 58.894531 246.214844 Z M 70.242188 257.921875 L 70.242188 269.269531 L 58.894531 269.269531 L 58.894531 257.921875 Z M 70.242188 269.628906 L 70.242188 280.976562 L 58.894531 280.976562 L 58.894531 269.628906 Z M 70.242188 281.335938 L 70.242188 292.6875 L 58.894531 292.6875 L 58.894531 281.335938 Z M 70.242188 293.042969 L 70.242188 304.394531 L 58.894531 304.394531 L 58.894531 293.042969 Z M 70.242188 304.75 L 70.242188 316.101562 L 58.894531 316.101562 L 58.894531 304.75 Z M 70.601562 304.75 L 81.949219 304.75 L 81.949219 316.101562 L 70.601562 316.101562 Z M 82.308594 304.75 L 93.660156 304.75 L 93.660156 316.101562 L 82.308594 316.101562 Z M 94.015625 304.75 L 105.367188 304.75 L 105.367188 316.101562 L 94.015625 316.101562 Z M 105.722656 304.75 L 117.074219 304.75 L 117.074219 316.101562 L 105.722656 316.101562 Z M 117.429688 304.75 L 128.78125 304.75 L 128.78125 316.101562 L 117.429688 316.101562 Z M 129.140625 304.75 L 140.488281 304.75 L 140.488281 316.101562 L 129.140625 316.101562 Z M 140.847656 304.75 L 152.195312 304.75 L 152.195312 316.101562 L 140.847656 316.101562 Z M 152.554688 304.75 L 163.902344 304.75 L 163.902344 316.101562 L 152.554688 316.101562 Z M 164.261719 304.75 L 175.609375 304.75 L 175.609375 316.101562 L 164.261719 316.101562 Z M 175.96875 304.75 L 187.316406 304.75 L 187.316406 316.101562 L 175.96875 316.101562 Z M 187.675781 304.75 L 199.027344 304.75 L 199.027344 316.101562 L 187.675781 316.101562 Z M 199.382812 304.75 L 210.734375 304.75 L 210.734375 316.101562 L 199.382812 316.101562 Z M 211.09375 304.75 L 222.441406 304.75 L 222.441406 316.101562 L 211.09375 316.101562 Z M 222.800781 304.75 L 234.148438 304.75 L 234.148438 316.101562 L 222.800781 316.101562 Z M 234.507812 304.75 L 245.855469 304.75 L 245.855469 316.101562 L 234.507812 316.101562 Z M 246.214844 304.75 L 257.5625 304.75 L 257.5625 316.101562 L 246.214844 316.101562 Z M 257.921875 304.75 L 269.269531 304.75 L 269.269531 316.101562 L 257.921875 316.101562 Z M 269.628906 304.75 L 280.980469 304.75 L 280.980469 316.101562 L 269.628906 316.101562 Z M 281.335938 304.75 L 292.6875 304.75 L 292.6875 316.101562 L 281.335938 316.101562 Z M 293.042969 304.75 L 304.394531 304.75 L 304.394531 316.101562 L 293.042969 316.101562 Z M 304.753906 304.75 L 316.101562 304.75 L 316.101562 316.101562 L 304.753906 316.101562 Z M 304.753906 304.394531 L 304.753906 293.042969 L 316.101562 293.042969 L 316.101562 304.394531 Z M 304.753906 292.6875 L 304.753906 281.335938 L 316.101562 281.335938 L 316.101562 292.6875 Z M 304.753906 280.976562 L 304.753906 269.628906 L 316.101562 269.628906 L 316.101562 280.976562 Z M 304.753906 269.269531 L 304.753906 257.921875 L 316.101562 257.921875 L 316.101562 269.269531 Z M 304.753906 257.5625 L 304.753906 246.214844 L 316.101562 246.214844 L 316.101562 257.5625 Z M 304.753906 245.855469 L 304.753906 234.507812 L 316.101562 234.507812 L 316.101562 245.855469 Z M 304.753906 234.148438 L 304.753906 222.800781 L 316.101562 222.800781 L 316.101562 234.148438 Z M 304.753906 222.441406 L 304.753906 211.09375 L 316.101562 211.09375 L 316.101562 222.441406 Z M 304.753906 210.734375 L 304.753906 199.382812 L 316.101562 199.382812 L 316.101562 210.734375 Z M 304.753906 199.027344 L 304.753906 187.675781 L 316.101562 187.675781 L 316.101562 199.027344 Z M 304.753906 187.320312 L 304.753906 175.96875 L 316.101562 175.96875 L 316.101562 187.320312 Z M 304.753906 175.609375 L 304.753906 164.261719 L 316.101562 164.261719 L 316.101562 175.609375 Z M 304.753906 163.902344 L 304.753906 152.554688 L 316.101562 152.554688 L 316.101562 163.902344 Z M 304.753906 152.195312 L 304.753906 140.847656 L 316.101562 140.847656 L 316.101562 152.195312 Z M 304.753906 140.488281 L 304.753906 129.140625 L 316.101562 129.140625 L 316.101562 140.488281 Z M 304.753906 128.78125 L 304.753906 117.433594 L 316.101562 117.433594 L 316.101562 128.78125 Z M 304.753906 117.074219 L 304.753906 105.726562 L 316.101562 105.726562 L 316.101562 117.074219 Z M 304.753906 105.367188 L 304.753906 94.015625 L 316.101562 94.015625 L 316.101562 105.367188 Z M 304.753906 93.660156 L 304.753906 82.308594 L 316.101562 82.308594 L 316.101562 93.660156 Z M 304.753906 81.953125 L 304.753906 70.601562 L 316.101562 70.601562 L 316.101562 81.953125 Z M 304.753906 70.242188 L 304.753906 58.894531 L 316.101562 58.894531 L 316.101562 70.242188 Z M 304.753906 58.535156 L 304.753906 47.1875 L 316.101562 47.1875 L 316.101562 58.535156 Z M 304.394531 58.535156 L 293.042969 58.535156 L 293.042969 47.1875 L 304.394531 47.1875 Z M 292.6875 58.535156 L 281.335938 58.535156 L 281.335938 47.1875 L 292.6875 47.1875 Z M 280.980469 58.535156 L 269.628906 58.535156 L 269.628906 47.1875 L 280.980469 47.1875 Z M 269.269531 58.535156 L 257.921875 58.535156 L 257.921875 47.1875 L 269.269531 47.1875 Z M 257.5625 58.535156 L 246.214844 58.535156 L 246.214844 47.1875 L 257.5625 47.1875 Z M 245.855469 58.535156 L 234.507812 58.535156 L 234.507812 47.1875 L 245.855469 47.1875 Z M 234.148438 58.535156 L 222.800781 58.535156 L 222.800781 47.1875 L 234.148438 47.1875 Z M 222.441406 58.535156 L 211.09375 58.535156 L 211.09375 47.1875 L 222.441406 47.1875 Z M 210.734375 58.535156 L 199.382812 58.535156 L 199.382812 47.1875 L 210.734375 47.1875 Z M 199.027344 58.535156 L 187.675781 58.535156 L 187.675781 47.1875 L 199.027344 47.1875 Z M 187.316406 58.535156 L 175.96875 58.535156 L 175.96875 47.1875 L 187.316406 47.1875 Z M 175.609375 58.535156 L 164.261719 58.535156 L 164.261719 47.1875 L 175.609375 47.1875 Z M 163.902344 58.535156 L 152.554688 58.535156 L 152.554688 47.1875 L 163.902344 47.1875 Z M 152.195312 58.535156 L 140.847656 58.535156 L 140.847656 47.1875 L 152.195312 47.1875 Z M 140.488281 58.535156 L 129.140625 58.535156 L 129.140625 47.1875 L 140.488281 47.1875 Z M 128.78125 58.535156 L 117.429688 58.535156 L 117.429688 47.1875 L 128.78125 47.1875 Z M 117.074219 58.535156 L 105.722656 58.535156 L 105.722656 47.1875 L 117.074219 47.1875 Z M 105.367188 58.535156 L 94.015625 58.535156 L 94.015625 47.1875 L 105.367188 47.1875 Z M 93.660156 58.535156 L 82.308594 58.535156 L 82.308594 47.1875 L 93.660156 47.1875 Z M 81.949219 58.535156 L 70.601562 58.535156 L 70.601562 47.1875 L 81.949219 47.1875 Z M 70.242188 58.535156 L 58.894531 58.535156 L 58.894531 47.1875 L 70.242188 47.1875 Z M 58.535156 58.535156 L 47.1875 58.535156 L 47.1875 47.1875 L 58.535156 47.1875 Z M 58.535156 58.894531 L 58.535156 70.242188 L 47.1875 70.242188 L 47.1875 58.894531 Z M 58.535156 70.601562 L 58.535156 81.953125 L 47.1875 81.953125 L 47.1875 70.601562 Z M 58.535156 82.308594 L 58.535156 93.660156 L 47.1875 93.660156 L 47.1875 82.308594 Z M 58.535156 94.015625 L 58.535156 105.367188 L 47.1875 105.367188 L 47.1875 94.015625 Z M 58.535156 105.726562 L 58.535156 117.074219 L 47.1875 117.074219 L 47.1875 105.726562 Z M 58.535156 117.433594 L 58.535156 128.78125 L 47.1875 128.78125 L 47.1875 117.433594 Z M 58.535156 129.140625 L 58.535156 140.488281 L 47.1875 140.488281 L 47.1875 129.140625 Z M 58.535156 140.847656 L 58.535156 152.195312 L 47.1875 152.195312 L 47.1875 140.847656 Z M 58.535156 152.554688 L 58.535156 163.902344 L 47.1875 163.902344 L 47.1875 152.554688 Z M 58.535156 164.261719 L 58.535156 175.609375 L 47.1875 175.609375 L 47.1875 164.261719 Z M 58.535156 175.96875 L 58.535156 187.320312 L 47.1875 187.320312 L 47.1875 175.96875 Z M 58.535156 187.675781 L 58.535156 199.027344 L 47.1875 199.027344 L 47.1875 187.675781 Z M 58.535156 199.382812 L 58.535156 210.734375 L 47.1875 210.734375 L 47.1875 199.382812 Z M 58.535156 211.09375 L 58.535156 222.441406 L 47.1875 222.441406 L 47.1875 211.09375 Z M 58.535156 222.800781 L 58.535156 234.148438 L 47.1875 234.148438 L 47.1875 222.800781 Z M 58.535156 234.507812 L 58.535156 245.855469 L 47.1875 245.855469 L 47.1875 234.507812 Z M 58.535156 246.214844 L 58.535156 257.5625 L 47.1875 257.5625 L 47.1875 246.214844 Z M 58.535156 257.921875 L 58.535156 269.269531 L 47.1875 269.269531 L 47.1875 257.921875 Z M 58.535156 269.628906 L 58.535156 280.976562 L 47.1875 280.976562 L 47.1875 269.628906 Z M 58.535156 281.335938 L 58.535156 292.6875 L 47.1875 292.6875 L 47.1875 281.335938 Z M 58.535156 293.042969 L 58.535156 304.394531 L 47.1875 304.394531 L 47.1875 293.042969 Z M 58.535156 304.75 L 58.535156 316.101562 L 47.1875 316.101562 L 47.1875 304.75 Z M 58.535156 316.460938 L 58.535156 327.808594 L 47.1875 327.808594 L 47.1875 316.460938 Z M 58.894531 316.460938 L 70.242188 316.460938 L 70.242188 327.808594 L 58.894531 327.808594 Z M 70.601562 316.460938 L 81.949219 316.460938 L 81.949219 327.808594 L 70.601562 327.808594 Z M 82.308594 316.460938 L 93.660156 316.460938 L 93.660156 327.808594 L 82.308594 327.808594 Z M 94.015625 316.460938 L 105.367188 316.460938 L 105.367188 327.808594 L 94.015625 327.808594 Z M 105.722656 316.460938 L 117.074219 316.460938 L 117.074219 327.808594 L 105.722656 327.808594 Z M 117.429688 316.460938 L 128.78125 316.460938 L 128.78125 327.808594 L 117.429688 327.808594 Z M 129.140625 316.460938 L 140.488281 316.460938 L 140.488281 327.808594 L 129.140625 327.808594 Z M 140.847656 316.460938 L 152.195312 316.460938 L 152.195312 327.808594 L 140.847656 327.808594 Z M 152.554688 316.460938 L 163.902344 316.460938 L 163.902344 327.808594 L 152.554688 327.808594 Z M 164.261719 316.460938 L 175.609375 316.460938 L 175.609375 327.808594 L 164.261719 327.808594 Z M 175.96875 316.460938 L 187.316406 316.460938 L 187.316406 327.808594 L 175.96875 327.808594 Z M 187.675781 316.460938 L 199.027344 316.460938 L 199.027344 327.808594 L 187.675781 327.808594 Z M 199.382812 316.460938 L 210.734375 316.460938 L 210.734375 327.808594 L 199.382812 327.808594 Z M 211.09375 316.460938 L 222.441406 316.460938 L 222.441406 327.808594 L 211.09375 327.808594 Z M 222.800781 316.460938 L 234.148438 316.460938 L 234.148438 327.808594 L 222.800781 327.808594 Z M 234.507812 316.460938 L 245.855469 316.460938 L 245.855469 327.808594 L 234.507812 327.808594 Z M 246.214844 316.460938 L 257.5625 316.460938 L 257.5625 327.808594 L 246.214844 327.808594 Z M 257.921875 316.460938 L 269.269531 316.460938 L 269.269531 327.808594 L 257.921875 327.808594 Z M 269.628906 316.460938 L 280.980469 316.460938 L 280.980469 327.808594 L 269.628906 327.808594 Z M 281.335938 316.460938 L 292.6875 316.460938 L 292.6875 327.808594 L 281.335938 327.808594 Z M 293.042969 316.460938 L 304.394531 316.460938 L 304.394531 327.808594 L 293.042969 327.808594 Z M 304.753906 316.460938 L 316.101562 316.460938 L 316.101562 327.808594 L 304.753906 327.808594 Z M 316.460938 316.460938 L 327.808594 316.460938 L 327.808594 327.808594 L 316.460938 327.808594 Z M 316.460938 316.101562 L 316.460938 304.75 L 327.808594 304.75 L 327.808594 316.101562 Z M 316.460938 304.394531 L 316.460938 293.042969 L 327.808594 293.042969 L 327.808594 304.394531 Z M 316.460938 292.6875 L 316.460938 281.335938 L 327.808594 281.335938 L 327.808594 292.6875 Z M 316.460938 280.976562 L 316.460938 269.628906 L 327.808594 269.628906 L 327.808594 280.976562 Z M 316.460938 269.269531 L 316.460938 257.921875 L 327.808594 257.921875 L 327.808594 269.269531 Z M 316.460938 257.5625 L 316.460938 246.214844 L 327.808594 246.214844 L 327.808594 257.5625 Z M 316.460938 245.855469 L 316.460938 234.507812 L 327.808594 234.507812 L 327.808594 245.855469 Z M 316.460938 234.148438 L 316.460938 222.800781 L 327.808594 222.800781 L 327.808594 234.148438 Z M 316.460938 222.441406 L 316.460938 211.09375 L 327.808594 211.09375 L 327.808594 222.441406 Z M 316.460938 210.734375 L 316.460938 199.382812 L 327.808594 199.382812 L 327.808594 210.734375 Z M 316.460938 199.027344 L 316.460938 187.675781 L 327.808594 187.675781 L 327.808594 199.027344 Z M 316.460938 187.320312 L 316.460938 175.96875 L 327.808594 175.96875 L 327.808594 187.320312 Z M 316.460938 175.609375 L 316.460938 164.261719 L 327.808594 164.261719 L 327.808594 175.609375 Z M 316.460938 163.902344 L 316.460938 152.554688 L 327.808594 152.554688 L 327.808594 163.902344 Z M 316.460938 152.195312 L 316.460938 140.847656 L 327.808594 140.847656 L 327.808594 152.195312 Z M 316.460938 140.488281 L 316.460938 129.140625 L 327.808594 129.140625 L 327.808594 140.488281 Z M 316.460938 128.78125 L 316.460938 117.433594 L 327.808594 117.433594 L 327.808594 128.78125 Z M 316.460938 117.074219 L 316.460938 105.726562 L 327.808594 105.726562 L 327.808594 117.074219 Z M 316.460938 105.367188 L 316.460938 94.015625 L 327.808594 94.015625 L 327.808594 105.367188 Z M 316.460938 93.660156 L 316.460938 82.308594 L 327.808594 82.308594 L 327.808594 93.660156 Z M 316.460938 81.953125 L 316.460938 70.601562 L 327.808594 70.601562 L 327.808594 81.953125 Z M 316.460938 70.242188 L 316.460938 58.894531 L 327.808594 58.894531 L 327.808594 70.242188 Z M 316.460938 58.535156 L 316.460938 47.1875 L 327.808594 47.1875 L 327.808594 58.535156 Z M 316.460938 46.828125 L 316.460938 35.480469 L 327.808594 35.480469 L 327.808594 46.828125 Z M 316.101562 46.828125 L 304.753906 46.828125 L 304.753906 35.480469 L 316.101562 35.480469 Z M 304.394531 46.828125 L 293.042969 46.828125 L 293.042969 35.480469 L 304.394531 35.480469 Z M 292.6875 46.828125 L 281.335938 46.828125 L 281.335938 35.480469 L 292.6875 35.480469 Z M 280.980469 46.828125 L 269.628906 46.828125 L 269.628906 35.480469 L 280.980469 35.480469 Z M 269.269531 46.828125 L 257.921875 46.828125 L 257.921875 35.480469 L 269.269531 35.480469 Z M 257.5625 46.828125 L 246.214844 46.828125 L 246.214844 35.480469 L 257.5625 35.480469 Z M 245.855469 46.828125 L 234.507812 46.828125 L 234.507812 35.480469 L 245.855469 35.480469 Z M 234.148438 46.828125 L 222.800781 46.828125 L 222.800781 35.480469 L 234.148438 35.480469 Z M 222.441406 46.828125 L 211.09375 46.828125 L 211.09375 35.480469 L 222.441406 35.480469 Z M 210.734375 46.828125 L 199.382812 46.828125 L 199.382812 35.480469 L 210.734375 35.480469 Z M 199.027344 46.828125 L 187.675781 46.828125 L 187.675781 35.480469 L 199.027344 35.480469 Z M 187.316406 46.828125 L 175.96875 46.828125 L 175.96875 35.480469 L 187.316406 35.480469 Z M 175.609375 46.828125 L 164.261719 46.828125 L 164.261719 35.480469 L 175.609375 35.480469 Z M 163.902344 46.828125 L 152.554688 46.828125 L 152.554688 35.480469 L 163.902344 35.480469 Z M 152.195312 46.828125 L 140.847656 46.828125 L 140.847656 35.480469 L 152.195312 35.480469 Z M 140.488281 46.828125 L 129.140625 46.828125 L 129.140625 35.480469 L 140.488281 35.480469 Z M 128.78125 46.828125 L 117.429688 46.828125 L 117.429688 35.480469 L 128.78125 35.480469 Z M 117.074219 46.828125 L 105.722656 46.828125 L 105.722656 35.480469 L 117.074219 35.480469 Z M 105.367188 46.828125 L 94.015625 46.828125 L 94.015625 35.480469 L 105.367188 35.480469 Z M 93.660156 46.828125 L 82.308594 46.828125 L 82.308594 35.480469 L 93.660156 35.480469 Z M 81.949219 46.828125 L 70.601562 46.828125 L 70.601562 35.480469 L 81.949219 35.480469 Z M 70.242188 46.828125 L 58.894531 46.828125 L 58.894531 35.480469 L 70.242188 35.480469 Z M 58.535156 46.828125 L 47.1875 46.828125 L 47.1875 35.480469 L 58.535156 35.480469 Z M 46.828125 46.828125 L 35.480469 46.828125 L 35.480469 35.480469 L 46.828125 35.480469 Z M 46.828125 47.1875 L 46.828125 58.535156 L 35.480469 58.535156 L 35.480469 47.1875 Z M 46.828125 58.894531 L 46.828125 70.242188 L 35.480469 70.242188 L 35.480469 58.894531 Z M 46.828125 70.601562 L 46.828125 81.953125 L 35.480469 81.953125 L 35.480469 70.601562 Z M 46.828125 82.308594 L 46.828125 93.660156 L 35.480469 93.660156 L 35.480469 82.308594 Z M 46.828125 94.015625 L 46.828125 105.367188 L 35.480469 105.367188 L 35.480469 94.015625 Z M 46.828125 105.726562 L 46.828125 117.074219 L 35.480469 117.074219 L 35.480469 105.726562 Z M 46.828125 117.433594 L 46.828125 128.78125 L 35.480469 128.78125 L 35.480469 117.433594 Z M 46.828125 129.140625 L 46.828125 140.488281 L 35.480469 140.488281 L 35.480469 129.140625 Z M 46.828125 140.847656 L 46.828125 152.195312 L 35.480469 152.195312 L 35.480469 140.847656 Z M 46.828125 152.554688 L 46.828125 163.902344 L 35.480469 163.902344 L 35.480469 152.554688 Z M 46.828125 164.261719 L 46.828125 175.609375 L 35.480469 175.609375 L 35.480469 164.261719 Z M 46.828125 175.96875 L 46.828125 187.320312 L 35.480469 187.320312 L 35.480469 175.96875 Z M 46.828125 187.675781 L 46.828125 199.027344 L 35.480469 199.027344 L 35.480469 187.675781 Z M 46.828125 199.382812 L 46.828125 210.734375 L 35.480469 210.734375 L 35.480469 199.382812 Z M 46.828125 211.09375 L 46.828125 222.441406 L 35.480469 222.441406 L 35.480469 211.09375 Z M 46.828125 222.800781 L 46.828125 234.148438 L 35.480469 234.148438 L 35.480469 222.800781 Z M 46.828125 234.507812 L 46.828125 245.855469 L 35.480469 245.855469 L 35.480469 234.507812 Z M 46.828125 246.214844 L 46.828125 257.5625 L 35.480469 257.5625 L 35.480469 246.214844 Z M 46.828125 257.921875 L 46.828125 269.269531 L 35.480469 269.269531 L 35.480469 257.921875 Z M 46.828125 269.628906 L 46.828125 280.976562 L 35.480469 280.976562 L 35.480469 269.628906 Z M 46.828125 281.335938 L 46.828125 292.6875 L 35.480469 292.6875 L 35.480469 281.335938 Z M 46.828125 293.042969 L 46.828125 304.394531 L 35.480469 304.394531 L 35.480469 293.042969 Z M 46.828125 304.75 L 46.828125 316.101562 L 35.480469 316.101562 L 35.480469 304.75 Z M 46.828125 316.460938 L 46.828125 327.808594 L 35.480469 327.808594 L 35.480469 316.460938 Z M 46.828125 328.167969 L 46.828125 339.515625 L 35.480469 339.515625 L 35.480469 328.167969 Z M 47.1875 328.167969 L 58.535156 328.167969 L 58.535156 339.515625 L 47.1875 339.515625 Z M 58.894531 328.167969 L 70.242188 328.167969 L 70.242188 339.515625 L 58.894531 339.515625 Z M 70.601562 328.167969 L 81.949219 328.167969 L 81.949219 339.515625 L 70.601562 339.515625 Z M 82.308594 328.167969 L 93.660156 328.167969 L 93.660156 339.515625 L 82.308594 339.515625 Z M 94.015625 328.167969 L 105.367188 328.167969 L 105.367188 339.515625 L 94.015625 339.515625 Z M 105.722656 328.167969 L 117.074219 328.167969 L 117.074219 339.515625 L 105.722656 339.515625 Z M 117.429688 328.167969 L 128.78125 328.167969 L 128.78125 339.515625 L 117.429688 339.515625 Z M 129.140625 328.167969 L 140.488281 328.167969 L 140.488281 339.515625 L 129.140625 339.515625 Z M 140.847656 328.167969 L 152.195312 328.167969 L 152.195312 339.515625 L 140.847656 339.515625 Z M 152.554688 328.167969 L 163.902344 328.167969 L 163.902344 339.515625 L 152.554688 339.515625 Z M 164.261719 328.167969 L 175.609375 328.167969 L 175.609375 339.515625 L 164.261719 339.515625 Z M 175.96875 328.167969 L 187.316406 328.167969 L 187.316406 339.515625 L 175.96875 339.515625 Z M 187.675781 328.167969 L 199.027344 328.167969 L 199.027344 339.515625 L 187.675781 339.515625 Z M 199.382812 328.167969 L 210.734375 328.167969 L 210.734375 339.515625 L 199.382812 339.515625 Z M 211.09375 328.167969 L 222.441406 328.167969 L 222.441406 339.515625 L 211.09375 339.515625 Z M 222.800781 328.167969 L 234.148438 328.167969 L 234.148438 339.515625 L 222.800781 339.515625 Z M 234.507812 328.167969 L 245.855469 328.167969 L 245.855469 339.515625 L 234.507812 339.515625 Z M 246.214844 328.167969 L 257.5625 328.167969 L 257.5625 339.515625 L 246.214844 339.515625 Z M 257.921875 328.167969 L 269.269531 328.167969 L 269.269531 339.515625 L 257.921875 339.515625 Z M 269.628906 328.167969 L 280.980469 328.167969 L 280.980469 339.515625 L 269.628906 339.515625 Z M 281.335938 328.167969 L 292.6875 328.167969 L 292.6875 339.515625 L 281.335938 339.515625 Z M 293.042969 328.167969 L 304.394531 328.167969 L 304.394531 339.515625 L 293.042969 339.515625 Z M 304.753906 328.167969 L 316.101562 328.167969 L 316.101562 339.515625 L 304.753906 339.515625 Z M 316.460938 328.167969 L 327.808594 328.167969 L 327.808594 339.515625 L 316.460938 339.515625 Z M 328.167969 328.167969 L 339.515625 328.167969 L 339.515625 339.515625 L 328.167969 339.515625 Z M 328.167969 327.808594 L 328.167969 316.460938 L 339.515625 316.460938 L 339.515625 327.808594 Z M 328.167969 316.101562 L 328.167969 304.75 L 339.515625 304.75 L 339.515625 316.101562 Z M 328.167969 304.394531 L 328.167969 293.042969 L 339.515625 293.042969 L 339.515625 304.394531 Z M 328.167969 292.6875 L 328.167969 281.335938 L 339.515625 281.335938 L 339.515625 292.6875 Z M 328.167969 280.976562 L 328.167969 269.628906 L 339.515625 269.628906 L 339.515625 280.976562 Z M 328.167969 269.269531 L 328.167969 257.921875 L 339.515625 257.921875 L 339.515625 269.269531 Z M 328.167969 257.5625 L 328.167969 246.214844 L 339.515625 246.214844 L 339.515625 257.5625 Z M 328.167969 245.855469 L 328.167969 234.507812 L 339.515625 234.507812 L 339.515625 245.855469 Z M 328.167969 234.148438 L 328.167969 222.800781 L 339.515625 222.800781 L 339.515625 234.148438 Z M 328.167969 222.441406 L 328.167969 211.09375 L 339.515625 211.09375 L 339.515625 222.441406 Z M 328.167969 210.734375 L 328.167969 199.382812 L 339.515625 199.382812 L 339.515625 210.734375 Z M 328.167969 199.027344 L 328.167969 187.675781 L 339.515625 187.675781 L 339.515625 199.027344 Z M 328.167969 187.320312 L 328.167969 175.96875 L 339.515625 175.96875 L 339.515625 187.320312 Z M 328.167969 175.609375 L 328.167969 164.261719 L 339.515625 164.261719 L 339.515625 175.609375 Z M 328.167969 163.902344 L 328.167969 152.554688 L 339.515625 152.554688 L 339.515625 163.902344 Z M 328.167969 152.195312 L 328.167969 140.847656 L 339.515625 140.847656 L 339.515625 152.195312 Z M 328.167969 140.488281 L 328.167969 129.140625 L 339.515625 129.140625 L 339.515625 140.488281 Z M 328.167969 128.78125 L 328.167969 117.433594 L 339.515625 117.433594 L 339.515625 128.78125 Z M 328.167969 117.074219 L 328.167969 105.726562 L 339.515625 105.726562 L 339.515625 117.074219 Z M 328.167969 105.367188 L 328.167969 94.015625 L 339.515625 94.015625 L 339.515625 105.367188 Z M 328.167969 93.660156 L 328.167969 82.308594 L 339.515625 82.308594 L 339.515625 93.660156 Z M 328.167969 81.953125 L 328.167969 70.601562 L 339.515625 70.601562 L 339.515625 81.953125 Z M 328.167969 70.242188 L 328.167969 58.894531 L 339.515625 58.894531 L 339.515625 70.242188 Z M 328.167969 58.535156 L 328.167969 47.1875 L 339.515625 47.1875 L 339.515625 58.535156 Z M 328.167969 46.828125 L 328.167969 35.480469 L 339.515625 35.480469 L 339.515625 46.828125 Z M 328.167969 35.121094 L 328.167969 23.773438 L 339.515625 23.773438 L 339.515625 35.121094 Z M 327.808594 35.121094 L 316.460938 35.121094 L 316.460938 23.773438 L 327.808594 23.773438 Z M 316.101562 35.121094 L 304.753906 35.121094 L 304.753906 23.773438 L 316.101562 23.773438 Z M 304.394531 35.121094 L 293.042969 35.121094 L 293.042969 23.773438 L 304.394531 23.773438 Z M 292.6875 35.121094 L 281.335938 35.121094 L 281.335938 23.773438 L 292.6875 23.773438 Z M 280.980469 35.121094 L 269.628906 35.121094 L 269.628906 23.773438 L 280.980469 23.773438 Z M 269.269531 35.121094 L 257.921875 35.121094 L 257.921875 23.773438 L 269.269531 23.773438 Z M 257.5625 35.121094 L 246.214844 35.121094 L 246.214844 23.773438 L 257.5625 23.773438 Z M 245.855469 35.121094 L 234.507812 35.121094 L 234.507812 23.773438 L 245.855469 23.773438 Z M 234.148438 35.121094 L 222.800781 35.121094 L 222.800781 23.773438 L 234.148438 23.773438 Z M 222.441406 35.121094 L 211.09375 35.121094 L 211.09375 23.773438 L 222.441406 23.773438 Z M 210.734375 35.121094 L 199.382812 35.121094 L 199.382812 23.773438 L 210.734375 23.773438 Z M 199.027344 35.121094 L 187.675781 35.121094 L 187.675781 23.773438 L 199.027344 23.773438 Z M 187.316406 35.121094 L 175.96875 35.121094 L 175.96875 23.773438 L 187.316406 23.773438 Z M 175.609375 35.121094 L 164.261719 35.121094 L 164.261719 23.773438 L 175.609375 23.773438 Z M 163.902344 35.121094 L 152.554688 35.121094 L 152.554688 23.773438 L 163.902344 23.773438 Z M 152.195312 35.121094 L 140.847656 35.121094 L 140.847656 23.773438 L 152.195312 23.773438 Z M 140.488281 35.121094 L 129.140625 35.121094 L 129.140625 23.773438 L 140.488281 23.773438 Z M 128.78125 35.121094 L 117.429688 35.121094 L 117.429688 23.773438 L 128.78125 23.773438 Z M 117.074219 35.121094 L 105.722656 35.121094 L 105.722656 23.773438 L 117.074219 23.773438 Z M 105.367188 35.121094 L 94.015625 35.121094 L 94.015625 23.773438 L 105.367188 23.773438 Z M 93.660156 35.121094 L 82.308594 35.121094 L 82.308594 23.773438 L 93.660156 23.773438 Z M 81.949219 35.121094 L 70.601562 35.121094 L 70.601562 23.773438 L 81.949219 23.773438 Z M 70.242188 35.121094 L 58.894531 35.121094 L 58.894531 23.773438 L 70.242188 23.773438 Z M 58.535156 35.121094 L 47.1875 35.121094 L 47.1875 23.773438 L 58.535156 23.773438 Z M 46.828125 35.121094 L 35.480469 35.121094 L 35.480469 23.773438 L 46.828125 23.773438 Z M 35.121094 35.121094 L 23.769531 35.121094 L 23.769531 23.773438 L 35.121094 23.773438 Z M 35.121094 35.480469 L 35.121094 46.828125 L 23.769531 46.828125 L 23.769531 35.480469 Z M 35.121094 47.1875 L 35.121094 58.535156 L 23.769531 58.535156 L 23.769531 47.1875 Z M 35.121094 58.894531 L 35.121094 70.242188 L 23.769531 70.242188 L 23.769531 58.894531 Z M 35.121094 70.601562 L 35.121094 81.953125 L 23.769531 81.953125 L 23.769531 70.601562 Z M 35.121094 82.308594 L 35.121094 93.660156 L 23.769531 93.660156 L 23.769531 82.308594 Z M 35.121094 94.015625 L 35.121094 105.367188 L 23.769531 105.367188 L 23.769531 94.015625 Z M 35.121094 105.726562 L 35.121094 117.074219 L 23.769531 117.074219 L 23.769531 105.726562 Z M 35.121094 117.433594 L 35.121094 128.78125 L 23.769531 128.78125 L 23.769531 117.433594 Z M 35.121094 129.140625 L 35.121094 140.488281 L 23.769531 140.488281 L 23.769531 129.140625 Z M 35.121094 140.847656 L 35.121094 152.195312 L 23.769531 152.195312 L 23.769531 140.847656 Z M 35.121094 152.554688 L 35.121094 163.902344 L 23.769531 163.902344 L 23.769531 152.554688 Z M 35.121094 164.261719 L 35.121094 175.609375 L 23.769531 175.609375 L 23.769531 164.261719 Z M 35.121094 175.96875 L 35.121094 187.320312 L 23.769531 187.320312 L 23.769531 175.96875 Z M 35.121094 187.675781 L 35.121094 199.027344 L 23.769531 199.027344 L 23.769531 187.675781 Z M 35.121094 199.382812 L 35.121094 210.734375 L 23.769531 210.734375 L 23.769531 199.382812 Z M 35.121094 211.09375 L 35.121094 222.441406 L 23.769531 222.441406 L 23.769531 211.09375 Z M 35.121094 222.800781 L 35.121094 234.148438 L 23.769531 234.148438 L 23.769531 222.800781 Z M 35.121094 234.507812 L 35.121094 245.855469 L 23.769531 245.855469 L 23.769531 234.507812 Z M 35.121094 246.214844 L 35.121094 257.5625 L 23.769531 257.5625 L 23.769531 246.214844 Z M 35.121094 257.921875 L 35.121094 269.269531 L 23.769531 269.269531 L 23.769531 257.921875 Z M 35.121094 269.628906 L 35.121094 280.976562 L 23.769531 280.976562 L 23.769531 269.628906 Z M 35.121094 281.335938 L 35.121094 292.6875 L 23.769531 292.6875 L 23.769531 281.335938 Z M 35.121094 293.042969 L 35.121094 304.394531 L 23.769531 304.394531 L 23.769531 293.042969 Z M 35.121094 304.75 L 35.121094 316.101562 L 23.769531 316.101562 L 23.769531 304.75 Z M 35.121094 316.460938 L 35.121094 327.808594 L 23.769531 327.808594 L 23.769531 316.460938 Z M 35.121094 328.167969 L 35.121094 339.515625 L 23.769531 339.515625 L 23.769531 328.167969 Z M 35.121094 339.875 L 35.121094 351.222656 L 23.769531 351.222656 L 23.769531 339.875 Z M 35.480469 339.875 L 46.828125 339.875 L 46.828125 351.222656 L 35.480469 351.222656 Z M 47.1875 339.875 L 58.535156 339.875 L 58.535156 351.222656 L 47.1875 351.222656 Z M 58.894531 339.875 L 70.242188 339.875 L 70.242188 351.222656 L 58.894531 351.222656 Z M 70.601562 339.875 L 81.949219 339.875 L 81.949219 351.222656 L 70.601562 351.222656 Z M 82.308594 339.875 L 93.660156 339.875 L 93.660156 351.222656 L 82.308594 351.222656 Z M 94.015625 339.875 L 105.367188 339.875 L 105.367188 351.222656 L 94.015625 351.222656 Z M 105.722656 339.875 L 117.074219 339.875 L 117.074219 351.222656 L 105.722656 351.222656 Z M 117.429688 339.875 L 128.78125 339.875 L 128.78125 351.222656 L 117.429688 351.222656 Z M 129.140625 339.875 L 140.488281 339.875 L 140.488281 351.222656 L 129.140625 351.222656 Z M 140.847656 339.875 L 152.195312 339.875 L 152.195312 351.222656 L 140.847656 351.222656 Z M 152.554688 339.875 L 163.902344 339.875 L 163.902344 351.222656 L 152.554688 351.222656 Z M 164.261719 339.875 L 175.609375 339.875 L 175.609375 351.222656 L 164.261719 351.222656 Z M 175.96875 339.875 L 187.316406 339.875 L 187.316406 351.222656 L 175.96875 351.222656 Z M 187.675781 339.875 L 199.027344 339.875 L 199.027344 351.222656 L 187.675781 351.222656 Z M 199.382812 339.875 L 210.734375 339.875 L 210.734375 351.222656 L 199.382812 351.222656 Z M 211.09375 339.875 L 222.441406 339.875 L 222.441406 351.222656 L 211.09375 351.222656 Z M 222.800781 339.875 L 234.148438 339.875 L 234.148438 351.222656 L 222.800781 351.222656 Z M 234.507812 339.875 L 245.855469 339.875 L 245.855469 351.222656 L 234.507812 351.222656 Z M 246.214844 339.875 L 257.5625 339.875 L 257.5625 351.222656 L 246.214844 351.222656 Z M 257.921875 339.875 L 269.269531 339.875 L 269.269531 351.222656 L 257.921875 351.222656 Z M 269.628906 339.875 L 280.980469 339.875 L 280.980469 351.222656 L 269.628906 351.222656 Z M 281.335938 339.875 L 292.6875 339.875 L 292.6875 351.222656 L 281.335938 351.222656 Z M 293.042969 339.875 L 304.394531 339.875 L 304.394531 351.222656 L 293.042969 351.222656 Z M 304.753906 339.875 L 316.101562 339.875 L 316.101562 351.222656 L 304.753906 351.222656 Z M 316.460938 339.875 L 327.808594 339.875 L 327.808594 351.222656 L 316.460938 351.222656 Z M 328.167969 339.875 L 339.515625 339.875 L 339.515625 351.222656 L 328.167969 351.222656 Z M 339.875 339.875 L 351.222656 339.875 L 351.222656 351.222656 L 339.875 351.222656 Z M 339.875 339.515625 L 339.875 328.167969 L 351.222656 328.167969 L 351.222656 339.515625 Z M 339.875 327.808594 L 339.875 316.460938 L 351.222656 316.460938 L 351.222656 327.808594 Z M 339.875 316.101562 L 339.875 304.75 L 351.222656 304.75 L 351.222656 316.101562 Z M 339.875 304.394531 L 339.875 293.042969 L 351.222656 293.042969 L 351.222656 304.394531 Z M 339.875 292.6875 L 339.875 281.335938 L 351.222656 281.335938 L 351.222656 292.6875 Z M 339.875 280.976562 L 339.875 269.628906 L 351.222656 269.628906 L 351.222656 280.976562 Z M 339.875 269.269531 L 339.875 257.921875 L 351.222656 257.921875 L 351.222656 269.269531 Z M 339.875 257.5625 L 339.875 246.214844 L 351.222656 246.214844 L 351.222656 257.5625 Z M 339.875 245.855469 L 339.875 234.507812 L 351.222656 234.507812 L 351.222656 245.855469 Z M 339.875 234.148438 L 339.875 222.800781 L 351.222656 222.800781 L 351.222656 234.148438 Z M 339.875 222.441406 L 339.875 211.09375 L 351.222656 211.09375 L 351.222656 222.441406 Z M 339.875 210.734375 L 339.875 199.382812 L 351.222656 199.382812 L 351.222656 210.734375 Z M 339.875 199.027344 L 339.875 187.675781 L 351.222656 187.675781 L 351.222656 199.027344 Z M 339.875 187.320312 L 339.875 175.96875 L 351.222656 175.96875 L 351.222656 187.320312 Z M 339.875 175.609375 L 339.875 164.261719 L 351.222656 164.261719 L 351.222656 175.609375 Z M 339.875 163.902344 L 339.875 152.554688 L 351.222656 152.554688 L 351.222656 163.902344 Z M 339.875 152.195312 L 339.875 140.847656 L 351.222656 140.847656 L 351.222656 152.195312 Z M 339.875 140.488281 L 339.875 129.140625 L 351.222656 129.140625 L 351.222656 140.488281 Z M 339.875 128.78125 L 339.875 117.433594 L 351.222656 117.433594 L 351.222656 128.78125 Z M 339.875 117.074219 L 339.875 105.726562 L 351.222656 105.726562 L 351.222656 117.074219 Z M 339.875 105.367188 L 339.875 94.015625 L 351.222656 94.015625 L 351.222656 105.367188 Z M 339.875 93.660156 L 339.875 82.308594 L 351.222656 82.308594 L 351.222656 93.660156 Z M 339.875 81.953125 L 339.875 70.601562 L 351.222656 70.601562 L 351.222656 81.953125 Z M 339.875 70.242188 L 339.875 58.894531 L 351.222656 58.894531 L 351.222656 70.242188 Z M 339.875 58.535156 L 339.875 47.1875 L 351.222656 47.1875 L 351.222656 58.535156 Z M 339.875 46.828125 L 339.875 35.480469 L 351.222656 35.480469 L 351.222656 46.828125 Z M 339.875 35.121094 L 339.875 23.773438 L 351.222656 23.773438 L 351.222656 35.121094 Z M 339.875 23.414062 L 339.875 12.066406 L 351.222656 12.066406 L 351.222656 23.414062 Z M 339.515625 23.414062 L 328.167969 23.414062 L 328.167969 12.066406 L 339.515625 12.066406 Z M 327.808594 23.414062 L 316.460938 23.414062 L 316.460938 12.066406 L 327.808594 12.066406 Z M 316.101562 23.414062 L 304.753906 23.414062 L 304.753906 12.066406 L 316.101562 12.066406 Z M 304.394531 23.414062 L 293.042969 23.414062 L 293.042969 12.066406 L 304.394531 12.066406 Z M 292.6875 23.414062 L 281.335938 23.414062 L 281.335938 12.066406 L 292.6875 12.066406 Z M 280.980469 23.414062 L 269.628906 23.414062 L 269.628906 12.066406 L 280.980469 12.066406 Z M 269.269531 23.414062 L 257.921875 23.414062 L 257.921875 12.066406 L 269.269531 12.066406 Z M 257.5625 23.414062 L 246.214844 23.414062 L 246.214844 12.066406 L 257.5625 12.066406 Z M 245.855469 23.414062 L 234.507812 23.414062 L 234.507812 12.066406 L 245.855469 12.066406 Z M 234.148438 23.414062 L 222.800781 23.414062 L 222.800781 12.066406 L 234.148438 12.066406 Z M 222.441406 23.414062 L 211.09375 23.414062 L 211.09375 12.066406 L 222.441406 12.066406 Z M 210.734375 23.414062 L 199.382812 23.414062 L 199.382812 12.066406 L 210.734375 12.066406 Z M 199.027344 23.414062 L 187.675781 23.414062 L 187.675781 12.066406 L 199.027344 12.066406 Z M 187.316406 23.414062 L 175.96875 23.414062 L 175.96875 12.066406 L 187.316406 12.066406 Z M 175.609375 23.414062 L 164.261719 23.414062 L 164.261719 12.066406 L 175.609375 12.066406 Z M 163.902344 23.414062 L 152.554688 23.414062 L 152.554688 12.066406 L 163.902344 12.066406 Z M 152.195312 23.414062 L 140.847656 23.414062 L 140.847656 12.066406 L 152.195312 12.066406 Z M 140.488281 23.414062 L 129.140625 23.414062 L 129.140625 12.066406 L 140.488281 12.066406 Z M 128.78125 23.414062 L 117.429688 23.414062 L 117.429688 12.066406 L 128.78125 12.066406 Z M 117.074219 23.414062 L 105.722656 23.414062 L 105.722656 12.066406 L 117.074219 12.066406 Z M 105.367188 23.414062 L 94.015625 23.414062 L 94.015625 12.066406 L 105.367188 12.066406 Z M 93.660156 23.414062 L 82.308594 23.414062 L 82.308594 12.066406 L 93.660156 12.066406 Z M 81.949219 23.414062 L 70.601562 23.414062 L 70.601562 12.066406 L 81.949219 12.066406 Z M 70.242188 23.414062 L 58.894531 23.414062 L 58.894531 12.066406 L 70.242188 12.066406 Z M 58.535156 23.414062 L 47.1875 23.414062 L 47.1875 12.066406 L 58.535156 12.066406 Z M 46.828125 23.414062 L 35.480469 23.414062 L 35.480469 12.066406 L 46.828125 12.066406 Z M 35.121094 23.414062 L 23.769531 23.414062 L 23.769531 12.066406 L 35.121094 12.066406 Z M 23.414062 23.414062 L 12.0625 23.414062 L 12.0625 12.066406 L 23.414062 12.066406 Z M 23.414062 23.773438 L 23.414062 35.121094 L 12.0625 35.121094 L 12.0625 23.773438 Z M 23.414062 35.480469 L 23.414062 46.828125 L 12.0625 46.828125 L 12.0625 35.480469 Z M 23.414062 47.1875 L 23.414062 58.535156 L 12.0625 58.535156 L 12.0625 47.1875 Z M 23.414062 58.894531 L 23.414062 70.242188 L 12.0625 70.242188 L 12.0625 58.894531 Z M 23.414062 70.601562 L 23.414062 81.953125 L 12.0625 81.953125 L 12.0625 70.601562 Z M 23.414062 82.308594 L 23.414062 93.660156 L 12.0625 93.660156 L 12.0625 82.308594 Z M 23.414062 94.015625 L 23.414062 105.367188 L 12.0625 105.367188 L 12.0625 94.015625 Z M 23.414062 105.726562 L 23.414062 117.074219 L 12.0625 117.074219 L 12.0625 105.726562 Z M 23.414062 117.433594 L 23.414062 128.78125 L 12.0625 128.78125 L 12.0625 117.433594 Z M 23.414062 129.140625 L 23.414062 140.488281 L 12.0625 140.488281 L 12.0625 129.140625 Z M 23.414062 140.847656 L 23.414062 152.195312 L 12.0625 152.195312 L 12.0625 140.847656 Z M 23.414062 152.554688 L 23.414062 163.902344 L 12.0625 163.902344 L 12.0625 152.554688 Z M 23.414062 164.261719 L 23.414062 175.609375 L 12.0625 175.609375 L 12.0625 164.261719 Z M 23.414062 175.96875 L 23.414062 187.320312 L 12.0625 187.320312 L 12.0625 175.96875 Z M 23.414062 187.675781 L 23.414062 199.027344 L 12.0625 199.027344 L 12.0625 187.675781 Z M 23.414062 199.382812 L 23.414062 210.734375 L 12.0625 210.734375 L 12.0625 199.382812 Z M 23.414062 211.09375 L 23.414062 222.441406 L 12.0625 222.441406 L 12.0625 211.09375 Z M 23.414062 222.800781 L 23.414062 234.148438 L 12.0625 234.148438 L 12.0625 222.800781 Z M 23.414062 234.507812 L 23.414062 245.855469 L 12.0625 245.855469 L 12.0625 234.507812 Z M 23.414062 246.214844 L 23.414062 257.5625 L 12.0625 257.5625 L 12.0625 246.214844 Z M 23.414062 257.921875 L 23.414062 269.269531 L 12.0625 269.269531 L 12.0625 257.921875 Z M 23.414062 269.628906 L 23.414062 280.976562 L 12.0625 280.976562 L 12.0625 269.628906 Z M 23.414062 281.335938 L 23.414062 292.6875 L 12.0625 292.6875 L 12.0625 281.335938 Z M 23.414062 293.042969 L 23.414062 304.394531 L 12.0625 304.394531 L 12.0625 293.042969 Z M 23.414062 304.75 L 23.414062 316.101562 L 12.0625 316.101562 L 12.0625 304.75 Z M 23.414062 316.460938 L 23.414062 327.808594 L 12.0625 327.808594 L 12.0625 316.460938 Z M 23.414062 328.167969 L 23.414062 339.515625 L 12.0625 339.515625 L 12.0625 328.167969 Z M 23.414062 339.875 L 23.414062 351.222656 L 12.0625 351.222656 L 12.0625 339.875 Z M 23.414062 351.582031 L 23.414062 362.929688 L 12.0625 362.929688 L 12.0625 351.582031 Z M 23.769531 351.582031 L 35.121094 351.582031 L 35.121094 362.929688 L 23.769531 362.929688 Z M 35.480469 351.582031 L 46.828125 351.582031 L 46.828125 362.929688 L 35.480469 362.929688 Z M 47.1875 351.582031 L 58.535156 351.582031 L 58.535156 362.929688 L 47.1875 362.929688 Z M 58.894531 351.582031 L 70.242188 351.582031 L 70.242188 362.929688 L 58.894531 362.929688 Z M 70.601562 351.582031 L 81.949219 351.582031 L 81.949219 362.929688 L 70.601562 362.929688 Z M 82.308594 351.582031 L 93.660156 351.582031 L 93.660156 362.929688 L 82.308594 362.929688 Z M 94.015625 351.582031 L 105.367188 351.582031 L 105.367188 362.929688 L 94.015625 362.929688 Z M 105.722656 351.582031 L 117.074219 351.582031 L 117.074219 362.929688 L 105.722656 362.929688 Z M 117.429688 351.582031 L 128.78125 351.582031 L 128.78125 362.929688 L 117.429688 362.929688 Z M 129.140625 351.582031 L 140.488281 351.582031 L 140.488281 362.929688 L 129.140625 362.929688 Z M 140.847656 351.582031 L 152.195312 351.582031 L 152.195312 362.929688 L 140.847656 362.929688 Z M 152.554688 351.582031 L 163.902344 351.582031 L 163.902344 362.929688 L 152.554688 362.929688 Z M 164.261719 351.582031 L 175.609375 351.582031 L 175.609375 362.929688 L 164.261719 362.929688 Z M 175.96875 351.582031 L 187.316406 351.582031 L 187.316406 362.929688 L 175.96875 362.929688 Z M 187.675781 351.582031 L 199.027344 351.582031 L 199.027344 362.929688 L 187.675781 362.929688 Z M 199.382812 351.582031 L 210.734375 351.582031 L 210.734375 362.929688 L 199.382812 362.929688 Z M 211.09375 351.582031 L 222.441406 351.582031 L 222.441406 362.929688 L 211.09375 362.929688 Z M 222.800781 351.582031 L 234.148438 351.582031 L 234.148438 362.929688 L 222.800781 362.929688 Z M 234.507812 351.582031 L 245.855469 351.582031 L 245.855469 362.929688 L 234.507812 362.929688 Z M 246.214844 351.582031 L 257.5625 351.582031 L 257.5625 362.929688 L 246.214844 362.929688 Z M 257.921875 351.582031 L 269.269531 351.582031 L 269.269531 362.929688 L 257.921875 362.929688 Z M 269.628906 351.582031 L 280.980469 351.582031 L 280.980469 362.929688 L 269.628906 362.929688 Z M 281.335938 351.582031 L 292.6875 351.582031 L 292.6875 362.929688 L 281.335938 362.929688 Z M 293.042969 351.582031 L 304.394531 351.582031 L 304.394531 362.929688 L 293.042969 362.929688 Z M 304.753906 351.582031 L 316.101562 351.582031 L 316.101562 362.929688 L 304.753906 362.929688 Z M 316.460938 351.582031 L 327.808594 351.582031 L 327.808594 362.929688 L 316.460938 362.929688 Z M 328.167969 351.582031 L 339.515625 351.582031 L 339.515625 362.929688 L 328.167969 362.929688 Z M 339.875 351.582031 L 351.222656 351.582031 L 351.222656 362.929688 L 339.875 362.929688 Z M 351.582031 351.582031 L 362.929688 351.582031 L 362.929688 362.929688 L 351.582031 362.929688 Z M 351.582031 351.222656 L 351.582031 339.875 L 362.929688 339.875 L 362.929688 351.222656 Z M 351.582031 339.515625 L 351.582031 328.167969 L 362.929688 328.167969 L 362.929688 339.515625 Z M 351.582031 327.808594 L 351.582031 316.460938 L 362.929688 316.460938 L 362.929688 327.808594 Z M 351.582031 316.101562 L 351.582031 304.75 L 362.929688 304.75 L 362.929688 316.101562 Z M 351.582031 304.394531 L 351.582031 293.042969 L 362.929688 293.042969 L 362.929688 304.394531 Z M 351.582031 292.6875 L 351.582031 281.335938 L 362.929688 281.335938 L 362.929688 292.6875 Z M 351.582031 280.976562 L 351.582031 269.628906 L 362.929688 269.628906 L 362.929688 280.976562 Z M 351.582031 269.269531 L 351.582031 257.921875 L 362.929688 257.921875 L 362.929688 269.269531 Z M 351.582031 257.5625 L 351.582031 246.214844 L 362.929688 246.214844 L 362.929688 257.5625 Z M 351.582031 245.855469 L 351.582031 234.507812 L 362.929688 234.507812 L 362.929688 245.855469 Z M 351.582031 234.148438 L 351.582031 222.800781 L 362.929688 222.800781 L 362.929688 234.148438 Z M 351.582031 222.441406 L 351.582031 211.09375 L 362.929688 211.09375 L 362.929688 222.441406 Z M 351.582031 210.734375 L 351.582031 199.382812 L 362.929688 199.382812 L 362.929688 210.734375 Z M 351.582031 199.027344 L 351.582031 187.675781 L 362.929688 187.675781 L 362.929688 199.027344 Z M 351.582031 187.320312 L 351.582031 175.96875 L 362.929688 175.96875 L 362.929688 187.320312 Z M 351.582031 175.609375 L 351.582031 164.261719 L 362.929688 164.261719 L 362.929688 175.609375 Z M 351.582031 163.902344 L 351.582031 152.554688 L 362.929688 152.554688 L 362.929688 163.902344 Z M 351.582031 152.195312 L 351.582031 140.847656 L 362.929688 140.847656 L 362.929688 152.195312 Z M 351.582031 140.488281 L 351.582031 129.140625 L 362.929688 129.140625 L 362.929688 140.488281 Z M 351.582031 128.78125 L 351.582031 117.433594 L 362.929688 117.433594 L 362.929688 128.78125 Z M 351.582031 117.074219 L 351.582031 105.726562 L 362.929688 105.726562 L 362.929688 117.074219 Z M 351.582031 105.367188 L 351.582031 94.015625 L 362.929688 94.015625 L 362.929688 105.367188 Z M 351.582031 93.660156 L 351.582031 82.308594 L 362.929688 82.308594 L 362.929688 93.660156 Z M 351.582031 81.953125 L 351.582031 70.601562 L 362.929688 70.601562 L 362.929688 81.953125 Z M 351.582031 70.242188 L 351.582031 58.894531 L 362.929688 58.894531 L 362.929688 70.242188 Z M 351.582031 58.535156 L 351.582031 47.1875 L 362.929688 47.1875 L 362.929688 58.535156 Z M 351.582031 46.828125 L 351.582031 35.480469 L 362.929688 35.480469 L 362.929688 46.828125 Z M 351.582031 35.121094 L 351.582031 23.773438 L 362.929688 23.773438 L 362.929688 35.121094 Z M 351.582031 23.414062 L 351.582031 12.066406 L 362.929688 12.066406 L 362.929688 23.414062 Z M 351.222656 0.359375 L 351.222656 11.707031 L 339.875 11.707031 L 339.875 0.359375 Z M 339.515625 0.359375 L 339.515625 11.707031 L 328.167969 11.707031 L 328.167969 0.359375 Z M 327.808594 0.359375 L 327.808594 11.707031 L 316.460938 11.707031 L 316.460938 0.359375 Z M 316.101562 0.359375 L 316.101562 11.707031 L 304.753906 11.707031 L 304.753906 0.359375 Z M 304.394531 0.359375 L 304.394531 11.707031 L 293.042969 11.707031 L 293.042969 0.359375 Z M 292.6875 0.359375 L 292.6875 11.707031 L 281.335938 11.707031 L 281.335938 0.359375 Z M 280.980469 0.359375 L 280.980469 11.707031 L 269.628906 11.707031 L 269.628906 0.359375 Z M 269.269531 0.359375 L 269.269531 11.707031 L 257.921875 11.707031 L 257.921875 0.359375 Z M 257.5625 0.359375 L 257.5625 11.707031 L 246.214844 11.707031 L 246.214844 0.359375 Z M 245.855469 0.359375 L 245.855469 11.707031 L 234.507812 11.707031 L 234.507812 0.359375 Z M 234.148438 0.359375 L 234.148438 11.707031 L 222.800781 11.707031 L 222.800781 0.359375 Z M 222.441406 0.359375 L 222.441406 11.707031 L 211.09375 11.707031 L 211.09375 0.359375 Z M 210.734375 0.359375 L 210.734375 11.707031 L 199.382812 11.707031 L 199.382812 0.359375 Z M 199.027344 0.359375 L 199.027344 11.707031 L 187.675781 11.707031 L 187.675781 0.359375 Z M 187.316406 0.359375 L 187.316406 11.707031 L 175.96875 11.707031 L 175.96875 0.359375 Z M 175.609375 0.359375 L 175.609375 11.707031 L 164.261719 11.707031 L 164.261719 0.359375 Z M 163.902344 0.359375 L 163.902344 11.707031 L 152.554688 11.707031 L 152.554688 0.359375 Z M 152.195312 0.359375 L 152.195312 11.707031 L 140.847656 11.707031 L 140.847656 0.359375 Z M 140.488281 0.359375 L 140.488281 11.707031 L 129.140625 11.707031 L 129.140625 0.359375 Z M 128.78125 0.359375 L 128.78125 11.707031 L 117.429688 11.707031 L 117.429688 0.359375 Z M 117.074219 0.359375 L 117.074219 11.707031 L 105.722656 11.707031 L 105.722656 0.359375 Z M 105.367188 0.359375 L 105.367188 11.707031 L 94.015625 11.707031 L 94.015625 0.359375 Z M 93.660156 0.359375 L 93.660156 11.707031 L 82.308594 11.707031 L 82.308594 0.359375 Z M 81.949219 0.359375 L 81.949219 11.707031 L 70.601562 11.707031 L 70.601562 0.359375 Z M 70.242188 0.359375 L 70.242188 11.707031 L 58.894531 11.707031 L 58.894531 0.359375 Z M 58.535156 0.359375 L 58.535156 11.707031 L 47.1875 11.707031 L 47.1875 0.359375 Z M 46.828125 0.359375 L 46.828125 11.707031 L 35.480469 11.707031 L 35.480469 0.359375 Z M 35.121094 0.359375 L 35.121094 11.707031 L 23.769531 11.707031 L 23.769531 0.359375 Z M 23.414062 0.359375 L 23.414062 11.707031 L 12.0625 11.707031 L 12.0625 0.359375 Z M 0.359375 0.359375 L 11.707031 0.359375 L 11.707031 11.707031 L 0.359375 11.707031 Z M 0.359375 12.066406 L 11.707031 12.066406 L 11.707031 23.414062 L 0.359375 23.414062 Z M 0.359375 23.773438 L 11.707031 23.773438 L 11.707031 35.121094 L 0.359375 35.121094 Z M 0.359375 35.480469 L 11.707031 35.480469 L 11.707031 46.828125 L 0.359375 46.828125 Z M 0.359375 47.1875 L 11.707031 47.1875 L 11.707031 58.539062 L 0.359375 58.539062 Z M 0.359375 58.894531 L 11.707031 58.894531 L 11.707031 70.246094 L 0.359375 70.246094 Z M 0.359375 70.601562 L 11.707031 70.601562 L 11.707031 81.953125 L 0.359375 81.953125 Z M 0.359375 82.308594 L 11.707031 82.308594 L 11.707031 93.660156 L 0.359375 93.660156 Z M 0.359375 94.019531 L 11.707031 94.019531 L 11.707031 105.367188 L 0.359375 105.367188 Z M 0.359375 105.726562 L 11.707031 105.726562 L 11.707031 117.074219 L 0.359375 117.074219 Z M 0.359375 117.433594 L 11.707031 117.433594 L 11.707031 128.78125 L 0.359375 128.78125 Z M 0.359375 129.140625 L 11.707031 129.140625 L 11.707031 140.488281 L 0.359375 140.488281 Z M 0.359375 140.847656 L 11.707031 140.847656 L 11.707031 152.195312 L 0.359375 152.195312 Z M 0.359375 152.554688 L 11.707031 152.554688 L 11.707031 163.90625 L 0.359375 163.90625 Z M 0.359375 164.261719 L 11.707031 164.261719 L 11.707031 175.613281 L 0.359375 175.613281 Z M 0.359375 175.96875 L 11.707031 175.96875 L 11.707031 187.320312 L 0.359375 187.320312 Z M 0.359375 187.675781 L 11.707031 187.675781 L 11.707031 199.027344 L 0.359375 199.027344 Z M 0.359375 199.386719 L 11.707031 199.386719 L 11.707031 210.734375 L 0.359375 210.734375 Z M 0.359375 211.09375 L 11.707031 211.09375 L 11.707031 222.441406 L 0.359375 222.441406 Z M 0.359375 222.800781 L 11.707031 222.800781 L 11.707031 234.148438 L 0.359375 234.148438 Z M 0.359375 234.507812 L 11.707031 234.507812 L 11.707031 245.855469 L 0.359375 245.855469 Z M 0.359375 246.214844 L 11.707031 246.214844 L 11.707031 257.5625 L 0.359375 257.5625 Z M 0.359375 257.921875 L 11.707031 257.921875 L 11.707031 269.273438 L 0.359375 269.273438 Z M 0.359375 269.628906 L 11.707031 269.628906 L 11.707031 280.980469 L 0.359375 280.980469 Z M 0.359375 281.335938 L 11.707031 281.335938 L 11.707031 292.6875 L 0.359375 292.6875 Z M 0.359375 293.046875 L 11.707031 293.046875 L 11.707031 304.394531 L 0.359375 304.394531 Z M 0.359375 304.753906 L 11.707031 304.753906 L 11.707031 316.101562 L 0.359375 316.101562 Z M 0.359375 316.460938 L 11.707031 316.460938 L 11.707031 327.808594 L 0.359375 327.808594 Z M 0.359375 328.167969 L 11.707031 328.167969 L 11.707031 339.515625 L 0.359375 339.515625 Z M 0.359375 339.875 L 11.707031 339.875 L 11.707031 351.222656 L 0.359375 351.222656 Z M 0.359375 351.582031 L 11.707031 351.582031 L 11.707031 362.933594 L 0.359375 362.933594 Z M 0.359375 374.640625 L 0.359375 363.289062 L 11.707031 363.289062 L 11.707031 374.640625 Z M 12.066406 374.640625 L 12.066406 363.289062 L 23.414062 363.289062 L 23.414062 374.640625 Z M 23.773438 374.640625 L 23.773438 363.289062 L 35.121094 363.289062 L 35.121094 374.640625 Z M 35.480469 374.640625 L 35.480469 363.289062 L 46.832031 363.289062 L 46.832031 374.640625 Z M 47.1875 374.640625 L 47.1875 363.289062 L 58.539062 363.289062 L 58.539062 374.640625 Z M 58.894531 374.640625 L 58.894531 363.289062 L 70.246094 363.289062 L 70.246094 374.640625 Z M 70.601562 374.640625 L 70.601562 363.289062 L 81.953125 363.289062 L 81.953125 374.640625 Z M 82.3125 374.640625 L 82.3125 363.289062 L 93.660156 363.289062 L 93.660156 374.640625 Z M 94.019531 374.640625 L 94.019531 363.289062 L 105.367188 363.289062 L 105.367188 374.640625 Z M 105.726562 374.640625 L 105.726562 363.289062 L 117.074219 363.289062 L 117.074219 374.640625 Z M 117.433594 374.640625 L 117.433594 363.289062 L 128.78125 363.289062 L 128.78125 374.640625 Z M 129.140625 374.640625 L 129.140625 363.289062 L 140.492188 363.289062 L 140.492188 374.640625 Z M 140.847656 374.640625 L 140.847656 363.289062 L 152.199219 363.289062 L 152.199219 374.640625 Z M 152.554688 374.640625 L 152.554688 363.289062 L 163.90625 363.289062 L 163.90625 374.640625 Z M 164.265625 374.640625 L 164.265625 363.289062 L 175.613281 363.289062 L 175.613281 374.640625 Z M 175.972656 374.640625 L 175.972656 363.289062 L 187.320312 363.289062 L 187.320312 374.640625 Z M 187.679688 374.640625 L 187.679688 363.289062 L 199.027344 363.289062 L 199.027344 374.640625 Z M 199.386719 374.640625 L 199.386719 363.289062 L 210.734375 363.289062 L 210.734375 374.640625 Z M 211.09375 374.640625 L 211.09375 363.289062 L 222.441406 363.289062 L 222.441406 374.640625 Z M 222.800781 374.640625 L 222.800781 363.289062 L 234.152344 363.289062 L 234.152344 374.640625 Z M 234.507812 374.640625 L 234.507812 363.289062 L 245.859375 363.289062 L 245.859375 374.640625 Z M 246.214844 374.640625 L 246.214844 363.289062 L 257.566406 363.289062 L 257.566406 374.640625 Z M 257.925781 374.640625 L 257.925781 363.289062 L 269.273438 363.289062 L 269.273438 374.640625 Z M 269.632812 374.640625 L 269.632812 363.289062 L 280.980469 363.289062 L 280.980469 374.640625 Z M 281.339844 374.640625 L 281.339844 363.289062 L 292.6875 363.289062 L 292.6875 374.640625 Z M 293.046875 374.640625 L 293.046875 363.289062 L 304.394531 363.289062 L 304.394531 374.640625 Z M 304.753906 374.640625 L 304.753906 363.289062 L 316.101562 363.289062 L 316.101562 374.640625 Z M 316.460938 374.640625 L 316.460938 363.289062 L 327.8125 363.289062 L 327.8125 374.640625 Z M 328.167969 374.640625 L 328.167969 363.289062 L 339.519531 363.289062 L 339.519531 374.640625 Z M 339.878906 374.640625 L 339.878906 363.289062 L 351.226562 363.289062 L 351.226562 374.640625 Z M 351.585938 374.640625 L 351.585938 363.289062 L 362.933594 363.289062 L 362.933594 374.640625 Z M 374.640625 374.640625 L 363.292969 374.640625 L 363.292969 363.289062 L 374.640625 363.289062 Z M 374.640625 362.929688 L 363.292969 362.929688 L 363.292969 351.582031 L 374.640625 351.582031 Z M 374.640625 351.222656 L 363.292969 351.222656 L 363.292969 339.875 L 374.640625 339.875 Z M 374.640625 339.515625 L 363.292969 339.515625 L 363.292969 328.167969 L 374.640625 328.167969 Z M 374.640625 327.808594 L 363.292969 327.808594 L 363.292969 316.460938 L 374.640625 316.460938 Z M 374.640625 316.101562 L 363.292969 316.101562 L 363.292969 304.753906 L 374.640625 304.753906 Z M 374.640625 304.394531 L 363.292969 304.394531 L 363.292969 293.042969 L 374.640625 293.042969 Z M 374.640625 292.6875 L 363.292969 292.6875 L 363.292969 281.335938 L 374.640625 281.335938 Z M 374.640625 280.980469 L 363.292969 280.980469 L 363.292969 269.628906 L 374.640625 269.628906 Z M 374.640625 269.269531 L 363.292969 269.269531 L 363.292969 257.921875 L 374.640625 257.921875 Z M 374.640625 257.5625 L 363.292969 257.5625 L 363.292969 246.214844 L 374.640625 246.214844 Z M 374.640625 245.855469 L 363.292969 245.855469 L 363.292969 234.507812 L 374.640625 234.507812 Z M 374.640625 234.148438 L 363.292969 234.148438 L 363.292969 222.800781 L 374.640625 222.800781 Z M 374.640625 222.441406 L 363.292969 222.441406 L 363.292969 211.09375 L 374.640625 211.09375 Z M 374.640625 210.734375 L 363.292969 210.734375 L 363.292969 199.382812 L 374.640625 199.382812 Z M 374.640625 199.027344 L 363.292969 199.027344 L 363.292969 187.675781 L 374.640625 187.675781 Z M 374.640625 187.320312 L 363.292969 187.320312 L 363.292969 175.96875 L 374.640625 175.96875 Z M 374.640625 175.613281 L 363.292969 175.613281 L 363.292969 164.261719 L 374.640625 164.261719 Z M 374.640625 163.902344 L 363.292969 163.902344 L 363.292969 152.554688 L 374.640625 152.554688 Z M 374.640625 152.195312 L 363.292969 152.195312 L 363.292969 140.847656 L 374.640625 140.847656 Z M 374.640625 140.488281 L 363.292969 140.488281 L 363.292969 129.140625 L 374.640625 129.140625 Z M 374.640625 128.78125 L 363.292969 128.78125 L 363.292969 117.433594 L 374.640625 117.433594 Z M 374.640625 117.074219 L 363.292969 117.074219 L 363.292969 105.726562 L 374.640625 105.726562 Z M 374.640625 105.367188 L 363.292969 105.367188 L 363.292969 94.015625 L 374.640625 94.015625 Z M 374.640625 93.660156 L 363.292969 93.660156 L 363.292969 82.308594 L 374.640625 82.308594 Z M 374.640625 81.953125 L 363.292969 81.953125 L 363.292969 70.601562 L 374.640625 70.601562 Z M 374.640625 70.246094 L 363.292969 70.246094 L 363.292969 58.894531 L 374.640625 58.894531 Z M 374.640625 58.535156 L 363.292969 58.535156 L 363.292969 47.1875 L 374.640625 47.1875 Z M 374.640625 46.828125 L 363.292969 46.828125 L 363.292969 35.480469 L 374.640625 35.480469 Z M 374.640625 35.121094 L 363.292969 35.121094 L 363.292969 23.773438 L 374.640625 23.773438 Z M 374.640625 23.414062 L 363.292969 23.414062 L 363.292969 12.066406 L 374.640625 12.066406 Z M 374.640625 11.707031 L 363.292969 11.707031 L 363.292969 0.359375 L 374.640625 0.359375 Z M 374.640625 11.707031 " fill-opacity="1" fill-rule="nonzero"/></g></g></g></svg>