<svg xmlns="http://www.w3.org/2000/svg" xmlns:xlink="http://www.w3.org/1999/xlink" width="500" zoomAndPan="magnify" viewBox="0 0 375 374.999991" height="500" preserveAspectRatio="xMidYMid meet" version="1.0"><rect x="-37.5" width="450" fill="#ffffff" y="-37.499999" height="449.999989" fill-opacity="1"/><rect x="-37.5" width="450" fill="#ebebeb" y="-37.499999" height="449.999989" fill-opacity="1"/><path fill="#e44f26" d="M 93.523438 295.695312 L 72.195312 56.484375 L 306.554688 56.484375 L 285.199219 295.660156 L 189.234375 322.265625 Z M 93.523438 295.695312 " fill-opacity="1" fill-rule="nonzero"/><path fill="#f1662a" d="M 189.375 301.933594 L 266.925781 280.433594 L 285.171875 76.046875 L 189.375 76.046875 Z M 189.375 301.933594 " fill-opacity="1" fill-rule="nonzero"/><path fill="#ebebeb" d="M 189.375 164.761719 L 150.550781 164.761719 L 147.875 134.71875 L 189.375 134.71875 L 189.375 105.378906 L 115.808594 105.378906 L 116.511719 113.257812 L 123.71875 194.101562 L 189.375 194.101562 Z M 189.375 164.761719 " fill-opacity="1" fill-rule="nonzero"/><path fill="#ebebeb" d="M 189.375 240.957031 L 189.242188 240.992188 L 156.570312 232.175781 L 154.480469 208.777344 L 125.027344 208.777344 L 129.136719 254.832031 L 189.242188 271.519531 L 189.375 271.480469 Z M 189.375 240.957031 " fill-opacity="1" fill-rule="nonzero"/><path fill="#ffffff" d="M 189.269531 164.761719 L 189.269531 194.101562 L 225.398438 194.101562 L 222 232.15625 L 189.269531 240.984375 L 189.269531 271.511719 L 249.421875 254.832031 L 249.859375 249.878906 L 256.75 172.640625 L 257.472656 164.761719 Z M 189.269531 164.761719 " fill-opacity="1" fill-rule="nonzero"/><path fill="#ffffff" d="M 189.269531 105.378906 L 189.269531 134.71875 L 260.140625 134.71875 L 260.726562 128.132812 L 262.066406 113.257812 L 262.769531 105.378906 Z M 189.269531 105.378906 " fill-opacity="1" fill-rule="nonzero"/></svg>