<svg xmlns="http://www.w3.org/2000/svg" xmlns:xlink="http://www.w3.org/1999/xlink" width="500" zoomAndPan="magnify" viewBox="0 0 375 374.999991" height="500" preserveAspectRatio="xMidYMid meet" version="1.0"><defs><g/></defs><rect x="-37.5" width="450" fill="#ffffff" y="-37.499999" height="449.999989" fill-opacity="1"/><rect x="-37.5" width="450" fill="#ecedee" y="-37.499999" height="449.999989" fill-opacity="1"/><g fill="#171616" fill-opacity="1"><g transform="translate(40.848196, 275.486832)"><g><path d="M 9.34375 0 L 9.34375 -37.640625 L 35.375 -37.640625 C 46.144531 -37.640625 53.675781 -40.207031 57.96875 -45.34375 C 62.269531 -50.476562 64.421875 -57.929688 64.421875 -67.703125 L 64.421875 -176.84375 L 104.84375 -176.84375 L 104.84375 -64.671875 C 104.84375 -44.296875 99.195312 -28.421875 87.90625 -17.046875 C 76.625 -5.679688 59.953125 0 37.890625 0 Z M 9.34375 0 "/></g></g></g><g fill="#171616" fill-opacity="1"><g transform="translate(166.405107, 275.486832)"><g><path d="M 82.859375 3.53125 C 68.035156 3.53125 55.273438 1.09375 44.578125 -3.78125 C 33.890625 -8.664062 25.640625 -15.613281 19.828125 -24.625 C 14.015625 -33.632812 11.109375 -44.203125 11.109375 -56.328125 L 50.53125 -56.328125 C 50.53125 -47.910156 53.429688 -41.34375 59.234375 -36.625 C 65.046875 -31.914062 72.835938 -29.5625 82.609375 -29.5625 C 91.023438 -29.5625 97.675781 -31.203125 102.5625 -34.484375 C 107.445312 -37.765625 109.890625 -42.351562 109.890625 -48.25 C 109.890625 -54.476562 106.941406 -59.53125 101.046875 -63.40625 C 95.148438 -67.28125 85.972656 -70.566406 73.515625 -73.265625 C 52.796875 -77.640625 37.46875 -84.289062 27.53125 -93.21875 C 17.59375 -102.144531 12.625 -113.765625 12.625 -128.078125 C 12.625 -144.242188 18.519531 -157 30.3125 -166.34375 C 42.101562 -175.695312 58.1875 -180.375 78.5625 -180.375 C 92.539062 -180.375 104.664062 -177.972656 114.9375 -173.171875 C 125.21875 -168.367188 133.175781 -161.628906 138.8125 -152.953125 C 144.457031 -144.285156 147.28125 -133.972656 147.28125 -122.015625 L 108.625 -122.015625 C 108.625 -129.929688 106.015625 -136.160156 100.796875 -140.703125 C 95.578125 -145.253906 88.335938 -147.53125 79.078125 -147.53125 C 70.648438 -147.53125 63.992188 -145.890625 59.109375 -142.609375 C 54.222656 -139.328125 51.78125 -134.738281 51.78125 -128.84375 C 51.78125 -123.445312 54.472656 -118.894531 59.859375 -115.1875 C 65.253906 -111.488281 74.691406 -108.039062 88.171875 -104.84375 C 110.234375 -99.625 126.144531 -92.632812 135.90625 -83.875 C 145.675781 -75.113281 150.5625 -63.742188 150.5625 -49.765625 C 150.5625 -33.085938 144.539062 -20.035156 132.5 -10.609375 C 120.457031 -1.179688 103.910156 3.53125 82.859375 3.53125 Z M 82.859375 3.53125 "/></g></g></g></svg>