<svg xmlns="http://www.w3.org/2000/svg" xmlns:xlink="http://www.w3.org/1999/xlink" width="500" zoomAndPan="magnify" viewBox="0 0 375 374.999991" height="500" preserveAspectRatio="xMidYMid meet" version="1.0"><defs><clipPath id="58bc41d30d"><path d="M 119.066406 41 L 255.566406 41 L 255.566406 334.1875 L 119.066406 334.1875 Z M 119.066406 41 " clip-rule="nonzero"/></clipPath></defs><rect x="-37.5" width="450" fill="#ffffff" y="-37.499999" height="449.999989" fill-opacity="1"/><rect x="-37.5" width="450" fill="#060505" y="-37.499999" height="449.999989" fill-opacity="1"/><g clip-path="url(#58bc41d30d)"><path fill="#00ed64" d="M 212.683594 73.574219 C 200.398438 59.085938 189.820312 44.136719 187.773438 41.171875 C 187.542969 40.941406 187.203125 40.941406 186.976562 41.171875 C 184.816406 44.25 174.234375 59.085938 161.949219 73.691406 C 56.617188 208.445312 178.558594 299.386719 178.558594 299.386719 L 179.582031 300.070312 C 180.492188 314.105469 182.765625 334.300781 182.765625 334.300781 L 191.867188 334.300781 C 191.867188 334.300781 194.140625 314.21875 195.050781 300.070312 L 196.074219 299.269531 C 196.074219 299.269531 318.015625 208.445312 212.683594 73.574219 Z M 187.316406 297.332031 C 187.316406 297.332031 181.855469 292.652344 180.378906 290.257812 L 180.378906 290.027344 L 186.976562 143.292969 C 186.976562 142.835938 187.660156 142.835938 187.660156 143.292969 L 194.140625 289.914062 L 194.140625 290.144531 C 192.664062 292.652344 187.316406 297.332031 187.316406 297.332031 Z M 187.316406 297.332031 " fill-opacity="1" fill-rule="nonzero"/></g></svg>