<svg xmlns="http://www.w3.org/2000/svg" xmlns:xlink="http://www.w3.org/1999/xlink" width="500" zoomAndPan="magnify" viewBox="0 0 375 374.999991" height="500" preserveAspectRatio="xMidYMid meet" version="1.0"><defs><clipPath id="f1334a07a6"><path d="M 103 87 L 293 87 L 293 303 L 103 303 Z M 103 87 " clip-rule="nonzero"/></clipPath><clipPath id="dab60b1e49"><path d="M 193.03125 88.863281 L 108.746094 137.511719 C 105.589844 139.332031 103.652344 142.691406 103.652344 146.324219 L 103.652344 243.6875 C 103.652344 247.324219 105.589844 250.683594 108.746094 252.503906 L 193.039062 301.1875 C 196.1875 303.003906 200.074219 303.003906 203.21875 301.1875 L 287.496094 252.503906 C 290.636719 250.683594 292.578125 247.320312 292.578125 243.6875 L 292.578125 146.324219 C 292.578125 142.691406 290.636719 139.332031 287.476562 137.511719 L 203.210938 88.863281 C 201.632812 87.957031 199.871094 87.503906 198.109375 87.503906 C 196.351562 87.503906 194.589844 87.957031 193.007812 88.863281 " clip-rule="nonzero"/></clipPath><clipPath id="6cfbc4ed64"><path d="M 377.75 129.25 L 140.25 12.835938 L 18.476562 261.253906 L 255.96875 377.671875 Z M 377.75 129.25 " clip-rule="nonzero"/></clipPath><linearGradient x1="-0.347233" gradientTransform="matrix(-76.152204, 155.347851, -155.349911, -76.151197, 232.429259, 124.921657)" y1="0" x2="1.251869" gradientUnits="userSpaceOnUse" y2="0" id="5f30f3764a"><stop stop-opacity="1" stop-color="rgb(24.299622%, 52.49939%, 23.899841%)" offset="0"/><stop stop-opacity="1" stop-color="rgb(24.299622%, 52.49939%, 23.899841%)" offset="0.25"/><stop stop-opacity="1" stop-color="rgb(24.299622%, 52.49939%, 23.899841%)" offset="0.28125"/><stop stop-opacity="1" stop-color="rgb(24.299622%, 52.49939%, 23.899841%)" offset="0.296875"/><stop stop-opacity="1" stop-color="rgb(24.415588%, 52.565002%, 23.991394%)" offset="0.304688"/><stop stop-opacity="1" stop-color="rgb(24.708557%, 52.731323%, 24.221802%)" offset="0.3125"/><stop stop-opacity="1" stop-color="rgb(25.059509%, 52.929688%, 24.499512%)" offset="0.320313"/><stop stop-opacity="1" stop-color="rgb(25.411987%, 53.129578%, 24.777222%)" offset="0.328125"/><stop stop-opacity="1" stop-color="rgb(25.762939%, 53.327942%, 25.053406%)" offset="0.335938"/><stop stop-opacity="1" stop-color="rgb(26.113892%, 53.527832%, 25.331116%)" offset="0.34375"/><stop stop-opacity="1" stop-color="rgb(26.46637%, 53.726196%, 25.608826%)" offset="0.351563"/><stop stop-opacity="1" stop-color="rgb(26.817322%, 53.926086%, 25.886536%)" offset="0.359375"/><stop stop-opacity="1" stop-color="rgb(27.1698%, 54.125977%, 26.16272%)" offset="0.367188"/><stop stop-opacity="1" stop-color="rgb(27.520752%, 54.324341%, 26.44043%)" offset="0.375"/><stop stop-opacity="1" stop-color="rgb(27.871704%, 54.524231%, 26.71814%)" offset="0.382812"/><stop stop-opacity="1" stop-color="rgb(28.224182%, 54.722595%, 26.99585%)" offset="0.390625"/><stop stop-opacity="1" stop-color="rgb(28.575134%, 54.922485%, 27.27356%)" offset="0.398437"/><stop stop-opacity="1" stop-color="rgb(28.927612%, 55.12085%, 27.549744%)" offset="0.40625"/><stop stop-opacity="1" stop-color="rgb(29.278564%, 55.32074%, 27.827454%)" offset="0.414062"/><stop stop-opacity="1" stop-color="rgb(29.631042%, 55.52063%, 28.105164%)" offset="0.421875"/><stop stop-opacity="1" stop-color="rgb(29.981995%, 55.718994%, 28.382874%)" offset="0.429687"/><stop stop-opacity="1" stop-color="rgb(30.332947%, 55.918884%, 28.659058%)" offset="0.4375"/><stop stop-opacity="1" stop-color="rgb(30.685425%, 56.117249%, 28.936768%)" offset="0.445312"/><stop stop-opacity="1" stop-color="rgb(31.036377%, 56.317139%, 29.214478%)" offset="0.453125"/><stop stop-opacity="1" stop-color="rgb(31.388855%, 56.515503%, 29.492188%)" offset="0.460938"/><stop stop-opacity="1" stop-color="rgb(31.739807%, 56.715393%, 29.768372%)" offset="0.46875"/><stop stop-opacity="1" stop-color="rgb(32.090759%, 56.915283%, 30.046082%)" offset="0.476562"/><stop stop-opacity="1" stop-color="rgb(32.443237%, 57.113647%, 30.323792%)" offset="0.484375"/><stop stop-opacity="1" stop-color="rgb(32.794189%, 57.313538%, 30.601501%)" offset="0.492188"/><stop stop-opacity="1" stop-color="rgb(33.135986%, 57.514954%, 30.865479%)" offset="0.5"/><stop stop-opacity="1" stop-color="rgb(33.328247%, 57.749939%, 30.941772%)" offset="0.507812"/><stop stop-opacity="1" stop-color="rgb(33.380127%, 58.015442%, 30.839539%)" offset="0.515625"/><stop stop-opacity="1" stop-color="rgb(33.432007%, 58.280945%, 30.738831%)" offset="0.523438"/><stop stop-opacity="1" stop-color="rgb(33.485413%, 58.546448%, 30.636597%)" offset="0.53125"/><stop stop-opacity="1" stop-color="rgb(33.537292%, 58.811951%, 30.534363%)" offset="0.539062"/><stop stop-opacity="1" stop-color="rgb(33.589172%, 59.077454%, 30.433655%)" offset="0.546875"/><stop stop-opacity="1" stop-color="rgb(33.641052%, 59.342957%, 30.331421%)" offset="0.554688"/><stop stop-opacity="1" stop-color="rgb(33.692932%, 59.608459%, 30.230713%)" offset="0.5625"/><stop stop-opacity="1" stop-color="rgb(33.744812%, 59.873962%, 30.128479%)" offset="0.570312"/><stop stop-opacity="1" stop-color="rgb(33.796692%, 60.139465%, 30.027771%)" offset="0.578125"/><stop stop-opacity="1" stop-color="rgb(33.850098%, 60.406494%, 29.925537%)" offset="0.585938"/><stop stop-opacity="1" stop-color="rgb(33.901978%, 60.671997%, 29.824829%)" offset="0.59375"/><stop stop-opacity="1" stop-color="rgb(33.953857%, 60.9375%, 29.722595%)" offset="0.601562"/><stop stop-opacity="1" stop-color="rgb(34.005737%, 61.203003%, 29.620361%)" offset="0.609375"/><stop stop-opacity="1" stop-color="rgb(34.057617%, 61.468506%, 29.519653%)" offset="0.617188"/><stop stop-opacity="1" stop-color="rgb(34.109497%, 61.734009%, 29.417419%)" offset="0.625"/><stop stop-opacity="1" stop-color="rgb(34.161377%, 61.999512%, 29.316711%)" offset="0.632813"/><stop stop-opacity="1" stop-color="rgb(34.214783%, 62.265015%, 29.214478%)" offset="0.640625"/><stop stop-opacity="1" stop-color="rgb(34.266663%, 62.530518%, 29.11377%)" offset="0.648438"/><stop stop-opacity="1" stop-color="rgb(34.318542%, 62.796021%, 29.011536%)" offset="0.65625"/><stop stop-opacity="1" stop-color="rgb(34.370422%, 63.061523%, 28.909302%)" offset="0.664063"/><stop stop-opacity="1" stop-color="rgb(34.422302%, 63.328552%, 28.808594%)" offset="0.671875"/><stop stop-opacity="1" stop-color="rgb(34.474182%, 63.594055%, 28.70636%)" offset="0.679688"/><stop stop-opacity="1" stop-color="rgb(34.526062%, 63.859558%, 28.605652%)" offset="0.6875"/><stop stop-opacity="1" stop-color="rgb(34.577942%, 64.125061%, 28.503418%)" offset="0.695313"/><stop stop-opacity="1" stop-color="rgb(34.631348%, 64.390564%, 28.40271%)" offset="0.703125"/><stop stop-opacity="1" stop-color="rgb(34.683228%, 64.656067%, 28.300476%)" offset="0.710938"/><stop stop-opacity="1" stop-color="rgb(34.735107%, 64.92157%, 28.199768%)" offset="0.71875"/><stop stop-opacity="1" stop-color="rgb(34.786987%, 65.187073%, 28.097534%)" offset="0.726563"/><stop stop-opacity="1" stop-color="rgb(34.838867%, 65.452576%, 27.9953%)" offset="0.734375"/><stop stop-opacity="1" stop-color="rgb(34.890747%, 65.718079%, 27.894592%)" offset="0.742188"/><stop stop-opacity="1" stop-color="rgb(34.942627%, 65.983582%, 27.792358%)" offset="0.75"/><stop stop-opacity="1" stop-color="rgb(34.996033%, 66.25061%, 27.69165%)" offset="0.757812"/><stop stop-opacity="1" stop-color="rgb(35.047913%, 66.516113%, 27.589417%)" offset="0.765625"/><stop stop-opacity="1" stop-color="rgb(35.099792%, 66.781616%, 27.488708%)" offset="0.773437"/><stop stop-opacity="1" stop-color="rgb(35.151672%, 67.047119%, 27.386475%)" offset="0.78125"/><stop stop-opacity="1" stop-color="rgb(35.203552%, 67.312622%, 27.284241%)" offset="0.789062"/><stop stop-opacity="1" stop-color="rgb(35.255432%, 67.578125%, 27.183533%)" offset="0.796875"/><stop stop-opacity="1" stop-color="rgb(35.290527%, 67.755127%, 27.116394%)" offset="0.8125"/><stop stop-opacity="1" stop-color="rgb(35.299683%, 67.799377%, 27.099609%)" offset="0.875"/><stop stop-opacity="1" stop-color="rgb(35.299683%, 67.799377%, 27.099609%)" offset="1"/></linearGradient><clipPath id="9865073809"><path d="M 105 87.652344 L 290 87.652344 L 290 303 L 105 303 Z M 105 87.652344 " clip-rule="nonzero"/></clipPath><clipPath id="1fb7089bd6"><path d="M 105.742188 249.871094 C 106.546875 250.917969 107.554688 251.824219 108.742188 252.503906 L 181.042969 294.265625 L 193.085938 301.1875 C 194.886719 302.226562 196.941406 302.667969 198.957031 302.515625 C 199.628906 302.460938 200.300781 302.335938 200.957031 302.152344 L 289.851562 139.386719 C 289.171875 138.644531 288.375 138.023438 287.484375 137.503906 L 232.292969 105.636719 L 203.121094 88.851562 C 202.292969 88.371094 201.394531 88.03125 200.480469 87.789062 Z M 105.742188 249.871094 " clip-rule="nonzero"/></clipPath><clipPath id="4462090c36"><path d="M 3.054688 163.683594 L 170.753906 390.652344 L 392.539062 226.792969 L 224.832031 -0.171875 Z M 3.054688 163.683594 " clip-rule="nonzero"/></clipPath><linearGradient x1="-0.456148" gradientTransform="matrix(213.674205, -157.877773, 157.879864, 213.671385, 185.34537, 206.475215)" y1="0" x2="0.581849" gradientUnits="userSpaceOnUse" y2="0" id="4536f8807a"><stop stop-opacity="1" stop-color="rgb(24.299622%, 52.49939%, 23.899841%)" offset="0"/><stop stop-opacity="1" stop-color="rgb(24.299622%, 52.49939%, 23.899841%)" offset="0.5"/><stop stop-opacity="1" stop-color="rgb(24.299622%, 52.49939%, 23.899841%)" offset="0.5625"/><stop stop-opacity="1" stop-color="rgb(24.307251%, 52.502441%, 23.904419%)" offset="0.570312"/><stop stop-opacity="1" stop-color="rgb(24.67041%, 52.69165%, 24.176025%)" offset="0.574219"/><stop stop-opacity="1" stop-color="rgb(25.027466%, 52.876282%, 24.441528%)" offset="0.578125"/><stop stop-opacity="1" stop-color="rgb(25.384521%, 53.060913%, 24.707031%)" offset="0.582031"/><stop stop-opacity="1" stop-color="rgb(25.741577%, 53.24707%, 24.972534%)" offset="0.585938"/><stop stop-opacity="1" stop-color="rgb(26.098633%, 53.431702%, 25.238037%)" offset="0.589844"/><stop stop-opacity="1" stop-color="rgb(26.455688%, 53.616333%, 25.505066%)" offset="0.59375"/><stop stop-opacity="1" stop-color="rgb(26.811218%, 53.800964%, 25.770569%)" offset="0.597656"/><stop stop-opacity="1" stop-color="rgb(27.168274%, 53.985596%, 26.036072%)" offset="0.601562"/><stop stop-opacity="1" stop-color="rgb(27.52533%, 54.170227%, 26.301575%)" offset="0.605469"/><stop stop-opacity="1" stop-color="rgb(27.882385%, 54.356384%, 26.567078%)" offset="0.609375"/><stop stop-opacity="1" stop-color="rgb(28.239441%, 54.541016%, 26.832581%)" offset="0.613281"/><stop stop-opacity="1" stop-color="rgb(28.596497%, 54.725647%, 27.098083%)" offset="0.617187"/><stop stop-opacity="1" stop-color="rgb(28.952026%, 54.910278%, 27.363586%)" offset="0.621094"/><stop stop-opacity="1" stop-color="rgb(29.309082%, 55.096436%, 27.629089%)" offset="0.625"/><stop stop-opacity="1" stop-color="rgb(29.666138%, 55.281067%, 27.894592%)" offset="0.628906"/><stop stop-opacity="1" stop-color="rgb(30.023193%, 55.465698%, 28.160095%)" offset="0.632812"/><stop stop-opacity="1" stop-color="rgb(30.378723%, 55.65033%, 28.425598%)" offset="0.636719"/><stop stop-opacity="1" stop-color="rgb(30.735779%, 55.834961%, 28.692627%)" offset="0.640625"/><stop stop-opacity="1" stop-color="rgb(31.092834%, 56.019592%, 28.95813%)" offset="0.644531"/><stop stop-opacity="1" stop-color="rgb(31.44989%, 56.20575%, 29.223633%)" offset="0.648437"/><stop stop-opacity="1" stop-color="rgb(31.806946%, 56.390381%, 29.489136%)" offset="0.652344"/><stop stop-opacity="1" stop-color="rgb(32.164001%, 56.575012%, 29.754639%)" offset="0.65625"/><stop stop-opacity="1" stop-color="rgb(32.519531%, 56.759644%, 30.020142%)" offset="0.660156"/><stop stop-opacity="1" stop-color="rgb(32.876587%, 56.944275%, 30.285645%)" offset="0.664062"/><stop stop-opacity="1" stop-color="rgb(33.233643%, 57.128906%, 30.551147%)" offset="0.667969"/><stop stop-opacity="1" stop-color="rgb(33.590698%, 57.315063%, 30.81665%)" offset="0.671875"/><stop stop-opacity="1" stop-color="rgb(33.947754%, 57.499695%, 31.082153%)" offset="0.675781"/><stop stop-opacity="1" stop-color="rgb(34.30481%, 57.684326%, 31.347656%)" offset="0.679688"/><stop stop-opacity="1" stop-color="rgb(34.660339%, 57.868958%, 31.613159%)" offset="0.683594"/><stop stop-opacity="1" stop-color="rgb(35.017395%, 58.053589%, 31.878662%)" offset="0.6875"/><stop stop-opacity="1" stop-color="rgb(35.374451%, 58.23822%, 32.144165%)" offset="0.691406"/><stop stop-opacity="1" stop-color="rgb(35.731506%, 58.424377%, 32.411194%)" offset="0.695312"/><stop stop-opacity="1" stop-color="rgb(36.087036%, 58.609009%, 32.676697%)" offset="0.699219"/><stop stop-opacity="1" stop-color="rgb(36.444092%, 58.79364%, 32.9422%)" offset="0.703125"/><stop stop-opacity="1" stop-color="rgb(36.801147%, 58.978271%, 33.207703%)" offset="0.707031"/><stop stop-opacity="1" stop-color="rgb(37.158203%, 59.162903%, 33.473206%)" offset="0.710938"/><stop stop-opacity="1" stop-color="rgb(37.515259%, 59.347534%, 33.738708%)" offset="0.714844"/><stop stop-opacity="1" stop-color="rgb(37.872314%, 59.533691%, 34.004211%)" offset="0.71875"/><stop stop-opacity="1" stop-color="rgb(38.031006%, 59.657288%, 34.109497%)" offset="0.726562"/><stop stop-opacity="1" stop-color="rgb(38.305664%, 59.890747%, 34.286499%)" offset="0.734375"/><stop stop-opacity="1" stop-color="rgb(38.536072%, 60.110474%, 34.428406%)" offset="0.742188"/><stop stop-opacity="1" stop-color="rgb(38.768005%, 60.331726%, 34.571838%)" offset="0.75"/><stop stop-opacity="1" stop-color="rgb(38.999939%, 60.551453%, 34.713745%)" offset="0.757812"/><stop stop-opacity="1" stop-color="rgb(39.231873%, 60.771179%, 34.855652%)" offset="0.765625"/><stop stop-opacity="1" stop-color="rgb(39.46228%, 60.992432%, 34.997559%)" offset="0.773438"/><stop stop-opacity="1" stop-color="rgb(39.694214%, 61.212158%, 35.140991%)" offset="0.78125"/><stop stop-opacity="1" stop-color="rgb(39.926147%, 61.433411%, 35.282898%)" offset="0.789062"/><stop stop-opacity="1" stop-color="rgb(40.158081%, 61.653137%, 35.424805%)" offset="0.796875"/><stop stop-opacity="1" stop-color="rgb(40.390015%, 61.87439%, 35.566711%)" offset="0.804688"/><stop stop-opacity="1" stop-color="rgb(40.620422%, 62.094116%, 35.710144%)" offset="0.8125"/><stop stop-opacity="1" stop-color="rgb(40.852356%, 62.315369%, 35.852051%)" offset="0.820312"/><stop stop-opacity="1" stop-color="rgb(41.08429%, 62.535095%, 35.993958%)" offset="0.828125"/><stop stop-opacity="1" stop-color="rgb(41.316223%, 62.756348%, 36.135864%)" offset="0.835938"/><stop stop-opacity="1" stop-color="rgb(41.546631%, 62.976074%, 36.279297%)" offset="0.84375"/><stop stop-opacity="1" stop-color="rgb(41.778564%, 63.195801%, 36.421204%)" offset="0.851562"/><stop stop-opacity="1" stop-color="rgb(42.010498%, 63.417053%, 36.56311%)" offset="0.859375"/><stop stop-opacity="1" stop-color="rgb(42.242432%, 63.63678%, 36.706543%)" offset="0.867187"/><stop stop-opacity="1" stop-color="rgb(42.474365%, 63.858032%, 36.84845%)" offset="0.875"/><stop stop-opacity="1" stop-color="rgb(42.704773%, 64.077759%, 36.990356%)" offset="0.882812"/><stop stop-opacity="1" stop-color="rgb(42.936707%, 64.299011%, 37.132263%)" offset="0.890625"/><stop stop-opacity="1" stop-color="rgb(43.16864%, 64.518738%, 37.275696%)" offset="0.898438"/><stop stop-opacity="1" stop-color="rgb(43.400574%, 64.73999%, 37.417603%)" offset="0.90625"/><stop stop-opacity="1" stop-color="rgb(43.630981%, 64.959717%, 37.559509%)" offset="0.914062"/><stop stop-opacity="1" stop-color="rgb(43.862915%, 65.180969%, 37.701416%)" offset="0.921875"/><stop stop-opacity="1" stop-color="rgb(44.094849%, 65.400696%, 37.844849%)" offset="0.929688"/><stop stop-opacity="1" stop-color="rgb(44.326782%, 65.620422%, 37.986755%)" offset="0.9375"/><stop stop-opacity="1" stop-color="rgb(44.55719%, 65.841675%, 38.128662%)" offset="0.945312"/><stop stop-opacity="1" stop-color="rgb(44.789124%, 66.061401%, 38.270569%)" offset="0.953125"/><stop stop-opacity="1" stop-color="rgb(45.021057%, 66.282654%, 38.414001%)" offset="0.960938"/><stop stop-opacity="1" stop-color="rgb(45.252991%, 66.50238%, 38.555908%)" offset="0.96875"/><stop stop-opacity="1" stop-color="rgb(45.484924%, 66.723633%, 38.697815%)" offset="0.976562"/><stop stop-opacity="1" stop-color="rgb(45.715332%, 66.943359%, 38.839722%)" offset="0.984375"/><stop stop-opacity="1" stop-color="rgb(45.947266%, 67.164612%, 38.983154%)" offset="0.992188"/><stop stop-opacity="1" stop-color="rgb(46.179199%, 67.384338%, 39.125061%)" offset="1"/></linearGradient><clipPath id="8faa18d473"><path d="M 108.988281 87.519531 L 292.40625 87.519531 L 292.40625 302.441406 L 108.988281 302.441406 Z M 108.988281 87.519531 " clip-rule="nonzero"/></clipPath><clipPath id="bd3c1943fa"><path d="M 197.105469 87.558594 C 195.691406 87.699219 194.308594 88.136719 193.03125 88.863281 L 108.988281 137.371094 L 199.613281 302.4375 C 200.875 302.257812 202.117188 301.835938 203.234375 301.1875 L 287.519531 252.503906 C 290.121094 250.996094 291.902344 248.441406 292.441406 245.546875 L 200.054688 87.722656 C 199.375 87.589844 198.695312 87.519531 197.996094 87.519531 C 197.714844 87.519531 197.433594 87.535156 197.15625 87.558594 " clip-rule="nonzero"/></clipPath><linearGradient x1="0.0426926" gradientTransform="matrix(194.891275, 0, 0, 194.888695, 100.668032, 194.986505)" y1="0" x2="0.983822" gradientUnits="userSpaceOnUse" y2="0" id="adcdaf4dfb"><stop stop-opacity="1" stop-color="rgb(41.999817%, 74.899292%, 27.799988%)" offset="0"/><stop stop-opacity="1" stop-color="rgb(41.999817%, 74.899292%, 27.799988%)" offset="0.125"/><stop stop-opacity="1" stop-color="rgb(41.999817%, 74.899292%, 27.799988%)" offset="0.15625"/><stop stop-opacity="1" stop-color="rgb(42.045593%, 74.862671%, 27.886963%)" offset="0.164062"/><stop stop-opacity="1" stop-color="rgb(42.190552%, 74.749756%, 28.153992%)" offset="0.171875"/><stop stop-opacity="1" stop-color="rgb(42.385864%, 74.597168%, 28.517151%)" offset="0.179688"/><stop stop-opacity="1" stop-color="rgb(42.581177%, 74.44458%, 28.878784%)" offset="0.1875"/><stop stop-opacity="1" stop-color="rgb(42.776489%, 74.290466%, 29.240417%)" offset="0.195312"/><stop stop-opacity="1" stop-color="rgb(42.971802%, 74.137878%, 29.603577%)" offset="0.203125"/><stop stop-opacity="1" stop-color="rgb(43.167114%, 73.985291%, 29.96521%)" offset="0.210938"/><stop stop-opacity="1" stop-color="rgb(43.362427%, 73.832703%, 30.328369%)" offset="0.21875"/><stop stop-opacity="1" stop-color="rgb(43.557739%, 73.680115%, 30.690002%)" offset="0.226562"/><stop stop-opacity="1" stop-color="rgb(43.753052%, 73.527527%, 31.051636%)" offset="0.234375"/><stop stop-opacity="1" stop-color="rgb(43.948364%, 73.374939%, 31.414795%)" offset="0.242188"/><stop stop-opacity="1" stop-color="rgb(44.143677%, 73.222351%, 31.776428%)" offset="0.25"/><stop stop-opacity="1" stop-color="rgb(44.338989%, 73.069763%, 32.139587%)" offset="0.257812"/><stop stop-opacity="1" stop-color="rgb(44.534302%, 72.917175%, 32.501221%)" offset="0.265625"/><stop stop-opacity="1" stop-color="rgb(44.729614%, 72.764587%, 32.86438%)" offset="0.273438"/><stop stop-opacity="1" stop-color="rgb(44.924927%, 72.612%, 33.226013%)" offset="0.28125"/><stop stop-opacity="1" stop-color="rgb(45.120239%, 72.457886%, 33.587646%)" offset="0.289062"/><stop stop-opacity="1" stop-color="rgb(45.315552%, 72.305298%, 33.950806%)" offset="0.296875"/><stop stop-opacity="1" stop-color="rgb(45.510864%, 72.15271%, 34.312439%)" offset="0.304688"/><stop stop-opacity="1" stop-color="rgb(45.707703%, 72.000122%, 34.675598%)" offset="0.3125"/><stop stop-opacity="1" stop-color="rgb(45.903015%, 71.847534%, 35.037231%)" offset="0.320313"/><stop stop-opacity="1" stop-color="rgb(46.098328%, 71.694946%, 35.398865%)" offset="0.328125"/><stop stop-opacity="1" stop-color="rgb(46.29364%, 71.542358%, 35.762024%)" offset="0.335938"/><stop stop-opacity="1" stop-color="rgb(46.488953%, 71.389771%, 36.123657%)" offset="0.34375"/><stop stop-opacity="1" stop-color="rgb(46.684265%, 71.237183%, 36.486816%)" offset="0.351562"/><stop stop-opacity="1" stop-color="rgb(46.879578%, 71.084595%, 36.84845%)" offset="0.359375"/><stop stop-opacity="1" stop-color="rgb(47.07489%, 70.932007%, 37.210083%)" offset="0.367188"/><stop stop-opacity="1" stop-color="rgb(47.270203%, 70.777893%, 37.573242%)" offset="0.375"/><stop stop-opacity="1" stop-color="rgb(47.410583%, 70.606995%, 37.893677%)" offset="0.382812"/><stop stop-opacity="1" stop-color="rgb(47.384644%, 70.376587%, 38.084412%)" offset="0.390625"/><stop stop-opacity="1" stop-color="rgb(47.244263%, 70.108032%, 38.189697%)" offset="0.398438"/><stop stop-opacity="1" stop-color="rgb(47.105408%, 69.837952%, 38.293457%)" offset="0.40625"/><stop stop-opacity="1" stop-color="rgb(46.966553%, 69.569397%, 38.397217%)" offset="0.414062"/><stop stop-opacity="1" stop-color="rgb(46.827698%, 69.300842%, 38.500977%)" offset="0.421875"/><stop stop-opacity="1" stop-color="rgb(46.688843%, 69.030762%, 38.606262%)" offset="0.429688"/><stop stop-opacity="1" stop-color="rgb(46.549988%, 68.762207%, 38.710022%)" offset="0.4375"/><stop stop-opacity="1" stop-color="rgb(46.411133%, 68.493652%, 38.813782%)" offset="0.445312"/><stop stop-opacity="1" stop-color="rgb(46.272278%, 68.223572%, 38.919067%)" offset="0.453125"/><stop stop-opacity="1" stop-color="rgb(46.133423%, 67.955017%, 39.022827%)" offset="0.460938"/><stop stop-opacity="1" stop-color="rgb(45.994568%, 67.684937%, 39.126587%)" offset="0.46875"/><stop stop-opacity="1" stop-color="rgb(45.825195%, 67.449951%, 39.135742%)" offset="0.476562"/><stop stop-opacity="1" stop-color="rgb(45.619202%, 67.254639%, 39.025879%)" offset="0.484375"/><stop stop-opacity="1" stop-color="rgb(45.405579%, 67.068481%, 38.893127%)" offset="0.492188"/><stop stop-opacity="1" stop-color="rgb(45.191956%, 66.880798%, 38.760376%)" offset="0.5"/><stop stop-opacity="1" stop-color="rgb(44.976807%, 66.694641%, 38.627625%)" offset="0.507813"/><stop stop-opacity="1" stop-color="rgb(44.763184%, 66.506958%, 38.494873%)" offset="0.515625"/><stop stop-opacity="1" stop-color="rgb(44.549561%, 66.320801%, 38.363647%)" offset="0.523438"/><stop stop-opacity="1" stop-color="rgb(44.335938%, 66.133118%, 38.230896%)" offset="0.53125"/><stop stop-opacity="1" stop-color="rgb(44.120789%, 65.94696%, 38.098145%)" offset="0.539063"/><stop stop-opacity="1" stop-color="rgb(43.907166%, 65.759277%, 37.965393%)" offset="0.546875"/><stop stop-opacity="1" stop-color="rgb(43.693542%, 65.57312%, 37.832642%)" offset="0.554688"/><stop stop-opacity="1" stop-color="rgb(43.479919%, 65.386963%, 37.69989%)" offset="0.5625"/><stop stop-opacity="1" stop-color="rgb(43.264771%, 65.19928%, 37.568665%)" offset="0.570312"/><stop stop-opacity="1" stop-color="rgb(43.051147%, 65.013123%, 37.435913%)" offset="0.578125"/><stop stop-opacity="1" stop-color="rgb(42.837524%, 64.825439%, 37.303162%)" offset="0.585938"/><stop stop-opacity="1" stop-color="rgb(42.622375%, 64.639282%, 37.17041%)" offset="0.59375"/><stop stop-opacity="1" stop-color="rgb(42.408752%, 64.451599%, 37.037659%)" offset="0.601562"/><stop stop-opacity="1" stop-color="rgb(42.195129%, 64.265442%, 36.904907%)" offset="0.609375"/><stop stop-opacity="1" stop-color="rgb(41.981506%, 64.077759%, 36.773682%)" offset="0.617188"/><stop stop-opacity="1" stop-color="rgb(41.766357%, 63.891602%, 36.64093%)" offset="0.625"/><stop stop-opacity="1" stop-color="rgb(41.552734%, 63.705444%, 36.508179%)" offset="0.632812"/><stop stop-opacity="1" stop-color="rgb(41.339111%, 63.517761%, 36.375427%)" offset="0.640625"/><stop stop-opacity="1" stop-color="rgb(41.125488%, 63.331604%, 36.242676%)" offset="0.648438"/><stop stop-opacity="1" stop-color="rgb(40.910339%, 63.143921%, 36.11145%)" offset="0.65625"/><stop stop-opacity="1" stop-color="rgb(40.696716%, 62.957764%, 35.978699%)" offset="0.664063"/><stop stop-opacity="1" stop-color="rgb(40.483093%, 62.770081%, 35.845947%)" offset="0.671875"/><stop stop-opacity="1" stop-color="rgb(40.26947%, 62.583923%, 35.713196%)" offset="0.679688"/><stop stop-opacity="1" stop-color="rgb(40.054321%, 62.39624%, 35.580444%)" offset="0.6875"/><stop stop-opacity="1" stop-color="rgb(39.840698%, 62.210083%, 35.447693%)" offset="0.695313"/><stop stop-opacity="1" stop-color="rgb(39.555359%, 61.988831%, 35.258484%)" offset="0.703125"/><stop stop-opacity="1" stop-color="rgb(39.079285%, 61.676025%, 34.912109%)" offset="0.707031"/><stop stop-opacity="1" stop-color="rgb(38.780212%, 61.489868%, 34.689331%)" offset="0.710938"/><stop stop-opacity="1" stop-color="rgb(38.48114%, 61.303711%, 34.466553%)" offset="0.714844"/><stop stop-opacity="1" stop-color="rgb(38.182068%, 61.11908%, 34.243774%)" offset="0.71875"/><stop stop-opacity="1" stop-color="rgb(37.882996%, 60.932922%, 34.020996%)" offset="0.722656"/><stop stop-opacity="1" stop-color="rgb(37.583923%, 60.748291%, 33.798218%)" offset="0.726562"/><stop stop-opacity="1" stop-color="rgb(37.284851%, 60.562134%, 33.575439%)" offset="0.730469"/><stop stop-opacity="1" stop-color="rgb(36.987305%, 60.377502%, 33.352661%)" offset="0.734375"/><stop stop-opacity="1" stop-color="rgb(36.688232%, 60.191345%, 33.129883%)" offset="0.738281"/><stop stop-opacity="1" stop-color="rgb(36.38916%, 60.006714%, 32.907104%)" offset="0.742188"/><stop stop-opacity="1" stop-color="rgb(36.090088%, 59.820557%, 32.684326%)" offset="0.746094"/><stop stop-opacity="1" stop-color="rgb(35.791016%, 59.634399%, 32.461548%)" offset="0.75"/><stop stop-opacity="1" stop-color="rgb(35.491943%, 59.448242%, 32.23877%)" offset="0.753906"/><stop stop-opacity="1" stop-color="rgb(35.192871%, 59.263611%, 32.015991%)" offset="0.757812"/><stop stop-opacity="1" stop-color="rgb(34.893799%, 59.077454%, 31.793213%)" offset="0.761719"/><stop stop-opacity="1" stop-color="rgb(34.596252%, 58.892822%, 31.57196%)" offset="0.765625"/><stop stop-opacity="1" stop-color="rgb(34.29718%, 58.706665%, 31.349182%)" offset="0.769531"/><stop stop-opacity="1" stop-color="rgb(33.998108%, 58.522034%, 31.126404%)" offset="0.773438"/><stop stop-opacity="1" stop-color="rgb(33.699036%, 58.335876%, 30.903625%)" offset="0.777344"/><stop stop-opacity="1" stop-color="rgb(33.399963%, 58.149719%, 30.680847%)" offset="0.78125"/><stop stop-opacity="1" stop-color="rgb(33.100891%, 57.963562%, 30.458069%)" offset="0.785156"/><stop stop-opacity="1" stop-color="rgb(32.803345%, 57.778931%, 30.235291%)" offset="0.789062"/><stop stop-opacity="1" stop-color="rgb(32.504272%, 57.592773%, 30.012512%)" offset="0.792969"/><stop stop-opacity="1" stop-color="rgb(32.2052%, 57.408142%, 29.789734%)" offset="0.796875"/><stop stop-opacity="1" stop-color="rgb(31.906128%, 57.221985%, 29.566956%)" offset="0.800781"/><stop stop-opacity="1" stop-color="rgb(31.607056%, 57.037354%, 29.344177%)" offset="0.804688"/><stop stop-opacity="1" stop-color="rgb(31.307983%, 56.851196%, 29.121399%)" offset="0.808594"/><stop stop-opacity="1" stop-color="rgb(31.008911%, 56.665039%, 28.898621%)" offset="0.8125"/><stop stop-opacity="1" stop-color="rgb(30.709839%, 56.478882%, 28.675842%)" offset="0.816406"/><stop stop-opacity="1" stop-color="rgb(30.412292%, 56.29425%, 28.453064%)" offset="0.820313"/><stop stop-opacity="1" stop-color="rgb(30.11322%, 56.108093%, 28.230286%)" offset="0.824219"/><stop stop-opacity="1" stop-color="rgb(29.814148%, 55.923462%, 28.007507%)" offset="0.828125"/><stop stop-opacity="1" stop-color="rgb(29.515076%, 55.737305%, 27.784729%)" offset="0.832031"/><stop stop-opacity="1" stop-color="rgb(29.216003%, 55.552673%, 27.563477%)" offset="0.835938"/><stop stop-opacity="1" stop-color="rgb(28.916931%, 55.366516%, 27.340698%)" offset="0.839844"/><stop stop-opacity="1" stop-color="rgb(28.617859%, 55.180359%, 27.11792%)" offset="0.84375"/><stop stop-opacity="1" stop-color="rgb(28.318787%, 54.994202%, 26.895142%)" offset="0.847656"/><stop stop-opacity="1" stop-color="rgb(28.02124%, 54.80957%, 26.672363%)" offset="0.851563"/><stop stop-opacity="1" stop-color="rgb(27.722168%, 54.623413%, 26.449585%)" offset="0.855469"/><stop stop-opacity="1" stop-color="rgb(27.423096%, 54.438782%, 26.226807%)" offset="0.859375"/><stop stop-opacity="1" stop-color="rgb(27.124023%, 54.252625%, 26.004028%)" offset="0.863281"/><stop stop-opacity="1" stop-color="rgb(26.824951%, 54.067993%, 25.78125%)" offset="0.867188"/><stop stop-opacity="1" stop-color="rgb(26.525879%, 53.881836%, 25.558472%)" offset="0.871094"/><stop stop-opacity="1" stop-color="rgb(26.226807%, 53.697205%, 25.335693%)" offset="0.875"/><stop stop-opacity="1" stop-color="rgb(25.927734%, 53.511047%, 25.112915%)" offset="0.878906"/><stop stop-opacity="1" stop-color="rgb(25.630188%, 53.32489%, 24.890137%)" offset="0.882812"/><stop stop-opacity="1" stop-color="rgb(25.331116%, 53.138733%, 24.667358%)" offset="0.886719"/><stop stop-opacity="1" stop-color="rgb(25.032043%, 52.954102%, 24.44458%)" offset="0.890625"/><stop stop-opacity="1" stop-color="rgb(24.732971%, 52.767944%, 24.221802%)" offset="0.894531"/><stop stop-opacity="1" stop-color="rgb(24.433899%, 52.583313%, 24.000549%)" offset="0.898438"/><stop stop-opacity="1" stop-color="rgb(24.36676%, 52.540588%, 23.950195%)" offset="0.90625"/><stop stop-opacity="1" stop-color="rgb(24.299622%, 52.49939%, 23.899841%)" offset="0.9375"/><stop stop-opacity="1" stop-color="rgb(24.299622%, 52.49939%, 23.899841%)" offset="1"/></linearGradient><clipPath id="e082eef3da"><path d="M 0 55.269531 L 86.996094 55.269531 L 86.996094 294 L 0 294 Z M 0 55.269531 " clip-rule="nonzero"/></clipPath><clipPath id="8c59b75d32"><path d="M 328.871094 58.441406 L 375 58.441406 L 375 297.210938 L 328.871094 297.210938 Z M 328.871094 58.441406 " clip-rule="nonzero"/></clipPath><clipPath id="95c8d113b3"><path d="M 181.675781 313.867188 L 375 313.867188 L 375 375 L 181.675781 375 Z M 181.675781 313.867188 " clip-rule="nonzero"/></clipPath><clipPath id="d9c54033c5"><path d="M 231 156 L 375 156 L 375 375 L 231 375 Z M 231 156 " clip-rule="nonzero"/></clipPath><clipPath id="59462b81b5"><path d="M 392.578125 156.894531 L 475.675781 232.734375 L 314.714844 409.09375 L 231.617188 333.253906 Z M 392.578125 156.894531 " clip-rule="nonzero"/></clipPath></defs><rect x="-37.5" width="450" fill="#ffffff" y="-37.499999" height="449.999989" fill-opacity="1"/><rect x="-37.5" width="450" fill="#ecedee" y="-37.499999" height="449.999989" fill-opacity="1"/><path fill="#689f63" d="M 308.910156 505.660156 C 305.992188 505.660156 303.089844 504.894531 300.527344 503.421875 L 273.847656 487.625 C 269.863281 485.394531 271.804688 484.609375 273.121094 484.152344 C 278.433594 482.292969 279.511719 481.871094 285.183594 478.652344 C 285.78125 478.3125 286.5625 478.433594 287.171875 478.792969 L 307.667969 490.957031 C 308.410156 491.355469 309.460938 491.355469 310.144531 490.957031 L 390.070312 444.824219 C 390.808594 444.402344 391.289062 443.542969 391.289062 442.660156 L 391.289062 350.4375 C 391.289062 349.515625 390.808594 348.695312 390.054688 348.234375 L 310.160156 302.144531 C 309.421875 301.703125 308.441406 301.703125 307.699219 302.144531 L 227.824219 348.234375 C 227.050781 348.675781 226.558594 349.535156 226.558594 350.417969 L 226.558594 442.640625 C 226.558594 443.523438 227.039062 444.363281 227.800781 444.78125 L 249.6875 457.425781 C 261.570312 463.367188 268.832031 456.367188 268.832031 449.324219 L 268.832031 358.296875 C 268.832031 357 269.851562 355.996094 271.152344 355.996094 L 281.273438 355.996094 C 282.535156 355.996094 283.574219 357 283.574219 358.296875 L 283.574219 449.363281 C 283.574219 465.207031 274.933594 474.3125 259.910156 474.3125 C 255.289062 474.3125 251.644531 474.3125 241.484375 469.308594 L 220.515625 457.226562 C 215.335938 454.226562 212.132812 448.625 212.132812 442.640625 L 212.132812 350.417969 C 212.132812 344.414062 215.335938 338.8125 220.515625 335.851562 L 300.519531 289.699219 C 305.582031 286.839844 312.304688 286.839844 317.324219 289.699219 L 397.230469 335.871094 C 402.390625 338.851562 405.613281 344.433594 405.613281 350.4375 L 405.613281 442.660156 C 405.613281 448.644531 402.390625 454.226562 397.230469 457.226562 L 317.324219 503.378906 C 314.765625 504.859375 311.863281 505.621094 308.902344 505.621094 " fill-opacity="1" fill-rule="nonzero"/><path fill="#689f63" d="M 333.597656 442.113281 C 298.628906 442.113281 291.296875 426.058594 291.296875 412.59375 C 291.296875 411.316406 292.328125 410.296875 293.609375 410.296875 L 303.933594 410.296875 C 305.074219 410.296875 306.035156 411.125 306.214844 412.25 C 307.773438 422.769531 312.417969 428.074219 333.5625 428.074219 C 350.40625 428.074219 357.570312 424.269531 357.570312 415.339844 C 357.570312 410.195312 355.527344 406.375 329.359375 403.816406 C 307.476562 401.65625 293.949219 396.832031 293.949219 379.328125 C 293.949219 363.203125 307.554688 353.601562 330.339844 353.601562 C 355.929688 353.601562 368.613281 362.484375 370.214844 381.570312 C 370.273438 382.230469 370.03125 382.871094 369.59375 383.347656 C 369.152344 383.808594 368.53125 384.089844 367.890625 384.089844 L 357.507812 384.089844 C 356.429688 384.089844 355.488281 383.328125 355.269531 382.289062 C 352.769531 371.226562 346.726562 367.683594 330.300781 367.683594 C 311.917969 367.683594 309.777344 374.085938 309.777344 378.886719 C 309.777344 384.710938 312.296875 386.410156 337.101562 389.691406 C 361.671875 392.953125 373.335938 397.554688 373.335938 414.816406 C 373.335938 432.222656 358.808594 442.207031 333.484375 442.207031 M 430.832031 344.398438 L 433.511719 344.398438 C 435.710938 344.398438 436.132812 342.859375 436.132812 341.957031 C 436.132812 339.597656 434.511719 339.597656 433.613281 339.597656 L 430.851562 339.597656 Z M 427.570312 336.835938 L 433.511719 336.835938 C 435.550781 336.835938 439.554688 336.835938 439.554688 341.398438 C 439.554688 344.578125 437.511719 345.238281 436.292969 345.640625 C 438.671875 345.800781 438.832031 347.359375 439.152344 349.558594 C 439.3125 350.941406 439.574219 353.320312 440.054688 354.121094 L 436.394531 354.121094 C 436.292969 353.320312 435.734375 348.917969 435.734375 348.679688 C 435.492188 347.699219 435.152344 347.21875 433.933594 347.21875 L 430.910156 347.21875 L 430.910156 354.140625 L 427.570312 354.140625 Z M 420.429688 345.4375 C 420.429688 352.601562 426.210938 358.402344 433.3125 358.402344 C 440.472656 358.402344 446.253906 352.480469 446.253906 345.4375 C 446.253906 338.257812 440.394531 332.554688 433.292969 332.554688 C 426.289062 332.554688 420.40625 338.175781 420.40625 345.417969 M 448.734375 345.480469 C 448.734375 353.960938 441.792969 360.882812 433.332031 360.882812 C 424.929688 360.882812 417.925781 354.042969 417.925781 345.480469 C 417.925781 336.757812 425.089844 330.074219 433.332031 330.074219 C 441.632812 330.074219 448.714844 336.777344 448.714844 345.480469 " fill-opacity="1" fill-rule="nonzero"/><path fill="#333333" d="M 61.417969 144.800781 C 61.417969 141.121094 59.476562 137.738281 56.300781 135.90625 L -28.4375 87.152344 C -29.867188 86.3125 -31.472656 85.875 -33.09375 85.8125 L -33.972656 85.8125 C -35.597656 85.875 -37.199219 86.3125 -38.652344 87.152344 L -123.386719 135.90625 C -126.542969 137.75 -128.511719 141.128906 -128.511719 144.808594 L -128.324219 276.128906 C -128.324219 277.949219 -127.386719 279.648438 -125.785156 280.546875 C -124.222656 281.507812 -122.261719 281.507812 -120.703125 280.546875 L -70.328125 251.699219 C -67.148438 249.808594 -65.207031 246.464844 -65.207031 242.816406 L -65.207031 181.472656 C -65.207031 177.808594 -63.265625 174.429688 -60.09375 172.609375 L -38.648438 160.257812 C -37.054688 159.335938 -35.308594 158.878906 -33.527344 158.878906 C -31.773438 158.878906 -29.988281 159.332031 -28.4375 160.253906 L -7 172.601562 C -3.828125 174.421875 -1.878906 177.804688 -1.878906 181.464844 L -1.878906 242.808594 C -1.878906 246.449219 0.0859375 249.808594 3.25 251.691406 L 53.59375 280.519531 C 55.175781 281.457031 57.140625 281.457031 58.714844 280.519531 C 60.269531 279.617188 61.253906 277.917969 61.253906 276.097656 Z M 461.269531 213.171875 C 461.269531 214.085938 460.785156 214.933594 459.988281 215.382812 L 430.886719 232.160156 C 430.09375 232.613281 429.117188 232.613281 428.332031 232.160156 L 399.222656 215.382812 C 398.421875 214.929688 397.941406 214.082031 397.941406 213.171875 L 397.941406 179.570312 C 397.941406 178.652344 398.421875 177.808594 399.203125 177.347656 L 428.289062 160.542969 C 429.089844 160.085938 430.070312 160.085938 430.871094 160.542969 L 459.980469 177.347656 C 460.78125 177.808594 461.261719 178.652344 461.261719 179.570312 Z M 469.132812 -35.703125 C 467.542969 -36.585938 465.609375 -36.5625 464.042969 -35.648438 C 462.480469 -34.726562 461.519531 -33.046875 461.519531 -31.226562 L 461.519531 98.808594 C 461.519531 100.089844 460.835938 101.269531 459.730469 101.910156 C 458.628906 102.550781 457.257812 102.550781 456.148438 101.910156 L 434.921875 89.683594 C 431.761719 87.855469 427.867188 87.855469 424.695312 89.683594 L 339.929688 138.605469 C 336.761719 140.425781 334.808594 143.804688 334.808594 147.445312 L 334.808594 245.316406 C 334.808594 248.976562 336.761719 252.335938 339.929688 254.175781 L 424.695312 303.128906 C 427.859375 304.953125 431.757812 304.953125 434.933594 303.128906 L 519.695312 254.15625 C 522.859375 252.316406 524.820312 248.957031 524.820312 245.292969 L 524.820312 1.386719 C 524.820312 -2.328125 522.796875 -5.742188 519.558594 -7.554688 Z M 751.402344 178.6875 C 754.550781 176.859375 756.488281 173.480469 756.488281 169.839844 L 756.488281 146.121094 C 756.488281 142.472656 754.546875 139.105469 751.394531 137.269531 L 667.167969 88.375 C 663.988281 86.535156 660.085938 86.535156 656.90625 88.375 L 572.160156 137.289062 C 568.980469 139.128906 567.039062 142.488281 567.039062 146.152344 L 567.039062 243.976562 C 567.039062 247.660156 569.019531 251.058594 572.199219 252.878906 L 656.40625 300.875 C 659.507812 302.65625 663.308594 302.675781 666.449219 300.933594 L 717.382812 272.625 C 718.984375 271.726562 720.003906 270.027344 720.003906 268.183594 C 720.003906 266.34375 719.023438 264.625 717.421875 263.722656 L 632.15625 214.789062 C 630.558594 213.890625 629.578125 212.1875 629.578125 210.367188 L 629.578125 179.679688 C 629.578125 177.847656 630.539062 176.160156 632.136719 175.246094 L 658.664062 159.941406 C 660.246094 159.023438 662.1875 159.023438 663.765625 159.941406 L 690.316406 175.246094 C 691.894531 176.148438 692.875 177.847656 692.875 179.667969 L 692.875 203.796875 C 692.875 205.617188 693.855469 207.316406 695.4375 208.234375 C 697.015625 209.136719 698.976562 209.136719 700.558594 208.214844 Z M 751.402344 178.6875 " fill-opacity="1" fill-rule="evenodd"/><g clip-path="url(#f1334a07a6)"><g clip-path="url(#dab60b1e49)"><g clip-path="url(#6cfbc4ed64)"><path fill="url(#5f30f3764a)" d="M 377.75 129.253906 L 140.253906 12.835938 L 18.480469 261.25 L 255.976562 377.671875 Z M 377.75 129.253906 " fill-rule="nonzero"/></g></g></g><g clip-path="url(#9865073809)"><g clip-path="url(#1fb7089bd6)"><g clip-path="url(#4462090c36)"><path fill="url(#4536f8807a)" d="M 3.039062 163.671875 L 170.757812 390.660156 L 392.550781 226.785156 L 224.832031 -0.203125 Z M 3.039062 163.671875 " fill-rule="nonzero"/></g></g></g><g clip-path="url(#8faa18d473)"><g clip-path="url(#bd3c1943fa)"><path fill="url(#adcdaf4dfb)" d="M 108.988281 87.519531 L 108.988281 302.4375 L 292.40625 302.4375 L 292.40625 87.519531 Z M 108.988281 87.519531 " fill-rule="nonzero"/></g></g><g clip-path="url(#e082eef3da)"><path fill="#ecedee" d="M -25.503906 55.269531 L 86.996094 55.269531 L 86.996094 293.890625 L -25.503906 293.890625 Z M -25.503906 55.269531 " fill-opacity="1" fill-rule="nonzero"/></g><g clip-path="url(#8c59b75d32)"><path fill="#ecedee" d="M 328.871094 58.441406 L 441.371094 58.441406 L 441.371094 297.0625 L 328.871094 297.0625 Z M 328.871094 58.441406 " fill-opacity="1" fill-rule="nonzero"/></g><g clip-path="url(#95c8d113b3)"><path fill="#ecedee" d="M 181.675781 515.800781 L 181.675781 313.867188 L 420.679688 313.867188 L 420.679688 515.800781 Z M 181.675781 515.800781 " fill-opacity="1" fill-rule="nonzero"/></g><g clip-path="url(#d9c54033c5)"><g clip-path="url(#59462b81b5)"><path fill="#ecedee" d="M 392.578125 156.894531 L 475.675781 232.734375 L 314.8125 408.984375 L 231.71875 333.144531 Z M 392.578125 156.894531 " fill-opacity="1" fill-rule="nonzero"/></g></g></svg>