<svg xmlns="http://www.w3.org/2000/svg" xmlns:xlink="http://www.w3.org/1999/xlink" width="500" zoomAndPan="magnify" viewBox="0 0 375 374.999991" height="500" preserveAspectRatio="xMidYMid meet" version="1.0"><defs><clipPath id="668dd4f9d8"><path d="M 58.238281 79 L 316.988281 79 L 316.988281 297 L 58.238281 297 Z M 58.238281 79 " clip-rule="nonzero"/></clipPath><clipPath id="3f3372baac"><path d="M 58.238281 75.160156 L 316.988281 75.160156 L 316.988281 300.160156 L 58.238281 300.160156 Z M 58.238281 75.160156 " clip-rule="nonzero"/></clipPath></defs><rect x="-37.5" width="450" fill="#ffffff" y="-37.499999" height="449.999989" fill-opacity="1"/><rect x="-37.5" width="450" fill="#ecedee" y="-37.499999" height="449.999989" fill-opacity="1"/><path fill="#61dafb" d="M 210.140625 187.664062 C 210.140625 188.402344 210.105469 189.136719 210.03125 189.875 C 209.960938 190.609375 209.851562 191.335938 209.707031 192.0625 C 209.5625 192.785156 209.382812 193.5 209.167969 194.207031 C 208.957031 194.914062 208.707031 195.609375 208.425781 196.289062 C 208.144531 196.972656 207.828125 197.636719 207.480469 198.289062 C 207.132812 198.941406 206.753906 199.574219 206.34375 200.1875 C 205.933594 200.800781 205.496094 201.394531 205.027344 201.964844 C 204.558594 202.535156 204.0625 203.082031 203.542969 203.601562 C 203.019531 204.125 202.472656 204.621094 201.902344 205.089844 C 201.332031 205.554688 200.742188 205.996094 200.128906 206.40625 C 199.515625 206.816406 198.882812 207.195312 198.230469 207.542969 C 197.582031 207.890625 196.914062 208.207031 196.234375 208.488281 C 195.550781 208.769531 194.855469 209.019531 194.152344 209.234375 C 193.445312 209.449219 192.730469 209.628906 192.007812 209.773438 C 191.28125 209.914062 190.554688 210.023438 189.820312 210.097656 C 189.085938 210.167969 188.347656 210.203125 187.613281 210.203125 C 186.875 210.203125 186.136719 210.167969 185.402344 210.097656 C 184.667969 210.023438 183.941406 209.914062 183.214844 209.773438 C 182.492188 209.628906 181.777344 209.449219 181.070312 209.234375 C 180.367188 209.019531 179.671875 208.769531 178.992188 208.488281 C 178.308594 208.207031 177.644531 207.890625 176.992188 207.542969 C 176.339844 207.195312 175.710938 206.816406 175.097656 206.40625 C 174.480469 205.996094 173.890625 205.554688 173.320312 205.089844 C 172.75 204.621094 172.203125 204.125 171.683594 203.601562 C 171.160156 203.082031 170.664062 202.535156 170.195312 201.964844 C 169.730469 201.394531 169.289062 200.800781 168.878906 200.1875 C 168.46875 199.574219 168.089844 198.941406 167.742188 198.289062 C 167.394531 197.636719 167.082031 196.972656 166.796875 196.289062 C 166.515625 195.609375 166.269531 194.914062 166.054688 194.207031 C 165.839844 193.5 165.660156 192.785156 165.515625 192.0625 C 165.371094 191.335938 165.265625 190.609375 165.191406 189.875 C 165.121094 189.136719 165.082031 188.402344 165.082031 187.664062 C 165.082031 186.925781 165.121094 186.1875 165.191406 185.453125 C 165.265625 184.71875 165.371094 183.992188 165.515625 183.265625 C 165.660156 182.542969 165.839844 181.828125 166.054688 181.121094 C 166.269531 180.414062 166.515625 179.71875 166.796875 179.039062 C 167.082031 178.355469 167.394531 177.6875 167.742188 177.039062 C 168.089844 176.386719 168.46875 175.753906 168.878906 175.140625 C 169.289062 174.527344 169.730469 173.933594 170.195312 173.363281 C 170.664062 172.792969 171.160156 172.246094 171.683594 171.726562 C 172.203125 171.203125 172.75 170.707031 173.320312 170.238281 C 173.890625 169.769531 174.480469 169.332031 175.097656 168.921875 C 175.710938 168.511719 176.339844 168.132812 176.992188 167.785156 C 177.644531 167.4375 178.308594 167.121094 178.992188 166.839844 C 179.671875 166.554688 180.367188 166.308594 181.070312 166.09375 C 181.777344 165.878906 182.492188 165.699219 183.214844 165.554688 C 183.941406 165.414062 184.667969 165.304688 185.402344 165.230469 C 186.136719 165.160156 186.875 165.125 187.613281 165.125 C 188.347656 165.125 189.085938 165.160156 189.820312 165.230469 C 190.554688 165.304688 191.28125 165.414062 192.007812 165.554688 C 192.730469 165.699219 193.445312 165.878906 194.152344 166.09375 C 194.855469 166.308594 195.550781 166.554688 196.234375 166.839844 C 196.914062 167.121094 197.582031 167.4375 198.230469 167.785156 C 198.882812 168.132812 199.515625 168.511719 200.128906 168.921875 C 200.742188 169.332031 201.332031 169.769531 201.902344 170.238281 C 202.472656 170.707031 203.019531 171.203125 203.542969 171.726562 C 204.0625 172.246094 204.558594 172.792969 205.027344 173.363281 C 205.496094 173.933594 205.933594 174.527344 206.34375 175.140625 C 206.753906 175.753906 207.132812 176.386719 207.480469 177.039062 C 207.828125 177.6875 208.144531 178.355469 208.425781 179.039062 C 208.707031 179.71875 208.957031 180.414062 209.167969 181.121094 C 209.382812 181.828125 209.5625 182.542969 209.707031 183.265625 C 209.851562 183.992188 209.960938 184.71875 210.03125 185.453125 C 210.105469 186.1875 210.140625 186.925781 210.140625 187.664062 Z M 210.140625 187.664062 " fill-opacity="1" fill-rule="nonzero"/><g clip-path="url(#668dd4f9d8)"><path stroke-linecap="butt" transform="matrix(10.989373, 0, 0, 10.995455, 187.611731, 187.663977)" fill="none" stroke-linejoin="miter" d="M 11.000114 0.00000775077 C 11.000114 0.068573 10.995493 0.137494 10.986607 0.206059 C 10.978076 0.274624 10.964568 0.343189 10.947151 0.411755 C 10.929378 0.479965 10.90734 0.548175 10.881036 0.616385 C 10.854377 0.684239 10.823807 0.752094 10.788617 0.819238 C 10.753427 0.886738 10.713971 0.953882 10.67025 1.020671 C 10.626529 1.087105 10.578542 1.153538 10.52629 1.219261 C 10.474038 1.284985 10.41752 1.350353 10.357092 1.41501 C 10.296309 1.479667 10.231616 1.543614 10.162657 1.607206 C 10.093699 1.670797 10.02083 1.733679 9.944051 1.795849 C 9.866917 1.85802 9.785873 1.919125 9.701274 1.979874 C 9.61632 2.040624 9.527456 2.100307 9.435037 2.159281 C 9.342618 2.218254 9.246289 2.276161 9.14605 2.333358 C 9.046167 2.390555 8.942373 2.446686 8.835381 2.502107 C 8.728033 2.557172 8.617486 2.611172 8.503029 2.664461 C 8.388927 2.71775 8.271271 2.769618 8.150415 2.82042 C 8.02956 2.871578 7.905505 2.921314 7.778252 2.969985 C 7.650998 3.0183 7.520545 3.065905 7.387249 3.112089 C 7.253597 3.158273 7.117457 3.203036 6.978473 3.246733 C 6.839134 3.290074 6.697307 3.33235 6.552636 3.373561 C 6.407965 3.414416 6.260806 3.45385 6.111158 3.492218 C 5.961511 3.53023 5.809375 3.567178 5.655107 3.602348 C 5.500839 3.637874 5.344082 3.671624 5.185193 3.703953 C 5.026659 3.736637 4.865992 3.767189 4.703193 3.796676 C 4.540394 3.826162 4.375817 3.853873 4.209463 3.880162 C 4.043109 3.906451 3.875334 3.931319 3.705781 3.954411 C 3.536228 3.977503 3.365253 3.999174 3.193211 4.019069 C 3.020815 4.038963 2.847352 4.057437 2.672822 4.074134 C 2.498293 4.090831 2.322697 4.105752 2.146035 4.119252 C 1.969373 4.132752 1.792 4.144476 1.613916 4.154423 C 1.435832 4.164726 1.257393 4.172897 1.078242 4.179647 C 0.899092 4.186396 0.719586 4.191725 0.539725 4.194923 C 0.359864 4.198475 0.180002 4.199896 0.000141034 4.199896 C -0.180076 4.199896 -0.359937 4.198475 -0.539798 4.194923 C -0.719659 4.191725 -0.899165 4.186396 -1.078316 4.179647 C -1.257466 4.172897 -1.435905 4.164726 -1.613989 4.154423 C -1.792073 4.144476 -1.969446 4.132752 -2.146108 4.119252 C -2.322415 4.105752 -2.498011 4.090831 -2.672896 4.074134 C -2.847425 4.057437 -3.020888 4.038963 -3.193285 4.019069 C -3.365326 3.999174 -3.536301 3.977503 -3.705854 3.954411 C -3.875407 3.931319 -4.043183 3.906451 -4.209537 3.880162 C -4.37589 3.853873 -4.540467 3.826162 -4.703266 3.796676 C -4.86571 3.767189 -5.026732 3.736637 -5.185266 3.703953 C -5.344155 3.671624 -5.500556 3.637874 -5.65518 3.602348 C -5.809449 3.567178 -5.961584 3.53023 -6.111232 3.492218 C -6.260879 3.45385 -6.408038 3.414416 -6.552709 3.373561 C -6.69738 3.33235 -6.839208 3.290074 -6.978191 3.246733 C -7.11753 3.203036 -7.25367 3.158273 -7.387322 3.112089 C -7.520619 3.065905 -7.650716 3.0183 -7.778325 2.969985 C -7.905579 2.921314 -8.029633 2.871578 -8.150489 2.82042 C -8.271344 2.769618 -8.389 2.71775 -8.503102 2.664461 C -8.617204 2.611172 -8.728106 2.557172 -8.835454 2.502107 C -8.942447 2.446686 -9.04624 2.390555 -9.146124 2.333358 C -9.246007 2.276161 -9.342336 2.218254 -9.43511 2.159281 C -9.527529 2.100307 -9.616393 2.040624 -9.700992 1.979874 C -9.785946 1.919125 -9.866991 1.85802 -9.943769 1.795849 C -10.020903 1.733679 -10.093772 1.670797 -10.162731 1.607206 C -10.231689 1.543614 -10.296383 1.479667 -10.35681 1.41501 C -10.417593 1.350353 -10.474111 1.284985 -10.526363 1.219261 C -10.578616 1.153538 -10.626602 1.087105 -10.670323 1.020671 C -10.714045 0.953882 -10.7535 0.886738 -10.788691 0.819238 C -10.823881 0.752094 -10.85445 0.684239 -10.881109 0.616385 C -10.907413 0.548175 -10.929452 0.479965 -10.946869 0.411755 C -10.964642 0.343189 -10.977794 0.274624 -10.98668 0.206059 C -10.995567 0.137494 -10.999832 0.068573 -10.999832 0.00000775077 C -10.999832 -0.0689128 -10.995567 -0.137478 -10.98668 -0.206043 C -10.977794 -0.274609 -10.964642 -0.343174 -10.946869 -0.411739 C -10.929452 -0.479949 -10.907413 -0.548159 -10.881109 -0.616369 C -10.85445 -0.684224 -10.823881 -0.752079 -10.788691 -0.819223 C -10.7535 -0.886722 -10.714045 -0.953866 -10.670323 -1.020655 C -10.626602 -1.087089 -10.578616 -1.153523 -10.526363 -1.219246 C -10.474111 -1.284969 -10.417593 -1.350337 -10.35681 -1.414994 C -10.296383 -1.479652 -10.231689 -1.543599 -10.162731 -1.60719 C -10.093772 -1.670782 -10.020903 -1.733663 -9.943769 -1.795834 C -9.866991 -1.858004 -9.785946 -1.919109 -9.700992 -1.979859 C -9.616393 -2.040608 -9.527529 -2.100292 -9.43511 -2.159265 C -9.342336 -2.218238 -9.246007 -2.276146 -9.146124 -2.333343 C -9.04624 -2.39054 -8.942447 -2.446671 -8.835454 -2.502091 C -8.728106 -2.557157 -8.617204 -2.611156 -8.503102 -2.664445 C -8.389 -2.717734 -8.271344 -2.769602 -8.150489 -2.820405 C -8.029633 -2.871562 -7.905579 -2.921299 -7.778325 -2.969969 C -7.650716 -3.018285 -7.520619 -3.06589 -7.387322 -3.112073 C -7.25367 -3.158257 -7.11753 -3.20302 -6.978191 -3.246717 C -6.839208 -3.290414 -6.69738 -3.33269 -6.552709 -3.373545 C -6.408038 -3.4144 -6.260879 -3.453834 -6.111232 -3.492202 C -5.961584 -3.530215 -5.809449 -3.567162 -5.65518 -3.602333 C -5.500556 -3.637859 -5.344155 -3.671609 -5.185266 -3.703937 C -5.026732 -3.736621 -4.86571 -3.767529 -4.703266 -3.79666 C -4.540467 -3.826147 -4.37589 -3.853857 -4.209537 -3.880146 C -4.043183 -3.906436 -3.875407 -3.931304 -3.705854 -3.954396 C -3.536301 -3.977488 -3.365326 -3.999159 -3.193285 -4.019053 C -3.020888 -4.038948 -2.847425 -4.057421 -2.672896 -4.074119 C -2.498011 -4.090816 -2.322415 -4.105737 -2.146108 -4.119237 C -1.969446 -4.132737 -1.792073 -4.14446 -1.613989 -4.154408 C -1.435905 -4.16471 -1.257466 -4.172881 -1.078316 -4.179631 C -0.899165 -4.186381 -0.719659 -4.19171 -0.539798 -4.194907 C -0.359937 -4.19846 -0.180076 -4.199881 0.000141034 -4.199881 C 0.180002 -4.199881 0.359864 -4.19846 0.539725 -4.194907 C 0.719586 -4.19171 0.899092 -4.186381 1.078242 -4.179631 C 1.257393 -4.172881 1.435832 -4.16471 1.613916 -4.154408 C 1.792 -4.14446 1.969373 -4.132737 2.146035 -4.119237 C 2.322697 -4.105737 2.498293 -4.090816 2.672822 -4.074119 C 2.847352 -4.057421 3.020815 -4.038948 3.193211 -4.019053 C 3.365253 -3.999159 3.536228 -3.977488 3.705781 -3.954396 C 3.875334 -3.931304 4.043109 -3.906436 4.209463 -3.880146 C 4.375817 -3.853857 4.540394 -3.826147 4.703193 -3.79666 C 4.865992 -3.767529 5.026659 -3.736621 5.185193 -3.703937 C 5.344082 -3.671609 5.500839 -3.637859 5.655107 -3.602333 C 5.809375 -3.567162 5.961511 -3.530215 6.111158 -3.492202 C 6.260806 -3.453834 6.407965 -3.4144 6.552636 -3.373545 C 6.697307 -3.33269 6.839134 -3.290414 6.978473 -3.246717 C 7.117457 -3.20302 7.253597 -3.158257 7.387249 -3.112073 C 7.520545 -3.06589 7.650998 -3.018285 7.778252 -2.969969 C 7.905505 -2.921299 8.02956 -2.871562 8.150415 -2.820405 C 8.271271 -2.769602 8.388927 -2.717734 8.503029 -2.664445 C 8.617486 -2.611156 8.728033 -2.557157 8.835381 -2.502091 C 8.942373 -2.446671 9.046167 -2.39054 9.14605 -2.333343 C 9.246289 -2.276146 9.342618 -2.218238 9.435037 -2.159265 C 9.527456 -2.100292 9.61632 -2.040608 9.701274 -1.979859 C 9.785873 -1.919109 9.866917 -1.858004 9.944051 -1.795834 C 10.02083 -1.733663 10.093699 -1.670782 10.162657 -1.60719 C 10.231616 -1.543599 10.296309 -1.479652 10.357092 -1.414994 C 10.41752 -1.350337 10.474038 -1.284969 10.52629 -1.219246 C 10.578542 -1.153523 10.626529 -1.087089 10.67025 -1.020655 C 10.713971 -0.953866 10.753427 -0.886722 10.788617 -0.819223 C 10.823807 -0.752079 10.854377 -0.684224 10.881036 -0.616369 C 10.90734 -0.548159 10.929378 -0.479949 10.947151 -0.411739 C 10.964568 -0.343174 10.978076 -0.274609 10.986607 -0.206043 C 10.995493 -0.137478 11.000114 -0.0689128 11.000114 0.00000775077 Z M 11.000114 0.00000775077 " stroke="#61dafb" stroke-width="1" stroke-opacity="1" stroke-miterlimit="4"/></g><g clip-path="url(#3f3372baac)"><path stroke-linecap="butt" transform="matrix(5.494687, 9.522343, -9.517077, 5.497728, 187.611731, 187.663977)" fill="none" stroke-linejoin="miter" d="M 11.000096 -0.0000919324 C 11.000081 0.0688544 10.995793 0.137386 10.986877 0.206119 C 10.977961 0.274851 10.964772 0.343169 10.946954 0.411688 C 10.929314 0.479898 10.907531 0.54818 10.88099 0.616177 C 10.854448 0.684174 10.823942 0.751934 10.788677 0.819409 C 10.753412 0.886884 10.714052 0.953637 10.670549 1.020461 C 10.626738 1.087106 10.578654 1.153337 10.526297 1.219154 C 10.473941 1.28497 10.417796 1.350241 10.357071 1.41492 C 10.296347 1.479599 10.231526 1.543556 10.162741 1.607275 C 10.093648 1.670816 10.020945 1.733505 9.943969 1.795779 C 9.866993 1.858053 9.7861 1.919297 9.701111 1.979818 C 9.61643 2.040516 9.527347 2.100315 9.435138 2.15913 C 9.342445 2.218076 9.246141 2.276169 9.146228 2.333409 C 9.046007 2.390471 8.942484 2.446858 8.835221 2.501907 C 8.727958 2.556956 8.617393 2.61133 8.503088 2.664366 C 8.389091 2.717579 8.271354 2.769454 8.150315 2.820653 C 8.029453 2.871545 7.905645 2.921146 7.778227 2.969895 C 7.650987 3.018335 7.520623 3.065792 7.387311 3.111959 C 7.253692 3.157948 7.117434 3.202824 6.978537 3.246586 C 6.839332 3.290171 6.697181 3.332465 6.552568 3.373338 C 6.408263 3.414389 6.261011 3.454149 6.111168 3.492002 C 5.961455 3.530341 5.809458 3.566951 5.65513 3.602625 C 5.500672 3.637814 5.34406 3.671759 5.185472 3.704154 C 5.026577 3.73637 4.865836 3.767521 4.702989 3.796635 C 4.540272 3.826235 4.375756 3.853975 4.209572 3.880342 C 4.043081 3.906531 3.875407 3.931216 3.705757 3.954351 C 3.536414 3.977662 3.365274 3.999115 3.193258 4.019242 C 3.020934 4.039191 2.847428 4.057636 2.672609 4.074091 C 2.498097 4.090725 2.322403 4.105854 2.146011 4.11935 C 1.969312 4.132668 1.792222 4.144529 1.614128 4.154579 C 1.436033 4.164629 1.257241 4.173045 1.078237 4.179697 C 0.899056 4.186656 0.719532 4.191366 0.539748 4.195105 C 0.359835 4.198358 0.180017 4.200025 -0.0000134018 4.199927 C -0.180043 4.19983 -0.359978 4.198146 -0.539817 4.194875 C -0.719656 4.191604 -0.898914 4.186617 -1.078384 4.179865 C -1.257368 4.172983 -1.43595 4.164693 -1.61395 4.154685 C -1.792258 4.1445 -1.969192 4.132645 -2.14603 4.119204 C -2.322561 4.10594 -2.498026 4.090829 -2.672909 4.074002 C -2.847485 4.057352 -3.020686 4.039033 -3.192999 4.019174 C -3.365313 3.999316 -3.536252 3.977788 -3.705817 3.954591 C -3.875382 3.931394 -4.043265 3.906705 -4.209466 3.880524 C -4.375798 3.853858 -4.540318 3.826186 -4.702978 3.796714 C -4.865817 3.76755 -5.026618 3.736278 -5.185299 3.704178 C -5.344111 3.671592 -5.500626 3.63787 -5.654973 3.602526 C -5.809628 3.567004 -5.961501 3.530216 -6.111385 3.492113 C -6.260783 3.453881 -6.408191 3.414334 -6.552817 3.37352 C -6.697266 3.332399 -6.83911 3.290319 -6.978301 3.246486 C -7.117363 3.203139 -7.253771 3.15804 -7.38709 3.111852 C -7.520587 3.065972 -7.650638 3.018387 -7.778084 2.969843 C -7.90553 2.921299 -8.029401 2.871536 -8.15049 2.820506 C -8.27127 2.769653 -8.388961 2.717712 -8.503076 2.664551 C -8.617191 2.611391 -8.728217 2.557141 -8.835359 2.50185 C -8.9425 2.446559 -9.045937 2.390534 -9.146283 2.333419 C -9.246144 2.276175 -9.3423 2.218197 -9.435058 2.159307 C -9.527638 2.10011 -9.616205 2.040356 -9.701067 1.979869 C -9.785929 1.919382 -9.866907 1.857852 -9.943872 1.795767 C -10.020838 1.733682 -10.093613 1.670733 -10.162859 1.607358 C -10.231621 1.543852 -10.296369 1.479791 -10.356927 1.414865 C -10.417663 1.350247 -10.473899 1.284943 -10.526301 1.219391 C -10.578525 1.153531 -10.626736 1.087114 -10.670318 1.020497 C -10.714208 0.953702 -10.753469 0.886706 -10.78841 0.819332 C -10.823837 0.752087 -10.854457 0.684334 -10.880756 0.616203 C -10.907233 0.548379 -10.929389 0.480177 -10.946917 0.411774 C -10.964753 0.343193 -10.97783 0.274897 -10.986894 0.206044 C -10.995651 0.13737 -10.999957 0.0688018 -10.999942 -0.000144594 C -11.000105 -0.0687831 -10.995639 -0.137623 -10.9869 -0.206047 C -10.977984 -0.27478 -10.964617 -0.343405 -10.946977 -0.411616 C -10.92916 -0.480135 -10.907377 -0.548416 -10.881013 -0.616106 C -10.854472 -0.684103 -10.823787 -0.75217 -10.7887 -0.819338 C -10.753435 -0.886813 -10.713897 -0.953874 -10.670394 -1.020697 C -10.626583 -1.087343 -10.578677 -1.153266 -10.526321 -1.219082 C -10.473964 -1.284899 -10.41782 -1.35017 -10.357095 -1.414849 C -10.29637 -1.479528 -10.231372 -1.543792 -10.162764 -1.607203 C -10.093671 -1.670745 -10.020791 -1.733742 -9.943992 -1.795708 C -9.867017 -1.857982 -9.786123 -1.919225 -9.701135 -1.979746 C -9.616454 -2.040445 -9.527677 -2.100421 -9.434984 -2.159367 C -9.342468 -2.218005 -9.246164 -2.276097 -9.146251 -2.333337 C -9.04603 -2.3904 -8.942507 -2.446787 -8.835244 -2.501836 C -8.728111 -2.55737 -8.617416 -2.611259 -8.503111 -2.664294 C -8.389114 -2.717507 -8.271199 -2.76969 -8.150338 -2.820582 C -8.029477 -2.871474 -7.905491 -2.921383 -7.778251 -2.969823 C -7.650833 -3.018571 -7.520646 -3.065721 -7.387157 -3.112195 C -7.253845 -3.158362 -7.11728 -3.20306 -6.978383 -3.246823 C -6.839178 -3.290408 -6.697204 -3.332394 -6.552899 -3.373445 C -6.408108 -3.414625 -6.261034 -3.454077 -6.111499 -3.492108 C -5.961478 -3.530269 -5.809304 -3.567187 -5.655153 -3.602554 C -5.500695 -3.637743 -5.344083 -3.671688 -5.185496 -3.704082 C -5.0266 -3.736299 -4.865859 -3.76745 -4.703012 -3.796564 C -4.540295 -3.826163 -4.375779 -3.853904 -4.209596 -3.880271 C -4.043104 -3.90646 -3.875253 -3.931453 -3.70578 -3.954279 C -3.536438 -3.977591 -3.365297 -3.999044 -3.193281 -4.01917 C -3.020958 -4.039119 -2.847451 -4.057564 -2.67294 -4.074198 C -2.498121 -4.090653 -2.322426 -4.105783 -2.146034 -4.119279 C -1.969335 -4.132597 -1.792246 -4.144458 -1.614151 -4.154508 C -1.436057 -4.164558 -1.257265 -4.172974 -1.078261 -4.179625 C -0.899079 -4.186585 -0.719377 -4.191602 -0.539771 -4.195033 C -0.359858 -4.198287 -0.18004 -4.199953 -0.00000986851 -4.199856 C 0.180198 -4.200066 0.360132 -4.198382 0.539794 -4.194804 C 0.719632 -4.191533 0.89889 -4.186546 1.07836 -4.179794 C 1.257345 -4.172912 1.435926 -4.164621 1.613927 -4.154614 C 1.792235 -4.144428 1.969346 -4.132881 2.146007 -4.119132 C 2.322538 -4.105869 2.498002 -4.090758 2.672578 -4.074108 C 2.847461 -4.057281 3.020841 -4.039269 3.192976 -4.019103 C 3.365289 -3.999245 3.536228 -3.977717 3.705793 -3.95452 C 3.875358 -3.931323 4.043242 -3.906634 4.209443 -3.880453 C 4.375952 -3.854095 4.540295 -3.826115 4.702955 -3.796643 C 4.865793 -3.767479 5.026772 -3.736515 5.185276 -3.704107 C 5.344088 -3.671521 5.500602 -3.637799 5.65495 -3.602455 C 5.809605 -3.566933 5.961656 -3.530453 6.111361 -3.492042 C 6.260937 -3.454117 6.408168 -3.414263 6.552794 -3.373449 C 6.69742 -3.332635 6.839087 -3.290247 6.978456 -3.246723 C 7.117339 -3.203068 7.253748 -3.157969 7.387245 -3.112088 C 7.520564 -3.0659 7.650792 -3.018623 7.778061 -2.969771 C 7.905507 -2.921227 8.029378 -2.871464 8.150466 -2.820434 C 8.271247 -2.769582 8.388938 -2.717641 8.503053 -2.66448 C 8.617168 -2.61132 8.728193 -2.55707 8.835335 -2.501779 C 8.942655 -2.446795 9.046091 -2.39077 9.14626 -2.333348 C 9.246121 -2.276104 9.342277 -2.218126 9.435035 -2.159236 C 9.527793 -2.100346 9.61636 -2.040593 9.701044 -1.979798 C 9.785905 -1.91931 9.866884 -1.857781 9.943849 -1.795696 C 10.020815 -1.733611 10.093767 -1.670969 10.162836 -1.607286 C 10.231598 -1.543781 10.296346 -1.479719 10.356904 -1.414794 C 10.417639 -1.350176 10.474054 -1.28518 10.526278 -1.21932 C 10.578502 -1.153459 10.626712 -1.087043 10.670295 -1.020426 C 10.713877 -0.953808 10.753446 -0.886635 10.788565 -0.819568 C 10.823813 -0.752016 10.854433 -0.684263 10.88091 -0.616439 C 10.90721 -0.548308 10.929366 -0.480106 10.946894 -0.411702 C 10.96473 -0.343122 10.977807 -0.274825 10.986871 -0.205973 C 10.995628 -0.137298 10.999933 -0.0687305 11.000096 -0.0000919324 Z M 11.000096 -0.0000919324 " stroke="#61dafb" stroke-width="1" stroke-opacity="1" stroke-miterlimit="4"/><path stroke-linecap="butt" transform="matrix(-5.494687, 9.522343, -9.517077, -5.497728, 187.611731, 187.663977)" fill="none" stroke-linejoin="miter" d="M 10.999955 -0.000152345 C 10.99997 0.068794 10.995664 0.137362 10.986908 0.206037 C 10.977844 0.274889 10.964766 0.343185 10.946931 0.411766 C 10.929403 0.480169 10.907247 0.548371 10.880769 0.616195 C 10.85447 0.684327 10.82385 0.75208 10.788424 0.819324 C 10.753483 0.886698 10.713914 0.953872 10.670331 1.020489 C 10.626749 1.087106 10.578538 1.153523 10.526314 1.219383 C 10.473913 1.284936 10.417676 1.35024 10.356941 1.414857 C 10.296383 1.479783 10.231634 1.543845 10.162873 1.60735 C 10.093626 1.670725 10.020851 1.733674 9.943886 1.79576 C 9.86692 1.857845 9.785942 1.919374 9.70108 1.979861 C 9.616219 2.040349 9.527652 2.100102 9.435071 2.1593 C 9.342314 2.218189 9.246158 2.276167 9.146297 2.333412 C 9.04595 2.390526 8.942514 2.446551 8.835372 2.501842 C 8.72823 2.557133 8.617205 2.611383 8.50309 2.664544 C 8.388975 2.717704 8.271284 2.769646 8.150503 2.820498 C 8.029415 2.871528 7.905544 2.921291 7.778098 2.969835 C 7.650651 3.018379 7.5206 3.065964 7.387104 3.111844 C 7.253785 3.158032 7.117376 3.203131 6.978315 3.246478 C 6.839123 3.290311 6.697279 3.332391 6.552831 3.373513 C 6.408205 3.414326 6.260796 3.453873 6.111398 3.492106 C 5.961515 3.530208 5.809642 3.566997 5.654987 3.602518 C 5.500639 3.637863 5.344124 3.671585 5.185313 3.70417 C 5.026631 3.736271 4.86583 3.767542 4.702992 3.796706 C 4.540331 3.826178 4.375811 3.853851 4.20948 3.880517 C 4.043278 3.906697 3.875395 3.931386 3.70583 3.954583 C 3.536265 3.977781 3.365326 3.999308 3.193013 4.019167 C 3.0207 4.039025 2.847498 4.057344 2.672615 4.074172 C 2.498039 4.090822 2.322575 4.105932 2.146044 4.119196 C 1.969205 4.132637 1.792271 4.144492 1.613963 4.154677 C 1.435963 4.164685 1.257382 4.172976 1.078397 4.179858 C 0.898927 4.186609 0.719669 4.191597 0.53983 4.194867 C 0.359991 4.198138 0.180057 4.199822 0.0000268265 4.19992 C -0.180003 4.200017 -0.359821 4.19835 -0.539735 4.195097 C -0.719518 4.191358 -0.899042 4.186648 -1.078224 4.179689 C -1.257228 4.173037 -1.43602 4.164621 -1.614114 4.154571 C -1.792209 4.144522 -1.969298 4.13266 -2.145998 4.119342 C -2.32239 4.105847 -2.498084 4.090717 -2.672903 4.074261 C -2.847415 4.057628 -3.020921 4.039183 -3.193244 4.019234 C -3.36526 3.999107 -3.536401 3.977655 -3.705743 3.954343 C -3.875394 3.931209 -4.043068 3.906523 -4.209559 3.880334 C -4.375743 3.853967 -4.540258 3.826227 -4.702975 3.796627 C -4.865822 3.767513 -5.026564 3.736362 -5.185459 3.704146 C -5.344047 3.671752 -5.500658 3.637806 -5.655116 3.602617 C -5.809445 3.566943 -5.961441 3.530333 -6.111462 3.492172 C -6.260998 3.454141 -6.408249 3.414381 -6.552862 3.373508 C -6.697167 3.332457 -6.839319 3.290163 -6.978524 3.246578 C -7.117421 3.202816 -7.253986 3.158118 -7.387298 3.111951 C -7.520609 3.065785 -7.650974 3.018327 -7.778214 2.969887 C -7.905632 2.921139 -8.02944 2.871537 -8.150301 2.820646 C -8.27134 2.769446 -8.389077 2.717571 -8.503075 2.664358 C -8.617379 2.611322 -8.728252 2.557126 -8.835207 2.5019 C -8.94247 2.446851 -9.045993 2.390463 -9.146214 2.333401 C -9.246128 2.276161 -9.342431 2.218068 -9.435125 2.159122 C -9.527641 2.100485 -9.616417 2.040509 -9.701098 1.97981 C -9.786086 1.919289 -9.86698 1.858045 -9.943956 1.795771 C -10.020932 1.733497 -10.093634 1.670809 -10.162728 1.607267 C -10.231513 1.543548 -10.296333 1.479591 -10.357058 1.414913 C -10.417783 1.350234 -10.473927 1.284962 -10.526284 1.219146 C -10.578641 1.15333 -10.626724 1.087099 -10.670535 1.020453 C -10.714038 0.953629 -10.753399 0.886877 -10.788664 0.819401 C -10.823928 0.751926 -10.854435 0.684166 -10.880976 0.616169 C -10.907518 0.548172 -10.929301 0.479891 -10.94694 0.41168 C -10.964758 0.343161 -10.977947 0.274843 -10.986864 0.206111 C -10.99578 0.137378 -11.000068 0.0688467 -11.000083 -0.0000996832 C -10.99992 -0.0687382 -10.995614 -0.137306 -10.986858 -0.205981 C -10.977793 -0.274833 -10.964716 -0.343129 -10.946881 -0.41171 C -10.929353 -0.480113 -10.907196 -0.548316 -10.880897 -0.616447 C -10.85442 -0.684271 -10.8238 -0.752024 -10.788551 -0.819576 C -10.753433 -0.886642 -10.714171 -0.953638 -10.670281 -1.020433 C -10.626699 -1.087051 -10.578488 -1.153467 -10.526264 -1.219327 C -10.47404 -1.285188 -10.417626 -1.350184 -10.35689 -1.414802 C -10.296333 -1.479727 -10.231584 -1.543789 -10.162823 -1.607294 C -10.093754 -1.670977 -10.020801 -1.733619 -9.943836 -1.795704 C -9.86687 -1.857789 -9.785892 -1.919318 -9.70103 -1.979805 C -9.616346 -2.040601 -9.527779 -2.100354 -9.435021 -2.159244 C -9.342263 -2.218133 -9.246108 -2.276112 -9.146247 -2.333356 C -9.046078 -2.390778 -8.942642 -2.446803 -8.835322 -2.501786 C -8.72818 -2.557078 -8.617155 -2.611327 -8.50304 -2.664488 C -8.388924 -2.717648 -8.271234 -2.76959 -8.150453 -2.820442 C -8.029365 -2.871472 -7.905494 -2.921235 -7.778047 -2.969779 C -7.650779 -3.018631 -7.52055 -3.065908 -7.387231 -3.112096 C -7.253735 -3.157977 -7.117326 -3.203076 -6.978442 -3.24673 C -6.839073 -3.290255 -6.697407 -3.332643 -6.552781 -3.373457 C -6.408155 -3.41427 -6.260924 -3.454125 -6.111348 -3.49205 C -5.961642 -3.53046 -5.809592 -3.566941 -5.654936 -3.602463 C -5.500589 -3.637807 -5.344074 -3.671529 -5.185263 -3.704115 C -5.026759 -3.736523 -4.86578 -3.767486 -4.702942 -3.79665 C -4.540281 -3.826122 -4.375939 -3.854103 -4.20943 -3.880461 C -4.043228 -3.906642 -3.875345 -3.93133 -3.70578 -3.954528 C -3.536215 -3.977725 -3.365276 -3.999253 -3.192963 -4.019111 C -3.020827 -4.039277 -2.847448 -4.057288 -2.672872 -4.073938 C -2.497989 -4.090766 -2.322524 -4.105876 -2.145994 -4.11914 C -1.969333 -4.132889 -1.792221 -4.144436 -1.613913 -4.154621 C -1.435913 -4.164629 -1.257332 -4.17292 -1.078347 -4.179802 C -0.898877 -4.186553 -0.719619 -4.191541 -0.53978 -4.194812 C -0.360119 -4.19839 -0.180184 -4.200074 0.0000232932 -4.199864 C 0.180053 -4.199961 0.359871 -4.198294 0.539785 -4.195041 C 0.719391 -4.19161 0.899092 -4.186592 1.078274 -4.179633 C 1.257278 -4.172981 1.43607 -4.164566 1.614164 -4.154516 C 1.792259 -4.144466 1.969348 -4.132604 2.146048 -4.119286 C 2.32244 -4.105791 2.498134 -4.090661 2.672646 -4.074028 C 2.847465 -4.057572 3.020971 -4.039127 3.193295 -4.019178 C 3.36531 -3.999052 3.536451 -3.977599 3.705794 -3.954287 C 3.875266 -3.931461 4.043118 -3.906468 4.209609 -3.880278 C 4.375793 -3.853911 4.540308 -3.826171 4.703025 -3.796571 C 4.865873 -3.767457 5.026614 -3.736307 5.185509 -3.70409 C 5.344097 -3.671696 5.500709 -3.63775 5.655167 -3.602561 C 5.809317 -3.567195 5.961491 -3.530277 6.111205 -3.491938 C 6.261048 -3.454085 6.408122 -3.414633 6.552605 -3.373275 C 6.697217 -3.332402 6.839191 -3.290415 6.978396 -3.24683 C 7.117293 -3.203068 7.253551 -3.158192 7.38717 -3.112203 C 7.520659 -3.065729 7.650846 -3.018579 7.778264 -2.969831 C 7.905504 -2.921391 8.02949 -2.871482 8.150351 -2.82059 C 8.271213 -2.769698 8.389127 -2.717515 8.503125 -2.664302 C 8.61743 -2.611266 8.727817 -2.5572 8.835258 -2.501844 C 8.94252 -2.446795 9.046044 -2.390408 9.146265 -2.333345 C 9.246178 -2.276105 9.342481 -2.218012 9.434997 -2.159375 C 9.527383 -2.100251 9.616467 -2.040453 9.701148 -1.979754 C 9.786137 -1.919233 9.86703 -1.85799 9.944006 -1.795716 C 10.020804 -1.733749 10.093685 -1.670753 10.162778 -1.607211 C 10.231385 -1.5438 10.296383 -1.479536 10.357108 -1.414857 C 10.417833 -1.350178 10.473977 -1.284906 10.526334 -1.21909 C 10.578691 -1.153274 10.626597 -1.087351 10.670408 -1.020705 C 10.713911 -0.953881 10.753449 -0.886821 10.788714 -0.819346 C 10.823801 -0.752178 10.854485 -0.68411 10.881026 -0.616113 C 10.90739 -0.548424 10.929173 -0.480143 10.946991 -0.411624 C 10.964631 -0.343413 10.977998 -0.274788 10.986914 -0.206055 C 10.995652 -0.13763 11.000118 -0.0687909 10.999955 -0.000152345 Z M 10.999955 -0.000152345 " stroke="#61dafb" stroke-width="1" stroke-opacity="1" stroke-miterlimit="4"/></g></svg>