<svg xmlns="http://www.w3.org/2000/svg" xmlns:xlink="http://www.w3.org/1999/xlink" width="500" zoomAndPan="magnify" viewBox="0 0 375 374.999991" height="500" preserveAspectRatio="xMidYMid meet" version="1.0"><defs><clipPath id="1350fcc02a"><path d="M 17.253906 44 L 357.753906 44 L 357.753906 331 L 17.253906 331 Z M 17.253906 44 " clip-rule="nonzero"/></clipPath><clipPath id="67dabb07c5"><path d="M 17.253906 39.539062 L 357.753906 39.539062 L 357.753906 335.789062 L 17.253906 335.789062 Z M 17.253906 39.539062 " clip-rule="nonzero"/></clipPath></defs><rect x="-37.5" width="450" fill="#ffffff" y="-37.499999" height="449.999989" fill-opacity="1"/><rect x="-37.5" width="450" fill="#ecedee" y="-37.499999" height="449.999989" fill-opacity="1"/><path fill="#61dafb" d="M 217.148438 187.671875 C 217.148438 188.644531 217.101562 189.613281 217.007812 190.582031 C 216.910156 191.550781 216.769531 192.507812 216.578125 193.464844 C 216.390625 194.417969 216.15625 195.359375 215.871094 196.289062 C 215.589844 197.21875 215.265625 198.132812 214.894531 199.03125 C 214.519531 199.929688 214.105469 200.804688 213.648438 201.664062 C 213.191406 202.519531 212.691406 203.351562 212.152344 204.160156 C 211.613281 204.96875 211.035156 205.75 210.421875 206.5 C 209.804688 207.253906 209.152344 207.972656 208.464844 208.660156 C 207.78125 209.347656 207.0625 210 206.3125 210.613281 C 205.558594 211.230469 204.78125 211.808594 203.972656 212.351562 C 203.167969 212.890625 202.335938 213.390625 201.480469 213.847656 C 200.621094 214.304688 199.746094 214.71875 198.847656 215.09375 C 197.953125 215.464844 197.039062 215.792969 196.109375 216.074219 C 195.179688 216.355469 194.238281 216.589844 193.289062 216.78125 C 192.335938 216.972656 191.375 217.113281 190.410156 217.207031 C 189.445312 217.304688 188.476562 217.351562 187.503906 217.351562 C 186.53125 217.351562 185.5625 217.304688 184.597656 217.207031 C 183.632812 217.113281 182.671875 216.972656 181.71875 216.78125 C 180.769531 216.589844 179.828125 216.355469 178.898438 216.074219 C 177.96875 215.792969 177.054688 215.464844 176.160156 215.09375 C 175.261719 214.71875 174.386719 214.304688 173.527344 213.847656 C 172.671875 213.390625 171.839844 212.890625 171.035156 212.351562 C 170.226562 211.808594 169.449219 211.230469 168.695312 210.613281 C 167.945312 210 167.226562 209.347656 166.542969 208.660156 C 165.855469 207.972656 165.203125 207.253906 164.585938 206.5 C 163.972656 205.75 163.394531 204.96875 162.855469 204.160156 C 162.316406 203.351562 161.816406 202.519531 161.359375 201.664062 C 160.902344 200.804688 160.488281 199.929688 160.113281 199.03125 C 159.742188 198.132812 159.417969 197.21875 159.136719 196.289062 C 158.851562 195.359375 158.617188 194.417969 158.429688 193.464844 C 158.238281 192.507812 158.097656 191.550781 158 190.582031 C 157.90625 189.613281 157.859375 188.644531 157.859375 187.671875 C 157.859375 186.699219 157.90625 185.730469 158 184.765625 C 158.097656 183.796875 158.238281 182.835938 158.429688 181.882812 C 158.617188 180.929688 158.851562 179.988281 159.136719 179.058594 C 159.417969 178.128906 159.742188 177.214844 160.113281 176.316406 C 160.488281 175.417969 160.902344 174.539062 161.359375 173.683594 C 161.816406 172.824219 162.316406 171.992188 162.855469 171.183594 C 163.394531 170.375 163.972656 169.597656 164.585938 168.84375 C 165.203125 168.09375 165.855469 167.375 166.542969 166.6875 C 167.226562 166 167.945312 165.347656 168.695312 164.730469 C 169.449219 164.113281 170.226562 163.535156 171.035156 162.996094 C 171.839844 162.457031 172.671875 161.957031 173.527344 161.5 C 174.386719 161.039062 175.261719 160.625 176.160156 160.253906 C 177.054688 159.882812 177.96875 159.554688 178.898438 159.273438 C 179.828125 158.988281 180.769531 158.753906 181.71875 158.566406 C 182.671875 158.375 183.632812 158.234375 184.597656 158.136719 C 185.5625 158.042969 186.53125 157.996094 187.503906 157.996094 C 188.476562 157.996094 189.445312 158.042969 190.410156 158.136719 C 191.375 158.234375 192.335938 158.375 193.289062 158.566406 C 194.238281 158.753906 195.179688 158.988281 196.109375 159.273438 C 197.039062 159.554688 197.953125 159.882812 198.847656 160.253906 C 199.746094 160.625 200.621094 161.039062 201.480469 161.5 C 202.335938 161.957031 203.167969 162.457031 203.972656 162.996094 C 204.78125 163.535156 205.558594 164.113281 206.3125 164.730469 C 207.0625 165.347656 207.78125 166 208.464844 166.6875 C 209.152344 167.375 209.804688 168.09375 210.421875 168.84375 C 211.035156 169.597656 211.613281 170.375 212.152344 171.183594 C 212.691406 171.992188 213.191406 172.824219 213.648438 173.683594 C 214.105469 174.539062 214.519531 175.417969 214.894531 176.316406 C 215.265625 177.214844 215.589844 178.128906 215.871094 179.058594 C 216.15625 179.988281 216.390625 180.929688 216.578125 181.882812 C 216.769531 182.835938 216.910156 183.796875 217.007812 184.765625 C 217.101562 185.730469 217.148438 186.699219 217.148438 187.671875 Z M 217.148438 187.671875 " fill-opacity="1" fill-rule="nonzero"/><g clip-path="url(#1350fcc02a)"><path stroke-linecap="butt" transform="matrix(14.461239, 0, 0, 14.477349, 187.50389, 187.672898)" fill="none" stroke-linejoin="miter" d="M 11.000042 -0.0000706674 C 11.000042 0.0687329 10.99545 0.137537 10.986806 0.20607 C 10.977892 0.274604 10.964657 0.343138 10.947099 0.411672 C 10.929271 0.480205 10.907391 0.5482 10.88092 0.616194 C 10.854448 0.684188 10.823655 0.751912 10.788539 0.819367 C 10.753424 0.886821 10.713987 0.953736 10.670227 1.020651 C 10.626468 1.087296 10.578657 1.153401 10.526254 1.219237 C 10.474121 1.285073 10.417666 1.350099 10.35689 1.414855 C 10.296383 1.479611 10.231555 1.543828 10.162674 1.607235 C 10.093794 1.670643 10.020862 1.73351 9.943878 1.795838 C 9.866895 1.857896 9.786129 1.919145 9.701042 1.979854 C 9.616224 2.040563 9.527626 2.100193 9.434975 2.159283 C 9.342594 2.218103 9.246162 2.276114 9.146218 2.333316 C 9.046274 2.390517 8.942549 2.446639 8.835311 2.501952 C 8.728074 2.557265 8.617326 2.611228 8.503066 2.664383 C 8.388805 2.717537 8.271304 2.769612 8.150561 2.820607 C 8.029548 2.871603 7.905563 2.921249 7.778067 2.969817 C 7.650841 3.018384 7.520644 3.065872 7.387205 3.112011 C 7.253767 3.15815 7.117357 3.202939 6.978246 3.24665 C 6.839135 3.29036 6.697322 3.332452 6.552809 3.373464 C 6.408025 3.414477 6.261081 3.45387 6.111165 3.492184 C 5.961519 3.530229 5.809443 3.567194 5.655205 3.60254 C 5.500697 3.637886 5.344028 3.671613 5.185469 3.703991 C 5.026639 3.73637 4.865918 3.767399 4.703037 3.796809 C 4.540425 3.826219 4.375923 3.85401 4.20953 3.880183 C 4.043137 3.906625 3.875393 3.931448 3.705759 3.954383 C 3.536394 3.977587 3.365409 3.999172 3.193073 4.019139 C 3.020738 4.039105 2.847322 4.057453 2.672825 4.074182 C 2.498058 4.09091 2.322481 4.10602 2.146094 4.119241 C 1.969436 4.132732 1.792238 4.144334 1.61396 4.154588 C 1.435952 4.164571 1.257403 4.172935 1.078315 4.179681 C 0.898956 4.186426 0.719597 4.191553 0.539698 4.19506 C 0.360069 4.198298 0.1799 4.199917 0.00000113841 4.199917 C -0.179898 4.199917 -0.360067 4.198298 -0.539696 4.19506 C -0.719595 4.191553 -0.898954 4.186426 -1.078312 4.179681 C -1.257401 4.172935 -1.43595 4.164571 -1.613958 4.154588 C -1.792236 4.144334 -1.969434 4.132732 -2.146091 4.119241 C -2.322479 4.10602 -2.498056 4.09091 -2.672823 4.074182 C -2.847319 4.057453 -3.020736 4.039105 -3.193071 4.019139 C -3.365407 3.999172 -3.536392 3.977587 -3.705756 3.954383 C -3.875391 3.931448 -4.043135 3.906625 -4.209528 3.880183 C -4.375921 3.85401 -4.540423 3.826219 -4.703034 3.796809 C -4.865916 3.767399 -5.026636 3.73637 -5.185466 3.703991 C -5.344026 3.671613 -5.500695 3.637886 -5.655203 3.60254 C -5.80944 3.567194 -5.961517 3.530229 -6.111163 3.492184 C -6.261079 3.45387 -6.408023 3.414477 -6.552807 3.373464 C -6.69732 3.332452 -6.839133 3.29036 -6.978244 3.24665 C -7.117355 3.202939 -7.253765 3.15815 -7.387203 3.112011 C -7.520642 3.065872 -7.650839 3.018384 -7.778065 2.969817 C -7.905561 2.921249 -8.029545 2.871603 -8.150558 2.820607 C -8.271301 2.769612 -8.388803 2.717537 -8.503063 2.664383 C -8.617323 2.611228 -8.728072 2.557265 -8.835309 2.501952 C -8.942546 2.446639 -9.046272 2.390517 -9.146216 2.333316 C -9.24616 2.276114 -9.342592 2.218103 -9.434973 2.159283 C -9.527623 2.100193 -9.616222 2.040563 -9.701039 1.979854 C -9.786127 1.919145 -9.866892 1.857896 -9.943876 1.795838 C -10.02086 1.73351 -10.093792 1.670643 -10.162672 1.607235 C -10.231552 1.543828 -10.296381 1.479611 -10.356887 1.414855 C -10.417664 1.350099 -10.474119 1.285073 -10.526252 1.219237 C -10.578655 1.153401 -10.626466 1.087296 -10.670225 1.020651 C -10.713984 0.953736 -10.753422 0.886821 -10.788537 0.819367 C -10.823652 0.751912 -10.854446 0.684188 -10.880918 0.616194 C -10.907389 0.5482 -10.929269 0.480205 -10.947097 0.411672 C -10.964654 0.343138 -10.97789 0.274604 -10.986804 0.20607 C -10.995448 0.137537 -11.00004 0.0687329 -11.00004 -0.0000706674 C -11.00004 -0.0686045 -10.995448 -0.137408 -10.986804 -0.206212 C -10.97789 -0.274745 -10.964654 -0.343279 -10.947097 -0.411543 C -10.929269 -0.480077 -10.907389 -0.548341 -10.880918 -0.616335 C -10.854446 -0.684329 -10.823652 -0.752054 -10.788537 -0.819508 C -10.753422 -0.886693 -10.713984 -0.953877 -10.670225 -1.020523 C -10.626466 -1.087168 -10.578655 -1.153543 -10.526252 -1.219109 C -10.474119 -1.284944 -10.417664 -1.35024 -10.356887 -1.414996 C -10.296381 -1.479753 -10.231552 -1.5437 -10.162672 -1.607377 C -10.093792 -1.670784 -10.02086 -1.733652 -9.943876 -1.79571 C -9.866892 -1.857768 -9.786127 -1.919286 -9.701039 -1.979995 C -9.616222 -2.040435 -9.527623 -2.100334 -9.434973 -2.159155 C -9.342592 -2.218245 -9.24616 -2.276256 -9.146216 -2.333457 C -9.046272 -2.390659 -8.942546 -2.446781 -8.835309 -2.501824 C -8.728072 -2.557136 -8.617323 -2.61137 -8.503063 -2.664524 C -8.388803 -2.717678 -8.271301 -2.769483 -8.150558 -2.820479 C -8.029545 -2.871474 -7.905561 -2.921121 -7.778065 -2.969958 C -7.650839 -3.018525 -7.520642 -3.065743 -7.387203 -3.111882 C -7.253765 -3.158021 -7.117355 -3.203081 -6.978244 -3.246521 C -6.839133 -3.290232 -6.69732 -3.332593 -6.552807 -3.373606 C -6.408023 -3.414348 -6.261079 -3.454011 -6.111163 -3.492056 C -5.961517 -3.53037 -5.80944 -3.567065 -5.655203 -3.602411 C -5.500695 -3.637758 -5.344026 -3.671755 -5.185466 -3.704133 C -5.026636 -3.736511 -4.865916 -3.76727 -4.703034 -3.79668 C -4.540423 -3.826091 -4.375921 -3.853882 -4.209528 -3.880324 C -4.043135 -3.906496 -3.875391 -3.93132 -3.705756 -3.954524 C -3.536392 -3.977728 -3.365407 -3.999314 -3.193071 -4.01928 C -3.020736 -4.038977 -2.847319 -4.057325 -2.672823 -4.074053 C -2.498056 -4.090782 -2.322479 -4.105892 -2.146091 -4.119383 C -1.969434 -4.132604 -1.792236 -4.144476 -1.613958 -4.154459 C -1.43595 -4.164712 -1.257401 -4.173077 -1.078312 -4.179822 C -0.898954 -4.186567 -0.719595 -4.191694 -0.539696 -4.194932 C -0.360067 -4.198439 -0.179898 -4.200058 0.00000113841 -4.200058 C 0.1799 -4.200058 0.360069 -4.198439 0.539698 -4.194932 C 0.719597 -4.191694 0.898956 -4.186567 1.078315 -4.179822 C 1.257403 -4.173077 1.435952 -4.164712 1.61396 -4.154459 C 1.792238 -4.144476 1.969436 -4.132604 2.146094 -4.119383 C 2.322481 -4.105892 2.498058 -4.090782 2.672825 -4.074053 C 2.847322 -4.057325 3.020738 -4.038977 3.193073 -4.01928 C 3.365409 -3.999314 3.536394 -3.977728 3.705759 -3.954524 C 3.875393 -3.93132 4.043137 -3.906496 4.20953 -3.880324 C 4.375923 -3.853882 4.540425 -3.826091 4.703037 -3.79668 C 4.865918 -3.76727 5.026639 -3.736511 5.185469 -3.704133 C 5.344028 -3.671755 5.500697 -3.637758 5.655205 -3.602411 C 5.809443 -3.567065 5.961519 -3.53037 6.111165 -3.492056 C 6.261081 -3.454011 6.408025 -3.414348 6.552809 -3.373606 C 6.697322 -3.332593 6.839135 -3.290232 6.978246 -3.246521 C 7.117357 -3.203081 7.253767 -3.158021 7.387205 -3.111882 C 7.520644 -3.065743 7.650841 -3.018525 7.778067 -2.969958 C 7.905563 -2.921121 8.029548 -2.871474 8.150561 -2.820479 C 8.271304 -2.769483 8.388805 -2.717678 8.503066 -2.664524 C 8.617326 -2.61137 8.728074 -2.557136 8.835311 -2.501824 C 8.942549 -2.446781 9.046274 -2.390659 9.146218 -2.333457 C 9.246162 -2.276256 9.342594 -2.218245 9.434975 -2.159155 C 9.527626 -2.100334 9.616224 -2.040435 9.701042 -1.979995 C 9.786129 -1.919286 9.866895 -1.857768 9.943878 -1.79571 C 10.020862 -1.733652 10.093794 -1.670784 10.162674 -1.607377 C 10.231555 -1.5437 10.296383 -1.479753 10.35689 -1.414996 C 10.417666 -1.35024 10.474121 -1.284944 10.526254 -1.219109 C 10.578657 -1.153543 10.626468 -1.087168 10.670227 -1.020523 C 10.713987 -0.953877 10.753424 -0.886693 10.788539 -0.819508 C 10.823655 -0.752054 10.854448 -0.684329 10.88092 -0.616335 C 10.907391 -0.548341 10.929271 -0.480077 10.947099 -0.411543 C 10.964657 -0.343279 10.977892 -0.274745 10.986806 -0.206212 C 10.99545 -0.137408 11.000042 -0.0686045 11.000042 -0.0000706674 Z M 11.000042 -0.0000706674 " stroke="#61dafb" stroke-width="1" stroke-opacity="1" stroke-miterlimit="4"/></g><g clip-path="url(#67dabb07c5)"><path stroke-linecap="butt" transform="matrix(7.230619, 12.537752, -12.5238, 7.238675, 187.50389, 187.672898)" fill="none" stroke-linejoin="miter" d="M 11.000044 0.000156248 C 11.000007 0.0687542 10.995618 0.137335 10.986742 0.206132 C 10.978001 0.274696 10.96454 0.343341 10.946997 0.411501 C 10.929552 0.480029 10.907289 0.548271 10.880808 0.616262 C 10.854562 0.684387 10.823631 0.751991 10.788717 0.819479 C 10.753569 0.886832 10.713971 0.953799 10.67039 1.02065 C 10.62671 1.087132 10.578445 1.153462 10.526466 1.219207 C 10.474119 1.285052 10.417592 1.350042 10.357081 1.414916 C 10.296337 1.479656 10.231646 1.543676 10.162505 1.60731 C 10.093733 1.670845 10.02078 1.733526 9.943745 1.795722 C 9.867079 1.857819 9.786098 1.919296 9.701305 1.97982 C 9.616143 2.040442 9.527637 2.100382 9.435086 2.159234 C 9.342535 2.218086 9.246271 2.276353 9.146096 2.333299 C 9.046021 2.390614 8.942637 2.446642 8.835307 2.501952 C 8.727976 2.557261 8.617338 2.611285 8.503122 2.66449 C 8.388906 2.717696 8.271382 2.769615 8.150416 2.820483 C 8.029683 2.871485 7.905642 2.921202 7.778158 2.969866 C 7.651043 3.018432 7.520485 3.065945 7.387123 3.111839 C 7.25386 3.158103 7.117522 3.203215 6.978381 3.246708 C 6.839239 3.290202 6.697392 3.332445 6.55284 3.373438 C 6.408054 3.414296 6.260796 3.45404 6.111337 3.4922 C 5.961509 3.530459 5.809479 3.567135 5.655113 3.602462 C 5.500746 3.637789 5.344043 3.671767 5.185507 3.704063 C 5.026602 3.736458 4.865729 3.767405 4.703024 3.796669 C 4.540417 3.826303 4.375878 3.853886 4.20947 3.880389 C 4.043197 3.906659 3.875325 3.931381 3.705854 3.954556 C 3.536383 3.977732 3.365447 3.999126 3.193146 4.019108 C 3.020845 4.03909 2.847313 4.057425 2.672785 4.07425 C 2.498158 4.090706 2.322633 4.106019 2.146012 4.119452 C 1.969526 4.132652 1.792044 4.14434 1.614167 4.154553 C 1.436056 4.16463 1.257318 4.173098 1.078086 4.179721 C 0.899088 4.18648 0.719462 4.191628 0.539711 4.194832 C 0.359825 4.198271 0.180049 4.199902 -0.000121401 4.200057 C -0.180157 4.199978 -0.35985 4.198225 -0.539568 4.194899 C -0.71952 4.191437 -0.898895 4.186437 -1.078296 4.179863 C -1.257328 4.173189 -1.435883 4.164609 -1.61386 4.154489 C -1.792206 4.144469 -1.969472 4.132578 -2.145927 4.119282 C -2.322616 4.105852 -2.498126 4.090919 -2.67279 4.07398 C -2.847354 4.05741 -3.020838 4.038968 -3.193143 4.019024 C -3.365448 3.99908 -3.536205 3.977534 -3.705784 3.954485 C -3.875362 3.931437 -4.043257 3.906553 -4.209506 3.880436 C -4.375853 3.85395 -4.540419 3.825998 -4.70297 3.796714 C -4.865754 3.767295 -5.026524 3.736544 -5.185376 3.704092 C -5.344229 3.671641 -5.500698 3.637759 -5.655152 3.602544 C -5.80947 3.567096 -5.96154 3.530451 -6.111325 3.492007 C -6.261011 3.453931 -6.408079 3.414559 -6.552629 3.373523 C -6.697178 3.332486 -6.83911 3.290154 -6.978191 3.246661 C -7.117505 3.203032 -7.2536 3.158144 -7.387077 3.11196 C -7.520553 3.065776 -7.650945 3.018565 -7.778216 2.969726 C -7.905388 2.921256 -8.029574 2.871391 -8.150441 2.820634 C -8.271407 2.769509 -8.388821 2.717627 -8.503014 2.664486 C -8.617208 2.611344 -8.727948 2.557077 -8.835369 2.50192 C -8.942422 2.446663 -9.046156 2.390515 -9.146203 2.333376 C -9.24625 2.276238 -9.342376 2.218244 -9.435048 2.159126 C -9.527622 2.100376 -9.616374 2.040402 -9.701105 1.979941 C -9.786071 1.919346 -9.866882 1.85803 -9.944005 1.795724 C -10.020895 1.733553 -10.093765 1.670896 -10.162715 1.607383 C -10.231529 1.543636 -10.296459 1.479637 -10.357001 1.415052 C -10.417641 1.350099 -10.474163 1.285027 -10.526296 1.219371 C -10.578529 1.153345 -10.626643 1.087202 -10.670368 1.020473 C -10.714094 0.953745 -10.753567 0.886665 -10.788552 0.819368 C -10.823772 0.751936 -10.854504 0.684288 -10.880983 0.616288 C -10.907463 0.548288 -10.929455 0.480071 -10.94696 0.411638 C -10.964834 0.343304 -10.977853 0.274654 -10.986888 0.206121 C -10.995555 0.137488 -11.000103 0.0687379 -10.999931 -0.0000939781 C -10.999894 -0.0686919 -10.995739 -0.137408 -10.986629 -0.20607 C -10.977889 -0.274633 -10.964661 -0.343413 -10.947118 -0.411573 C -10.92944 -0.479967 -10.90741 -0.548344 -10.88093 -0.616334 C -10.854449 -0.684325 -10.823752 -0.752064 -10.788604 -0.819417 C -10.753457 -0.88677 -10.714092 -0.953872 -10.670277 -1.020588 C -10.626598 -1.08707 -10.578566 -1.153534 -10.526354 -1.219145 C -10.474007 -1.284989 -10.417713 -1.350115 -10.356969 -1.414854 C -10.296225 -1.479593 -10.231534 -1.543614 -10.162626 -1.607383 C -10.093854 -1.670918 -10.020901 -1.733599 -9.943866 -1.795795 C -9.866967 -1.857757 -9.785985 -1.919234 -9.701192 -1.979757 C -9.616265 -2.040515 -9.527525 -2.10032 -9.434974 -2.159172 C -9.342423 -2.218023 -9.246158 -2.276291 -9.146218 -2.333372 C -9.046142 -2.390686 -8.942525 -2.44658 -8.835194 -2.501889 C -8.727864 -2.557199 -8.617226 -2.611223 -8.50301 -2.664428 C -8.388794 -2.717634 -8.27127 -2.769553 -8.150537 -2.820556 C -8.02957 -2.871423 -7.905529 -2.921139 -7.778046 -2.969804 C -7.650931 -3.018369 -7.520373 -3.065883 -7.387244 -3.111912 C -7.253747 -3.15804 -7.117545 -3.202919 -6.978268 -3.246646 C -6.839127 -3.290139 -6.69728 -3.332383 -6.552728 -3.373376 C -6.408175 -3.414369 -6.260918 -3.454112 -6.111224 -3.492137 C -5.96163 -3.530531 -5.8096 -3.567208 -5.655234 -3.602535 C -5.500634 -3.637727 -5.344164 -3.67184 -5.185394 -3.704001 C -5.02649 -3.736395 -4.865851 -3.767477 -4.703145 -3.796742 C -4.540304 -3.826241 -4.375999 -3.853958 -4.209358 -3.880327 C -4.043085 -3.906596 -3.875213 -3.931319 -3.705741 -3.954494 C -3.53627 -3.977669 -3.365335 -3.999063 -3.193267 -4.01918 C -3.020966 -4.039162 -2.847435 -4.057498 -2.672672 -4.074188 C -2.498279 -4.090778 -2.32252 -4.105957 -2.145899 -4.11939 C -1.969414 -4.132589 -1.792165 -4.144412 -1.614054 -4.15449 C -1.435944 -4.164568 -1.257205 -4.173036 -1.078207 -4.179794 C -0.898975 -4.186417 -0.719583 -4.1917 -0.539832 -4.194905 C -0.359947 -4.198344 -0.180171 -4.199974 0.000000140211 -4.200129 C 0.180036 -4.20005 0.359962 -4.198163 0.53968 -4.194837 C 0.719399 -4.19151 0.899008 -4.186375 1.078175 -4.179935 C 1.257441 -4.173127 1.435995 -4.164546 1.613972 -4.154427 C 1.792085 -4.144542 1.969351 -4.13265 2.14604 -4.11922 C 2.322495 -4.105925 2.498239 -4.090857 2.672668 -4.074053 C 2.847467 -4.057348 3.020717 -4.039041 3.193022 -4.019097 C 3.365327 -3.999153 3.536318 -3.977472 3.705896 -3.954423 C 3.87524 -3.93151 4.043136 -3.906626 4.209618 -3.880374 C 4.375732 -3.854023 4.540298 -3.826071 4.703082 -3.796652 C 4.865867 -3.767233 5.026636 -3.736482 5.185489 -3.70403 C 5.344108 -3.671714 5.50081 -3.637696 5.655264 -3.602482 C 5.809583 -3.567034 5.961653 -3.530389 6.111204 -3.492079 C 6.26089 -3.454004 6.408192 -3.414497 6.552741 -3.373461 C 6.697291 -3.332424 6.839223 -3.290092 6.978303 -3.246598 C 7.117384 -3.203105 7.253712 -3.158082 7.387189 -3.111898 C 7.520432 -3.065848 7.651058 -3.018503 7.778095 -2.969799 C 7.905501 -2.921194 8.029453 -2.871463 8.150554 -2.820572 C 8.271286 -2.769581 8.388933 -2.717565 8.503127 -2.664423 C 8.61732 -2.611282 8.72806 -2.557015 8.835248 -2.501992 C 8.942535 -2.4466 9.046035 -2.390587 9.146082 -2.333449 C 9.246129 -2.276311 9.342489 -2.218182 9.434927 -2.159198 C 9.527735 -2.100314 9.616252 -2.040474 9.701218 -1.979879 C 9.78595 -1.919419 9.866994 -1.857968 9.943884 -1.795797 C 10.020774 -1.733626 10.093878 -1.670833 10.162827 -1.607321 C 10.231408 -1.543709 10.296338 -1.479709 10.357113 -1.41499 C 10.417519 -1.350171 10.474041 -1.2851 10.526409 -1.219308 C 10.578641 -1.153283 10.626521 -1.087275 10.670247 -1.020546 C 10.713973 -0.953817 10.753446 -0.886737 10.788665 -0.819305 C 10.823651 -0.752009 10.854617 -0.684225 10.880862 -0.61636 C 10.907341 -0.54836 10.929334 -0.480144 10.947073 -0.411576 C 10.964713 -0.343377 10.977965 -0.274592 10.986767 -0.206193 C 10.995667 -0.137426 10.999982 -0.0688105 11.000044 0.000156248 Z M 11.000044 0.000156248 " stroke="#61dafb" stroke-width="1" stroke-opacity="1" stroke-miterlimit="4"/><path stroke-linecap="butt" transform="matrix(-7.230619, 12.537752, -12.5238, -7.238675, 187.50389, 187.672898)" fill="none" stroke-linejoin="miter" d="M 11.000043 -0.00015822 C 10.999981 0.0688086 10.995666 0.137424 10.986766 0.206191 C 10.977964 0.27459 10.964712 0.343375 10.947072 0.411574 C 10.929333 0.480142 10.90734 0.548359 10.880861 0.616358 C 10.854615 0.684223 10.823649 0.752007 10.788664 0.819303 C 10.753444 0.886735 10.713972 0.953815 10.670246 1.020544 C 10.62652 1.087273 10.57864 1.153281 10.526408 1.219306 C 10.47404 1.285098 10.417518 1.350169 10.357112 1.414988 C 10.296337 1.479708 10.231407 1.543707 10.162826 1.607319 C 10.093877 1.670831 10.020773 1.733624 9.943883 1.795795 C 9.866993 1.857966 9.785948 1.919417 9.701217 1.979877 C 9.616251 2.040472 9.527733 2.100312 9.434926 2.159196 C 9.342487 2.21818 9.246128 2.276309 9.146081 2.333447 C 9.046034 2.390585 8.942533 2.446598 8.835247 2.50199 C 8.728059 2.557013 8.617319 2.61128 8.503126 2.664421 C 8.388932 2.717563 8.271285 2.76958 8.150552 2.82057 C 8.029452 2.871461 7.905499 2.921192 7.778094 2.969797 C 7.651057 3.018501 7.520431 3.065846 7.387188 3.111896 C 7.253711 3.15808 7.117383 3.203103 6.978302 3.246596 C 6.839221 3.29009 6.69729 3.332422 6.55274 3.373459 C 6.408191 3.414495 6.260888 3.454002 6.111203 3.492077 C 5.961652 3.530387 5.809582 3.567032 5.655263 3.60248 C 5.500809 3.637694 5.344107 3.671712 5.185488 3.704028 C 5.026635 3.73648 4.865866 3.767231 4.703081 3.79665 C 4.540297 3.826069 4.375731 3.854021 4.209617 3.880372 C 4.043135 3.906624 3.875239 3.931508 3.705895 3.954421 C 3.536317 3.97747 3.365326 3.999151 3.193021 4.019095 C 3.020716 4.039039 2.847465 4.057346 2.672667 4.074051 C 2.498238 4.090855 2.322494 4.105923 2.146039 4.119218 C 1.96935 4.132648 1.792084 4.14454 1.613971 4.154425 C 1.435994 4.164544 1.25744 4.173125 1.078174 4.179934 C 0.899006 4.186373 0.719397 4.191508 0.539679 4.194835 C 0.359961 4.198161 0.180035 4.200048 -0.000000998195 4.200127 C -0.180172 4.199972 -0.359948 4.198342 -0.539833 4.194903 C -0.719584 4.191698 -0.898976 4.186415 -1.078208 4.179792 C -1.257206 4.173034 -1.435945 4.164566 -1.614056 4.154488 C -1.792166 4.14441 -1.969415 4.132587 -2.145901 4.119388 C -2.322521 4.105955 -2.49828 4.090776 -2.672674 4.074186 C -2.847436 4.057496 -3.020967 4.03916 -3.193268 4.019178 C -3.365336 3.999061 -3.536271 3.977667 -3.705743 3.954492 C -3.875214 3.931317 -4.043086 3.906594 -4.209359 3.880325 C -4.376 3.853956 -4.540305 3.826239 -4.703146 3.79674 C -4.865852 3.767475 -5.026491 3.736393 -5.185396 3.703999 C -5.344165 3.671838 -5.500635 3.637725 -5.655235 3.602533 C -5.809601 3.567206 -5.961631 3.530529 -6.111226 3.492135 C -6.260919 3.45411 -6.408176 3.414367 -6.552729 3.373374 C -6.697281 3.332381 -6.839128 3.290137 -6.97827 3.246644 C -7.117411 3.203151 -7.253749 3.158038 -7.387246 3.11191 C -7.520374 3.065881 -7.650932 3.018367 -7.778047 2.969802 C -7.905531 2.921137 -8.029571 2.871421 -8.150538 2.820554 C -8.271271 2.769551 -8.388795 2.717632 -8.503011 2.664426 C -8.617227 2.611221 -8.727865 2.557197 -8.835195 2.501888 C -8.942526 2.446578 -9.046143 2.390684 -9.146219 2.33337 C -9.24616 2.276289 -9.342424 2.218021 -9.434975 2.15917 C -9.527526 2.100318 -9.616266 2.040513 -9.701194 1.979755 C -9.785987 1.919232 -9.866968 1.857755 -9.943867 1.795793 C -10.020902 1.733597 -10.093855 1.670916 -10.162628 1.607381 C -10.231535 1.543612 -10.296226 1.479591 -10.35697 1.414852 C -10.417714 1.350113 -10.474008 1.284987 -10.526355 1.219143 C -10.578567 1.153532 -10.626599 1.087068 -10.670279 1.020586 C -10.714093 0.95387 -10.753458 0.886768 -10.788606 0.819415 C -10.823753 0.752062 -10.85445 0.684323 -10.880931 0.616332 C -10.907411 0.548342 -10.929441 0.479965 -10.947119 0.411571 C -10.964662 0.343411 -10.97789 0.274631 -10.986631 0.206068 C -10.99574 0.137406 -10.999895 0.06869 -10.999932 0.0000920063 C -11.000104 -0.0687399 -10.995556 -0.13749 -10.986889 -0.206123 C -10.977854 -0.274656 -10.964836 -0.343306 -10.946961 -0.41164 C -10.929456 -0.480073 -10.907464 -0.54829 -10.880985 -0.61629 C -10.854505 -0.68429 -10.823773 -0.751938 -10.788554 -0.81937 C -10.753568 -0.886667 -10.714095 -0.953747 -10.67037 -1.020475 C -10.626644 -1.087204 -10.57853 -1.153347 -10.526297 -1.219373 C -10.474164 -1.285029 -10.417642 -1.3501 -10.357002 -1.415054 C -10.29646 -1.479639 -10.23153 -1.543638 -10.162716 -1.607385 C -10.093767 -1.670898 -10.020896 -1.733555 -9.944006 -1.795726 C -9.866883 -1.858032 -9.786072 -1.919348 -9.701106 -1.979943 C -9.616375 -2.040404 -9.527623 -2.100378 -9.43505 -2.159128 C -9.342377 -2.218246 -9.246251 -2.27624 -9.146204 -2.333378 C -9.046157 -2.390517 -8.942423 -2.446665 -8.835371 -2.501922 C -8.727949 -2.557079 -8.617209 -2.611346 -8.503015 -2.664488 C -8.388822 -2.717629 -8.271408 -2.769511 -8.150442 -2.820636 C -8.029575 -2.871393 -7.905389 -2.921258 -7.778217 -2.969728 C -7.650947 -3.018567 -7.520555 -3.065778 -7.387078 -3.111962 C -7.253601 -3.158146 -7.117506 -3.203034 -6.978192 -3.246663 C -6.839111 -3.290156 -6.697179 -3.332488 -6.55263 -3.373525 C -6.40808 -3.414561 -6.261012 -3.453933 -6.111326 -3.492009 C -5.961541 -3.530453 -5.809472 -3.567098 -5.655153 -3.602546 C -5.500699 -3.637761 -5.34423 -3.671643 -5.185378 -3.704094 C -5.026525 -3.736546 -4.865755 -3.767297 -4.702971 -3.796716 C -4.54042 -3.826 -4.375854 -3.853952 -4.209507 -3.880438 C -4.043258 -3.906555 -3.875363 -3.931439 -3.705785 -3.954487 C -3.536207 -3.977536 -3.365449 -3.999082 -3.193144 -4.019026 C -3.020839 -4.03897 -2.847355 -4.057412 -2.672791 -4.073982 C -2.498128 -4.090921 -2.322618 -4.105854 -2.145929 -4.119284 C -1.969473 -4.13258 -1.792207 -4.144471 -1.613861 -4.154491 C -1.435884 -4.164611 -1.25733 -4.173191 -1.078297 -4.179865 C -0.898896 -4.186439 -0.719521 -4.191439 -0.539569 -4.194901 C -0.359851 -4.198227 -0.180158 -4.19998 -0.00012254 -4.200059 C 0.180048 -4.199903 0.359824 -4.198273 0.53971 -4.194834 C 0.71946 -4.19163 0.899087 -4.186482 1.078085 -4.179723 C 1.257316 -4.1731 1.436055 -4.164632 1.614166 -4.154555 C 1.792043 -4.144342 1.969525 -4.132654 2.146011 -4.119454 C 2.322631 -4.106021 2.498157 -4.090708 2.672784 -4.074252 C 2.847312 -4.057427 3.020844 -4.039092 3.193145 -4.01911 C 3.365446 -3.999128 3.536381 -3.977733 3.705853 -3.954558 C 3.875324 -3.931383 4.043196 -3.906661 4.209469 -3.880391 C 4.375877 -3.853888 4.540415 -3.826305 4.703023 -3.796671 C 4.865728 -3.767407 5.026601 -3.73646 5.185506 -3.704065 C 5.344042 -3.671769 5.500745 -3.637791 5.655111 -3.602464 C 5.809478 -3.567137 5.961508 -3.530461 6.111336 -3.492202 C 6.260795 -3.454042 6.408053 -3.414298 6.552839 -3.37344 C 6.697391 -3.332447 6.839238 -3.290204 6.97838 -3.24671 C 7.117656 -3.202983 7.253859 -3.158105 7.387122 -3.111841 C 7.520484 -3.065947 7.651042 -3.018434 7.778157 -2.969868 C 7.905641 -2.921204 8.029682 -2.871487 8.150415 -2.820485 C 8.271381 -2.769617 8.388905 -2.717698 8.503121 -2.664492 C 8.617337 -2.611287 8.727975 -2.557263 8.835306 -2.501954 C 8.942636 -2.446644 9.046019 -2.390616 9.146095 -2.333301 C 9.24627 -2.276355 9.342534 -2.218088 9.435085 -2.159236 C 9.527636 -2.100384 9.616142 -2.040444 9.701304 -1.979822 C 9.786097 -1.919298 9.867078 -1.857821 9.943744 -1.795724 C 10.020778 -1.733528 10.093731 -1.670847 10.162504 -1.607312 C 10.231645 -1.543678 10.296336 -1.479658 10.35708 -1.414918 C 10.417591 -1.350044 10.474118 -1.285054 10.526465 -1.219209 C 10.578444 -1.153464 10.626709 -1.087134 10.670389 -1.020652 C 10.71397 -0.953801 10.753568 -0.886834 10.788716 -0.819481 C 10.82363 -0.751993 10.854561 -0.684389 10.880807 -0.616264 C 10.907288 -0.548273 10.929551 -0.480031 10.946996 -0.411503 C 10.964539 -0.343343 10.978 -0.274698 10.986741 -0.206134 C 10.995617 -0.137337 11.000005 -0.0687562 11.000043 -0.00015822 Z M 11.000043 -0.00015822 " stroke="#61dafb" stroke-width="1" stroke-opacity="1" stroke-miterlimit="4"/></g></svg>