<svg xmlns="http://www.w3.org/2000/svg" xmlns:xlink="http://www.w3.org/1999/xlink" width="500" zoomAndPan="magnify" viewBox="0 0 375 374.999991" height="500" preserveAspectRatio="xMidYMid meet" version="1.0"><defs><clipPath id="a4351ecc89"><path d="M 35.59375 73.640625 L 339.34375 73.640625 L 339.34375 301.640625 L 35.59375 301.640625 Z M 35.59375 73.640625 " clip-rule="nonzero"/></clipPath></defs><rect x="-37.5" width="450" fill="#ffffff" y="-37.499999" height="449.999989" fill-opacity="1"/><rect x="-37.5" width="450" fill="#ebebeb" y="-37.499999" height="449.999989" fill-opacity="1"/><g clip-path="url(#a4351ecc89)"><path fill="#cd6799" d="M 296.980469 204.6875 C 286.390625 204.742188 277.1875 207.296875 269.476562 211.074219 C 266.648438 205.464844 263.824219 200.46875 263.324219 196.800781 C 262.769531 192.527344 262.101562 189.917969 262.769531 184.808594 C 263.433594 179.699219 266.429688 172.425781 266.371094 171.871094 C 266.316406 171.316406 265.707031 168.703125 259.609375 168.648438 C 253.507812 168.59375 248.242188 169.816406 247.632812 171.425781 C 247.019531 173.035156 245.855469 176.699219 245.082031 180.476562 C 244.027344 186.03125 232.882812 205.851562 226.503906 216.238281 C 224.453125 212.183594 222.679688 208.628906 222.289062 205.796875 C 221.738281 201.523438 221.070312 198.914062 221.738281 193.804688 C 222.402344 188.695312 225.394531 181.421875 225.339844 180.867188 C 225.285156 180.308594 224.675781 177.699219 218.574219 177.644531 C 212.476562 177.589844 207.207031 178.8125 206.597656 180.421875 C 205.988281 182.03125 205.324219 185.808594 204.046875 189.472656 C 202.773438 193.136719 187.96875 226.230469 184.085938 234.785156 C 182.089844 239.171875 180.371094 242.667969 179.152344 245.054688 C 179.152344 245.054688 179.097656 245.222656 178.929688 245.5 C 177.875 247.554688 177.265625 248.664062 177.265625 248.664062 C 177.265625 248.664062 177.265625 248.664062 177.265625 248.722656 C 176.433594 250.21875 175.546875 251.609375 175.105469 251.609375 C 174.769531 251.609375 174.160156 247.609375 175.214844 242.167969 C 177.433594 230.675781 182.699219 212.792969 182.644531 212.183594 C 182.644531 211.851562 183.644531 208.742188 179.207031 207.128906 C 174.882812 205.519531 173.328125 208.183594 172.941406 208.183594 C 172.554688 208.183594 172.277344 209.128906 172.277344 209.128906 C 172.277344 209.128906 177.101562 189.027344 163.070312 189.027344 C 154.308594 189.027344 142.222656 198.632812 136.234375 207.296875 C 132.464844 209.351562 124.421875 213.738281 115.828125 218.457031 C 112.558594 220.289062 109.175781 222.121094 106.015625 223.84375 C 105.792969 223.621094 105.570312 223.34375 105.347656 223.121094 C 88.382812 204.964844 56.996094 192.136719 58.328125 167.761719 C 58.828125 158.875 61.875 135.554688 118.601562 107.234375 C 165.289062 84.191406 202.441406 90.578125 208.871094 104.734375 C 218.078125 124.949219 188.964844 162.484375 140.726562 167.925781 C 122.316406 169.980469 112.667969 162.875 110.226562 160.207031 C 107.679688 157.433594 107.289062 157.265625 106.347656 157.820312 C 104.792969 158.652344 105.792969 161.152344 106.347656 162.597656 C 107.789062 166.371094 113.722656 173.035156 123.757812 176.3125 C 132.628906 179.199219 154.199219 180.808594 180.316406 170.703125 C 209.539062 159.375 232.382812 127.890625 225.671875 101.515625 C 218.964844 74.75 174.605469 65.921875 132.628906 80.859375 C 107.679688 89.742188 80.617188 103.738281 61.15625 121.949219 C 38.035156 143.605469 34.375 162.429688 35.871094 170.316406 C 41.25 198.300781 79.785156 216.515625 95.203125 230.007812 C 94.425781 230.453125 93.703125 230.839844 93.09375 231.175781 C 85.386719 235.003906 56 250.386719 48.679688 266.65625 C 40.363281 285.09375 50.011719 298.308594 56.386719 300.085938 C 76.183594 305.582031 96.53125 295.699219 107.457031 279.371094 C 118.378906 263.046875 117.046875 241.835938 112.003906 232.117188 C 111.949219 232.007812 111.890625 231.894531 111.78125 231.785156 C 113.777344 230.617188 115.828125 229.398438 117.824219 228.230469 C 121.761719 225.898438 125.644531 223.734375 128.96875 221.957031 C 127.085938 227.121094 125.699219 233.285156 125.035156 242.167969 C 124.203125 252.609375 128.472656 266.15625 134.070312 271.488281 C 136.566406 273.820312 139.503906 273.875 141.390625 273.875 C 147.933594 273.875 150.871094 268.433594 154.144531 261.992188 C 158.136719 254.105469 161.742188 244.945312 161.742188 244.945312 C 161.742188 244.945312 157.25 269.710938 169.449219 269.710938 C 173.882812 269.710938 178.375 263.9375 180.371094 260.992188 C 180.371094 261.046875 180.371094 261.046875 180.371094 261.046875 C 180.371094 261.046875 180.484375 260.882812 180.703125 260.492188 C 181.148438 259.769531 181.425781 259.328125 181.425781 259.328125 C 181.425781 259.328125 181.425781 259.269531 181.425781 259.214844 C 183.199219 256.105469 187.191406 249.054688 193.125 237.335938 C 200.777344 222.234375 208.152344 203.355469 208.152344 203.355469 C 208.152344 203.355469 208.816406 207.964844 211.089844 215.625 C 212.421875 220.125 215.195312 225.066406 217.410156 229.839844 C 215.636719 232.339844 214.527344 233.726562 214.527344 233.726562 C 214.527344 233.726562 214.527344 233.726562 214.582031 233.785156 C 213.140625 235.671875 211.589844 237.726562 209.871094 239.726562 C 203.828125 246.945312 196.617188 255.21875 195.621094 257.605469 C 194.457031 260.4375 194.734375 262.492188 196.949219 264.15625 C 198.558594 265.378906 201.441406 265.546875 204.382812 265.378906 C 209.816406 264.992188 213.640625 263.65625 215.527344 262.824219 C 218.464844 261.769531 221.902344 260.160156 225.117188 257.773438 C 231.050781 253.386719 234.65625 247.109375 234.324219 238.835938 C 234.15625 234.285156 232.660156 229.730469 230.832031 225.453125 C 231.382812 224.675781 231.882812 223.898438 232.4375 223.121094 C 241.808594 209.40625 249.074219 194.359375 249.074219 194.359375 C 249.074219 194.359375 249.738281 198.96875 252.011719 206.628906 C 253.121094 210.515625 255.394531 214.738281 257.390625 218.847656 C 248.574219 226.011719 243.140625 234.339844 241.199219 239.78125 C 237.707031 249.886719 240.421875 254.441406 245.578125 255.496094 C 247.910156 255.996094 251.234375 254.882812 253.675781 253.828125 C 256.78125 252.832031 260.441406 251.109375 263.933594 248.554688 C 269.867188 244.167969 275.578125 238.058594 275.246094 229.785156 C 275.078125 226.011719 274.082031 222.289062 272.695312 218.679688 C 280.179688 215.570312 289.828125 213.847656 302.136719 215.292969 C 328.53125 218.402344 333.742188 234.894531 332.746094 241.835938 C 331.746094 248.777344 326.203125 252.550781 324.371094 253.71875 C 322.542969 254.882812 321.933594 255.273438 322.097656 256.105469 C 322.320312 257.328125 323.207031 257.273438 324.761719 257.050781 C 326.921875 256.660156 338.625 251.441406 339.121094 238.671875 C 339.953125 222.34375 324.429688 204.519531 296.980469 204.6875 Z M 93.371094 273.429688 C 84.609375 282.980469 72.414062 286.589844 67.144531 283.539062 C 61.488281 280.261719 63.707031 266.15625 74.464844 256.050781 C 81.007812 249.886719 89.433594 244.167969 95.035156 240.667969 C 96.3125 239.890625 98.195312 238.78125 100.46875 237.394531 C 100.859375 237.171875 101.078125 237.058594 101.078125 237.058594 C 101.523438 236.78125 101.964844 236.503906 102.410156 236.226562 C 106.347656 250.664062 102.578125 263.378906 93.371094 273.429688 Z M 157.136719 230.007812 C 154.089844 237.449219 147.710938 256.496094 143.832031 255.441406 C 140.503906 254.550781 138.453125 240.113281 143.164062 225.84375 C 145.550781 218.679688 150.59375 210.128906 153.535156 206.796875 C 158.304688 201.464844 163.570312 199.691406 164.847656 201.855469 C 166.453125 204.6875 159.023438 225.34375 157.136719 230.007812 Z M 209.757812 255.21875 C 208.484375 255.882812 207.265625 256.328125 206.710938 255.996094 C 206.320312 255.773438 207.265625 254.882812 207.265625 254.882812 C 207.265625 254.882812 213.863281 247.777344 216.46875 244.554688 C 217.964844 242.667969 219.742188 240.449219 221.625 237.949219 C 221.625 238.171875 221.625 238.449219 221.625 238.671875 C 221.625 247.167969 213.417969 252.886719 209.757812 255.21875 Z M 250.347656 245.945312 C 249.40625 245.277344 249.570312 243.058594 252.734375 236.117188 C 253.953125 233.394531 256.835938 228.84375 261.769531 224.457031 C 262.324219 226.230469 262.714844 227.953125 262.65625 229.5625 C 262.601562 240.28125 254.949219 244.277344 250.347656 245.945312 Z M 250.347656 245.945312 " fill-opacity="1" fill-rule="nonzero"/></g></svg>