<svg xmlns="http://www.w3.org/2000/svg" xmlns:xlink="http://www.w3.org/1999/xlink" width="500" zoomAndPan="magnify" viewBox="0 0 375 374.999991" height="500" preserveAspectRatio="xMidYMid meet" version="1.0"><defs><g/></defs><rect x="-37.5" width="450" fill="#ffffff" y="-37.499999" height="449.999989" fill-opacity="1"/><rect x="-37.5" width="450" fill="#1b1b1d" y="-37.499999" height="449.999989" fill-opacity="1"/><g fill="#3a55e7" fill-opacity="1"><g transform="translate(35.279299, 286.736831)"><g><path d="M 144.5625 -180.34375 L 144.5625 -150.359375 L 92.515625 -150.359375 L 92.515625 0 L 56.984375 0 L 56.984375 -150.359375 L 4.9375 -150.359375 L 4.9375 -180.34375 Z M 144.5625 -180.34375 "/></g></g><g transform="translate(184.784935, 286.736831)"><g><path d="M 79.9375 2.59375 C 67.4375 2.59375 56.3125 1.050781 46.5625 -2.03125 C 36.820312 -5.113281 28.703125 -9.160156 22.203125 -14.171875 C 15.703125 -19.191406 10.726562 -24.707031 7.28125 -30.71875 L 26.890625 -54.640625 L 29.96875 -54.640625 C 35.394531 -46.585938 42.28125 -40.175781 50.625 -35.40625 C 58.976562 -30.632812 68.75 -28.25 79.9375 -28.25 C 89.46875 -28.25 96.660156 -30.265625 101.515625 -34.296875 C 106.367188 -38.328125 108.796875 -43.875 108.796875 -50.9375 C 108.796875 -55.21875 108.015625 -58.796875 106.453125 -61.671875 C 104.890625 -64.554688 102.296875 -67.023438 98.671875 -69.078125 C 95.054688 -71.128906 90.164062 -72.894531 84 -74.375 L 60.8125 -79.6875 C 44.613281 -83.382812 32.546875 -89.53125 24.609375 -98.125 C 16.671875 -106.71875 12.703125 -117.878906 12.703125 -131.609375 C 12.703125 -141.804688 15.25 -150.769531 20.34375 -158.5 C 25.445312 -166.238281 32.867188 -172.242188 42.609375 -176.515625 C 52.359375 -180.796875 64.019531 -182.9375 77.59375 -182.9375 C 91.488281 -182.9375 103.390625 -181.101562 113.296875 -177.4375 C 123.203125 -173.78125 131.570312 -168.171875 138.40625 -160.609375 L 120.765625 -136.421875 L 117.671875 -136.421875 C 112.578125 -141.765625 106.738281 -145.773438 100.15625 -148.453125 C 93.582031 -151.128906 86.0625 -152.46875 77.59375 -152.46875 C 67.800781 -152.46875 60.351562 -150.738281 55.25 -147.28125 C 50.15625 -143.832031 47.609375 -139.0625 47.609375 -132.96875 C 47.609375 -127.300781 49.394531 -122.78125 52.96875 -119.40625 C 56.550781 -116.03125 62.742188 -113.398438 71.546875 -111.515625 L 95.234375 -106.578125 C 112.742188 -102.878906 125.445312 -96.609375 133.34375 -87.765625 C 141.238281 -78.921875 145.1875 -67.390625 145.1875 -53.171875 C 145.1875 -41.898438 142.757812 -32.085938 137.90625 -23.734375 C 133.050781 -15.390625 125.726562 -8.914062 115.9375 -4.3125 C 106.15625 0.289062 94.15625 2.59375 79.9375 2.59375 Z M 79.9375 2.59375 "/></g></g></g></svg>