<svg xmlns="http://www.w3.org/2000/svg" xmlns:xlink="http://www.w3.org/1999/xlink" width="500" zoomAndPan="magnify" viewBox="0 0 375 374.999991" height="500" preserveAspectRatio="xMidYMid meet" version="1.0"><defs><clipPath id="5599d8abfa"><path d="M 37.5 93.3125 L 337.5 93.3125 L 337.5 281.5625 L 37.5 281.5625 Z M 37.5 93.3125 " clip-rule="nonzero"/></clipPath></defs><rect x="-37.5" width="450" fill="#ffffff" y="-37.499999" height="449.999989" fill-opacity="1"/><rect x="-37.5" width="450" fill="#ecedee" y="-37.499999" height="449.999989" fill-opacity="1"/><g clip-path="url(#5599d8abfa)"><path fill="#1961ed" d="M 337.5 93.964844 L 241.65625 281.03125 L 151.820312 281.03125 L 191.773438 203.433594 L 189.925781 203.433594 C 157.128906 246.390625 107.707031 274.566406 37.5 281.03125 L 37.5 204.585938 C 37.5 204.585938 82.535156 202.046875 108.863281 174.101562 L 37.5 174.101562 L 37.5 93.964844 L 117.636719 93.964844 L 117.636719 160.015625 L 119.484375 160.015625 L 152.28125 93.964844 L 213.019531 93.964844 L 213.019531 159.554688 L 214.867188 159.554688 L 248.585938 93.964844 Z M 337.5 93.964844 " fill-opacity="1" fill-rule="evenodd"/></g></svg>